<svg width="291" height="250" viewBox="0 0 291 250" fill="none" xmlns="http://www.w3.org/2000/svg">
<path opacity="0.5" d="M289.528 234.52H0.852699C0.294346 235.017 0 235.523 0 236.035C0 243.748 65.0039 250 145.19 250C225.377 250 290.381 243.748 290.381 236.035C290.381 235.523 290.086 235.017 289.528 234.52Z" fill="#6D99BC"/>
<path d="M148.469 234.254H73.9465C65.2136 234.254 58.1338 227.174 58.1338 218.441V38.1688C58.1338 29.4359 65.2136 22.3561 73.9465 22.3561H148.468C157.201 22.3561 164.281 29.4359 164.281 38.1688V218.441C164.281 227.174 157.202 234.254 148.469 234.254Z" fill="#0C1A1E"/>
<path d="M157.619 234.254H80.1658C72.2424 234.254 65.8191 227.831 65.8191 219.907V36.7028C65.8191 28.7794 72.2424 22.3561 80.1658 22.3561H157.62C165.543 22.3561 171.967 28.7794 171.967 36.7028V219.908C171.966 227.831 165.543 234.254 157.619 234.254Z" fill="#1A2E35"/>
<path d="M153.239 221.58H85.0076C77.6954 221.58 71.7678 215.652 71.7678 208.34V40.1781C71.7678 32.866 77.6954 26.9384 85.0076 26.9384H153.239C160.551 26.9384 166.479 32.866 166.479 40.1781V208.34C166.479 215.652 160.551 221.58 153.239 221.58Z" fill="white"/>
<path d="M157.903 167.505H79.7624C77.0293 167.505 74.8134 165.289 74.8134 162.556V61.9494C74.8134 59.2164 77.0287 57.0004 79.7624 57.0004H157.903C160.636 57.0004 162.852 59.2158 162.852 61.9494V162.556C162.852 165.289 160.636 167.505 157.903 167.505Z" fill="#E6E6E6"/>
<path d="M159.871 182.027H79.601C77.753 182.027 76.2542 180.529 76.2542 178.68V175.604C76.2542 173.756 77.7523 172.257 79.601 172.257H159.871C161.72 172.257 163.218 173.755 163.218 175.604V178.68C163.218 180.529 161.72 182.027 159.871 182.027Z" fill="#369FFF"/>
<path d="M159.871 210.016H79.601C77.753 210.016 76.2542 208.518 76.2542 206.669V190.127C76.2542 188.278 77.7523 186.78 79.601 186.78H159.871C161.72 186.78 163.218 188.278 163.218 190.127V206.669C163.218 208.518 161.72 210.016 159.871 210.016Z" fill="#E6E6E6"/>
<path d="M162.852 74.1615V61.95C162.852 59.217 160.636 57.001 157.903 57.001H79.7624C77.0293 57.001 74.8134 59.2164 74.8134 61.95V74.1615H162.852Z" fill="#369FFF"/>
<path d="M90.2046 78.5103H79.3577V89.3571H90.2046V78.5103Z" fill="#BFBFC1"/>
<path d="M107.23 78.5103H96.3832V89.3571H107.23V78.5103Z" fill="#BFBFC1"/>
<path d="M124.256 78.5103H113.409V89.3571H124.256V78.5103Z" fill="#BFBFC1"/>
<path d="M141.282 78.5103H130.435V89.3571H141.282V78.5103Z" fill="#BFBFC1"/>
<path d="M158.307 78.5103H147.461V89.3571H158.307V78.5103Z" fill="#BFBFC1"/>
<path d="M90.2046 94.9123H79.3577V105.759H90.2046V94.9123Z" fill="#BFBFC1"/>
<path d="M107.23 94.9123H96.3832V105.759H107.23V94.9123Z" fill="#BFBFC1"/>
<path d="M124.256 94.9123H113.409V105.759H124.256V94.9123Z" fill="#BFBFC1"/>
<path d="M141.282 94.9123H130.435V105.759H141.282V94.9123Z" fill="#FE462C"/>
<path d="M158.307 94.9123H147.461V105.759H158.307V94.9123Z" fill="#BFBFC1"/>
<path d="M90.2046 111.315H79.3577V122.162H90.2046V111.315Z" fill="#BFBFC1"/>
<path d="M107.23 111.315H96.3832V122.162H107.23V111.315Z" fill="#BFBFC1"/>
<path d="M124.256 111.315H113.409V122.162H124.256V111.315Z" fill="#BFBFC1"/>
<path d="M141.282 111.315H130.435V122.162H141.282V111.315Z" fill="#BFBFC1"/>
<path d="M158.307 111.315H147.461V122.162H158.307V111.315Z" fill="#BFBFC1"/>
<path d="M90.2046 127.717H79.3577V138.564H90.2046V127.717Z" fill="#BFBFC1"/>
<path d="M107.23 127.717H96.3832V138.564H107.23V127.717Z" fill="#BFBFC1"/>
<path d="M124.256 127.717H113.409V138.564H124.256V127.717Z" fill="#BFBFC1"/>
<path d="M141.282 127.717H130.435V138.564H141.282V127.717Z" fill="#BFBFC1"/>
<path d="M158.307 127.717H147.461V138.564H158.307V127.717Z" fill="#BFBFC1"/>
<path d="M149.126 49.0027C149.126 50.6436 150.455 51.9733 152.096 51.9733C153.737 51.9733 155.067 50.6436 155.067 49.0027C155.067 47.3619 153.737 46.0322 152.096 46.0322C150.455 46.0322 149.126 47.3619 149.126 49.0027Z" fill="#BFBFC1"/>
<path d="M138.311 49.0027C138.311 50.6436 139.641 51.9733 141.282 51.9733C142.923 51.9733 144.252 50.6436 144.252 49.0027C144.252 47.3619 142.923 46.0322 141.282 46.0322C139.641 46.0322 138.311 47.3619 138.311 49.0027Z" fill="#BFBFC1"/>
<path d="M127.497 49.0027C127.497 50.6435 128.826 51.9732 130.467 51.9732C132.108 51.9732 133.438 50.6435 133.438 49.0027C133.438 47.3618 132.108 46.0321 130.467 46.0321C128.826 46.0321 127.497 47.3618 127.497 49.0027Z" fill="#BFBFC1"/>
<path d="M82.4669 63.2049V69.2777L78.2157 66.2413L82.4669 63.2049Z" fill="white"/>
<path d="M154.056 63.2049V69.2777L158.307 66.2413L154.056 63.2049Z" fill="white"/>
<g opacity="0.5">
<path d="M166.478 108.942C142.407 148.901 114.044 186.02 83.8373 221.52C84.2233 221.554 84.6125 221.579 85.0069 221.579H125.157C138.312 202.77 155.483 183.139 166.477 163.706V108.942H166.478Z" fill="white"/>
<path d="M166.478 52.6885V40.1781C166.478 32.8666 160.55 26.9384 153.238 26.9384H139.764C119.044 61.1457 95.1722 92.4535 71.7672 125.663V178.929C104.779 145.288 165.525 54.3248 166.478 52.6885Z" fill="white"/>
</g>
<path d="M100.904 33.9743H137.343C140.551 33.9743 143.152 31.3736 143.152 28.1655C143.152 24.9574 140.551 22.3567 137.343 22.3567H100.904C97.6962 22.3567 95.0955 24.9574 95.0955 28.1655C95.0948 31.3736 97.6962 33.9743 100.904 33.9743Z" fill="#1A2E35"/>
<path d="M122.259 31.1961H105.624C104.453 31.1961 103.495 30.2382 103.495 29.0673C103.495 27.8963 104.453 26.9384 105.624 26.9384H122.259C123.43 26.9384 124.388 27.8963 124.388 29.0673C124.388 30.2382 123.43 31.1961 122.259 31.1961Z" fill="#0C1A1E"/>
<path d="M131.309 31.1961H129.626C128.455 31.1961 127.497 30.2382 127.497 29.0673C127.497 27.8963 128.455 26.9384 129.626 26.9384H131.309C132.48 26.9384 133.438 27.8963 133.438 29.0673C133.438 30.2382 132.48 31.1961 131.309 31.1961Z" fill="#0C1A1E"/>
<path d="M62.6619 84.565V53.1765C59.4357 53.1765 56.8202 55.7921 56.8202 59.0189V78.7232C56.8202 81.9494 59.4357 84.565 62.6619 84.565Z" fill="#193B44"/>
<path d="M61.7027 102.355C62.2327 102.355 62.6619 101.926 62.6619 101.396V89.1583C62.6619 88.6284 62.2327 88.1991 61.7027 88.1991C59.0058 88.1991 56.8202 90.3854 56.8202 93.0816V97.4729C56.8202 100.169 59.0058 102.355 61.7027 102.355Z" fill="#193B44"/>
<path d="M253.755 234.254H21.3929C21.3929 231.073 23.9716 228.494 27.1526 228.494H247.995C251.176 228.494 253.755 231.073 253.755 234.254Z" fill="#0C1A1E"/>
<path d="M5.55513 3.93042L16.8403 16.6234L0.46283 10.5332L5.55513 3.93042Z" fill="#C1DEFD"/>
<path d="M18.7374 0L19.9671 10.3957L13.8349 1.54273L18.7374 0Z" fill="#C1DEFD"/>
<path d="M3.46887 19.8089L13.8349 21.2613L3.71481 24.9419L3.46887 19.8089Z" fill="#C1DEFD"/>
<path d="M43.6367 80.8333C43.6367 82.5458 45.0245 83.9336 46.737 83.9336C48.4495 83.9336 49.8373 82.5458 49.8373 80.8333C49.8373 79.1208 48.4495 77.733 46.737 77.733C45.0245 77.733 43.6367 79.1208 43.6367 80.8333Z" fill="#C1DEFD"/>
<path d="M155.067 16.0541C159.426 16.0541 162.959 12.5208 162.959 8.16226C162.959 3.80373 159.426 0.270447 155.067 0.270447C150.709 0.270447 147.175 3.80373 147.175 8.16226C147.175 12.5208 150.709 16.0541 155.067 16.0541Z" fill="#C1DEFD"/>
<path d="M275.784 51.9732H185.21C181.198 51.9732 177.945 48.7212 177.945 44.7088V7.43346C177.945 3.42172 181.197 0.169067 185.21 0.169067H275.784C279.795 0.169067 283.048 3.42172 283.048 7.43346V44.7088C283.049 48.7206 279.796 51.9732 275.784 51.9732Z" fill="#369FFF"/>
<path d="M220.834 13.1119H187.253C185.886 13.1119 184.778 12.0043 184.778 10.6371C184.778 9.27061 185.886 8.16229 187.253 8.16229H220.834C222.2 8.16229 223.309 9.27061 223.309 10.6371C223.309 12.0036 222.201 13.1119 220.834 13.1119Z" fill="#E6E6E6"/>
<path d="M210.782 20.5402H187.253C185.887 20.5402 184.779 19.4326 184.779 18.0654C184.779 16.6989 185.886 15.5906 187.253 15.5906H210.782C212.149 15.5906 213.257 16.6982 213.257 18.0654C213.257 19.4319 212.149 20.5402 210.782 20.5402Z" fill="#E6E6E6"/>
<path d="M35.8662 48.9994C47.0431 48.9994 56.1037 39.9388 56.1037 28.7619C56.1037 17.585 47.0431 8.52435 35.8662 8.52435C24.6893 8.52435 15.6287 17.585 15.6287 28.7619C15.6287 39.9388 24.6893 48.9994 35.8662 48.9994Z" fill="#0D548A"/>
<path d="M35.8662 45.0529C44.8634 45.0529 52.1572 37.7591 52.1572 28.7619C52.1572 19.7646 44.8634 12.4709 35.8662 12.4709C26.8689 12.4709 19.5752 19.7646 19.5752 28.7619C19.5752 37.7591 26.8689 45.0529 35.8662 45.0529Z" fill="white"/>
<path d="M35.8662 32.3934C35.5209 32.3934 35.2407 32.1133 35.2407 31.7679V16.8273C35.2407 16.482 35.5209 16.2018 35.8662 16.2018C36.2115 16.2018 36.4917 16.482 36.4917 16.8273V31.7679C36.4917 32.1133 36.2115 32.3934 35.8662 32.3934Z" fill="#0D548A"/>
<path d="M35.415 31.9151V31.6214C35.415 31.3574 35.6293 31.1431 35.8934 31.1431H44.4139C44.6779 31.1431 44.8922 31.3574 44.8922 31.6214V31.9151C44.8922 32.1791 44.6779 32.3934 44.4139 32.3934H35.8934C35.6293 32.3934 35.415 32.1791 35.415 31.9151Z" fill="#0D548A"/>
<path d="M207.799 81.4607C207.799 81.4607 215.273 83.7522 218.508 81.7053C221.742 79.6591 219.068 76.1605 217.683 76.2264C216.296 76.2929 208.446 77.7175 207.799 81.4607Z" fill="#AEB9D0"/>
<path d="M210.006 79.7676L205.186 94.8347L208.558 103.564C208.558 103.564 211.492 105.712 216.197 92.5826C218.786 85.3608 221.475 76.5827 221.475 76.5827L210.006 79.7676Z" fill="#FD9697"/>
<path d="M218.504 85.8611C218.59 85.6035 218.523 85.752 218.761 85.0865C220.303 80.4086 221.475 76.5821 221.475 76.5821L210.006 79.767L208.472 84.5649C211.738 83.7445 215.296 84.0492 218.504 85.8611Z" fill="#2E4F97"/>
<path d="M209.737 95.5235C209.504 95.4092 198.388 85.4202 191.846 80.8591L190.167 84.2809C190.167 84.2809 201.183 108.386 209.868 103.491L209.737 95.5235Z" fill="#FD9697"/>
<path d="M193.258 81.8719C193.258 81.8719 191.488 79.9122 189.604 79.1105C187.719 78.3094 188.808 75.6016 187.728 75.8449C186.649 76.0876 185.694 77.2612 186.248 79.6166C186.803 81.9726 186.154 83.5922 182.586 82.7756C179.019 81.9591 177.731 80.6836 176.941 82.1049C176.151 83.5257 178.511 85.8759 185.308 85.3292C185.308 85.3292 181.576 86.2658 178.313 84.9438C178.313 84.9438 176.674 84.0879 176.323 85.5132C175.972 86.9384 179.402 89.4649 185.255 87.5632C185.255 87.5632 184.614 88.0215 183.44 88.3708C181.999 88.7987 180.465 88.7684 179.017 88.3656C178.102 88.1113 176.942 87.8905 176.647 88.2959C176.142 88.9917 179.529 92.1224 186.505 90.4331C193.48 88.7438 193.191 84.7347 193.191 84.7347L193.258 81.8719Z" fill="#FD9697"/>
<path d="M242.515 12.4509C242.515 12.4509 242.639 6.85963 249.115 8.44561C256.702 10.3033 262.031 22.5226 251.158 22.7401C240.285 22.9576 242.515 12.4509 242.515 12.4509Z" fill="#000A28"/>
<path d="M236.637 8.82587C236.637 8.82587 247.06 8.44761 251.093 17.9054C255.127 27.3632 264.782 30.5797 262.999 38.9634C261.217 47.347 254.946 48.3372 254.946 48.3372H251.768L252.127 44.8548C252.127 44.8548 251.184 48.2998 248.873 48.6154C246.563 48.9311 228.011 48.2707 228.011 48.2707L228.542 46.3562C228.542 46.3562 227.253 48.629 223.309 48.6148C219.366 48.6006 212.699 40.2343 215.472 34.2183C218.245 28.2023 223.984 25.8773 224.846 20.6746C225.705 15.4719 228.559 9.25125 236.637 8.82587Z" fill="#010C39"/>
<path d="M250.94 220.059L251.609 233.452C251.609 233.452 241.286 236 236.866 239.888C235.733 240.884 236.404 242.801 237.89 242.82C245.19 242.909 263.571 242.98 263.85 241.452C264.197 239.546 263.089 222.661 263.089 222.661L250.94 220.059Z" fill="#010C39"/>
<path d="M251.441 230.086L250.94 220.059L263.089 222.661C263.089 222.661 263.225 224.735 263.386 227.509C259.74 230.735 255.388 231.71 251.441 230.086Z" fill="#020921"/>
<path d="M263.915 239.82C263.917 240.602 263.899 241.182 263.849 241.452C263.571 242.98 245.189 242.909 237.89 242.82C236.919 242.808 236.301 241.986 236.301 241.139C240.885 241.962 255.423 242.964 263.915 239.82Z" fill="white"/>
<path d="M252.528 235.62C252.344 236.196 251.544 235.524 250.354 235.118C249.163 234.712 248.034 234.725 248.218 234.149C248.401 233.574 249.514 233.436 250.705 233.842C251.895 234.248 252.711 235.044 252.528 235.62Z" fill="white"/>
<path d="M249.381 236.546C249.198 237.122 248.397 236.45 247.207 236.044C246.017 235.638 244.888 235.651 245.071 235.076C245.254 234.5 246.368 234.362 247.558 234.768C248.748 235.174 249.564 235.97 249.381 236.546Z" fill="white"/>
<path d="M246.222 237.933C246.039 238.509 245.239 237.837 244.048 237.431C242.858 237.025 241.729 237.038 241.912 236.463C242.096 235.887 243.209 235.749 244.4 236.155C245.59 236.561 246.406 237.357 246.222 237.933Z" fill="white"/>
<path d="M219.784 220.059L220.454 233.452C220.454 233.452 210.13 236 205.711 239.888C204.578 240.884 205.248 242.801 206.735 242.82C214.034 242.909 232.416 242.98 232.694 241.452C233.041 239.546 231.933 222.661 231.933 222.661L219.784 220.059Z" fill="#010C39"/>
<path d="M220.285 230.086L219.784 220.059L231.933 222.661C231.933 222.661 232.069 224.735 232.231 227.509C228.585 230.735 224.232 231.71 220.285 230.086Z" fill="#020921"/>
<path d="M232.761 239.82C232.763 240.602 232.744 241.182 232.694 241.452C232.416 242.98 214.034 242.909 206.735 242.82C205.764 242.808 205.146 241.986 205.146 241.139C209.73 241.962 224.268 242.964 232.761 239.82Z" fill="white"/>
<path d="M221.372 235.62C221.189 236.196 220.389 235.524 219.198 235.118C218.008 234.712 216.879 234.725 217.062 234.149C217.246 233.574 218.359 233.436 219.549 233.842C220.74 234.248 221.556 235.044 221.372 235.62Z" fill="white"/>
<path d="M218.225 236.546C218.042 237.122 217.242 236.45 216.051 236.044C214.861 235.638 213.732 235.651 213.915 235.076C214.099 234.5 215.212 234.362 216.403 234.768C217.593 235.174 218.409 235.97 218.225 236.546Z" fill="white"/>
<path d="M215.068 237.933C214.884 238.509 214.084 237.837 212.894 237.431C211.703 237.025 210.574 237.038 210.758 236.463C210.941 235.887 212.054 235.749 213.245 236.155C214.435 236.561 215.251 237.357 215.068 237.933Z" fill="white"/>
<mask id="mask0_55_1679" style="mask-type:luminance" maskUnits="userSpaceOnUse" x="213" y="107" width="54" height="117">
<path d="M234.357 108.117L234.869 108.13V107.687L259.047 108.211C260.452 109.769 261.632 112.615 262.581 116.52C263.555 120.527 264.272 125.561 264.781 131.257C265.801 142.646 265.99 156.626 265.788 170.214C265.586 183.799 264.994 196.98 264.451 206.764C264.18 211.656 263.921 215.699 263.731 218.518C263.635 219.928 263.557 221.032 263.502 221.783C263.482 222.064 263.465 222.296 263.451 222.475L250.805 222.587C245.789 189.79 242.783 167.012 241.029 152.422C240.149 145.095 239.585 139.833 239.24 136.403C239.068 134.689 238.951 133.433 238.877 132.605C238.84 132.192 238.814 131.885 238.797 131.682C238.789 131.581 238.782 131.505 238.778 131.455C238.776 131.43 238.775 131.411 238.774 131.399C238.773 131.393 238.773 131.389 238.773 131.386V131.382L238.735 130.911L238.264 130.92L236.068 130.965H236.067L235.502 130.976L235.067 130.985L235.016 131.418V131.419V131.42C235.016 131.421 235.015 131.423 235.015 131.426C235.014 131.43 235.014 131.437 235.013 131.446C235.011 131.465 235.007 131.494 235.003 131.531C234.995 131.606 234.981 131.716 234.965 131.863C234.932 132.157 234.885 132.595 234.824 133.171C234.704 134.322 234.534 136.026 234.334 138.237C233.934 142.659 233.415 149.111 232.94 157.231C231.995 173.368 231.221 196.096 231.89 222.591H220.386C220.367 222.477 220.343 222.341 220.317 222.183C220.226 221.644 220.094 220.845 219.93 219.814C219.601 217.752 219.141 214.756 218.618 211.024C217.573 203.561 216.279 193.156 215.277 181.395C213.286 158.005 212.464 129.302 217.057 107.686L234.357 108.117Z" fill="white" stroke="white"/>
</mask>
<g mask="url(#mask0_55_1679)">
<path d="M234.357 108.117L234.869 108.13V107.687L259.047 108.211C260.452 109.769 261.632 112.615 262.581 116.52C263.555 120.527 264.272 125.561 264.781 131.257C265.801 142.646 265.99 156.626 265.788 170.214C265.586 183.799 264.994 196.98 264.451 206.764C264.18 211.656 263.921 215.699 263.731 218.518C263.635 219.928 263.557 221.032 263.502 221.783C263.482 222.064 263.464 222.296 263.45 222.475L250.805 222.587C245.789 189.79 242.783 167.012 241.029 152.422C240.149 145.095 239.585 139.833 239.24 136.403C239.068 134.689 238.951 133.433 238.877 132.605C238.84 132.192 238.814 131.885 238.797 131.682C238.789 131.581 238.782 131.505 238.778 131.455C238.776 131.43 238.775 131.411 238.774 131.399C238.773 131.393 238.773 131.389 238.773 131.386V131.382L238.735 130.911L238.264 130.92L236.068 130.965H236.067L235.502 130.976L235.067 130.985L235.016 131.418V131.419V131.42C235.016 131.421 235.015 131.423 235.015 131.426C235.014 131.43 235.014 131.437 235.013 131.446C235.011 131.465 235.007 131.494 235.003 131.531C234.995 131.606 234.981 131.716 234.965 131.863C234.932 132.157 234.885 132.595 234.824 133.171C234.704 134.322 234.534 136.026 234.334 138.237C233.934 142.659 233.415 149.111 232.94 157.231C231.995 173.368 231.221 196.096 231.89 222.591H220.386C220.367 222.477 220.343 222.341 220.317 222.183C220.226 221.644 220.094 220.845 219.93 219.814C219.601 217.752 219.141 214.756 218.618 211.024C217.573 203.561 216.279 193.156 215.277 181.395C213.286 158.005 212.464 129.302 217.057 107.686L234.357 108.117Z" fill="#263238" stroke="#263238"/>
</g>
<mask id="mask1_55_1679" style="mask-type:luminance" maskUnits="userSpaceOnUse" x="213" y="107" width="54" height="117">
<path d="M234.357 108.117L234.869 108.13V107.687L259.047 108.211C260.452 109.769 261.632 112.615 262.581 116.52C263.555 120.527 264.272 125.561 264.781 131.257C265.801 142.646 265.99 156.626 265.788 170.214C265.586 183.799 264.994 196.98 264.451 206.764C264.18 211.656 263.921 215.699 263.731 218.518C263.635 219.928 263.557 221.032 263.502 221.783C263.482 222.064 263.465 222.296 263.451 222.475L250.805 222.587C245.789 189.79 242.783 167.012 241.029 152.422C240.149 145.095 239.585 139.833 239.24 136.403C239.068 134.689 238.951 133.433 238.877 132.605C238.84 132.192 238.814 131.885 238.797 131.682C238.789 131.581 238.782 131.505 238.778 131.455C238.776 131.43 238.775 131.411 238.774 131.399C238.773 131.393 238.773 131.389 238.773 131.386V131.382L238.735 130.911L238.264 130.92L236.068 130.965H236.067L235.502 130.976L235.067 130.985L235.016 131.418V131.419V131.42C235.016 131.421 235.015 131.423 235.015 131.426C235.014 131.43 235.014 131.437 235.013 131.446C235.011 131.465 235.007 131.494 235.003 131.531C234.995 131.606 234.981 131.716 234.965 131.863C234.932 132.157 234.885 132.595 234.824 133.171C234.704 134.322 234.534 136.026 234.334 138.237C233.934 142.659 233.415 149.111 232.94 157.231C231.995 173.368 231.221 196.096 231.89 222.591H220.386C220.367 222.477 220.343 222.341 220.317 222.183C220.226 221.644 220.094 220.845 219.93 219.814C219.601 217.752 219.141 214.756 218.618 211.024C217.573 203.561 216.279 193.156 215.277 181.395C213.286 158.005 212.464 129.302 217.057 107.686L234.357 108.117Z" fill="white" stroke="white"/>
</mask>
<g mask="url(#mask1_55_1679)">
<path d="M257.212 107.176C257.212 107.176 260.76 200.979 259.536 224.005" stroke="#263238" stroke-width="1.0823" stroke-miterlimit="10"/>
</g>
<mask id="mask2_55_1679" style="mask-type:luminance" maskUnits="userSpaceOnUse" x="213" y="107" width="54" height="117">
<path d="M234.357 108.117L234.869 108.13V107.687L259.047 108.211C260.452 109.769 261.632 112.615 262.581 116.52C263.555 120.527 264.272 125.561 264.781 131.257C265.801 142.646 265.99 156.626 265.788 170.214C265.586 183.799 264.994 196.98 264.451 206.764C264.18 211.656 263.921 215.699 263.731 218.518C263.635 219.928 263.557 221.032 263.502 221.783C263.482 222.064 263.464 222.296 263.45 222.475L250.805 222.587C245.789 189.79 242.783 167.012 241.029 152.422C240.149 145.095 239.585 139.833 239.24 136.403C239.068 134.689 238.951 133.433 238.877 132.605C238.84 132.192 238.814 131.885 238.797 131.682C238.789 131.581 238.782 131.505 238.778 131.455C238.776 131.43 238.775 131.411 238.774 131.399C238.773 131.393 238.773 131.389 238.773 131.386V131.382L238.735 130.911L238.264 130.92L236.068 130.965H236.067L235.502 130.976L235.067 130.985L235.016 131.418V131.419V131.42C235.016 131.421 235.015 131.423 235.015 131.426C235.014 131.43 235.014 131.437 235.013 131.446C235.011 131.465 235.007 131.494 235.003 131.531C234.995 131.606 234.981 131.716 234.965 131.863C234.932 132.157 234.885 132.595 234.824 133.171C234.704 134.322 234.534 136.026 234.334 138.237C233.934 142.659 233.415 149.111 232.94 157.231C231.995 173.368 231.221 196.096 231.89 222.591H220.386C220.367 222.477 220.343 222.341 220.317 222.183C220.226 221.644 220.094 220.845 219.93 219.814C219.601 217.752 219.141 214.756 218.618 211.024C217.573 203.561 216.279 193.156 215.277 181.395C213.286 158.005 212.464 129.302 217.057 107.686L234.357 108.117Z" fill="white" stroke="white"/>
</mask>
<g mask="url(#mask2_55_1679)">
<path d="M221.398 106.493C221.398 106.493 217.094 173.178 221.398 204.692C225.702 236.206 225.702 236.206 225.702 236.206" stroke="#263238" stroke-width="1.0823" stroke-miterlimit="10"/>
</g>
<path d="M254.027 112.874C255.967 111.257 257.757 109.641 259.536 108.024C259.449 107.922 259.363 107.809 259.274 107.716L234.369 107.177V107.617L216.654 107.177C216.505 107.869 216.361 108.568 216.222 109.275C226.105 118.597 243.08 121.769 254.027 112.874Z" fill="#263238"/>
<path d="M248.301 29.1221C246.77 31.544 246.554 35.448 248.538 36.7028C250.523 37.957 253.957 36.087 255.488 33.6651C257.019 31.2432 256.651 28.263 254.667 27.0081C252.682 25.7539 249.832 26.7002 248.301 29.1221Z" fill="#FD9697"/>
<path d="M228.952 29.714C230.651 32.0217 231.143 35.9005 229.252 37.2922C227.362 38.6838 223.804 37.0624 222.105 34.7547C220.406 32.4471 220.561 29.4488 222.452 28.0564C224.343 26.6647 227.253 27.4064 228.952 29.714Z" fill="#FD9697"/>
<path d="M254.163 57.0152C242.293 53.3159 245.531 41.0612 245.531 41.0612L240.058 40.3937V40.2905L239.634 40.3421L239.21 40.2905V40.3937L233.737 41.0612C233.737 41.0612 236.975 53.3159 225.105 57.0152C213.236 60.7146 210.538 64.4139 209.613 79.0582H269.653C268.73 64.4139 266.032 60.7146 254.163 57.0152Z" fill="#FD9697"/>
<path d="M254.163 57.0152C253.556 56.8261 252.998 56.6092 252.468 56.3781C244.215 61.2509 233.002 61.8229 224.875 57.0888C213.205 60.7642 210.533 64.5113 209.614 79.0576H269.654C268.73 64.4139 266.032 60.7145 254.163 57.0152Z" fill="white"/>
<path d="M255.552 57.4651C245.946 65.6745 231.735 68.0034 222.143 58.0176C212.777 61.4659 210.456 65.7255 209.614 79.0582H269.654C268.767 65.0058 266.242 61.0321 255.552 57.4651Z" fill="#D8D8D8"/>
<path d="M269.655 79.0575C268.73 64.4138 266.032 60.7145 254.163 57.0145C253.237 56.726 252.403 56.3852 251.653 56.0024C247.978 60.9591 241.606 68.3242 237.617 68.1777C235.355 68.4288 227.736 59.45 225.946 56.7273C225.674 56.8273 225.396 56.9242 225.107 57.0145C213.238 60.7139 208.725 66.8164 207.8 81.46C207.8 81.46 209.167 80.3504 212.36 79.51C215.023 78.809 217.956 79.3151 217.956 79.3151L215.785 108.31C215.785 108.31 224.253 112.718 237.433 112.67C254.145 112.61 260.388 108.31 260.388 108.31L258.908 79.3848L269.655 79.0575Z" fill="#407BFF"/>
<path d="M245.144 43.9666C245.221 42.2353 245.531 41.0612 245.531 41.0612L240.058 40.3937V40.2905L239.634 40.3421L239.21 40.2905V40.3937L233.737 41.0612C233.737 41.0612 234.266 43.0629 234.112 45.6926C235.314 48.1435 239.635 51.5427 245.144 43.9666Z" fill="#DD5152"/>
<path d="M226.166 18.4205C226.083 18.6651 223.449 35.3569 229.577 41.5421C235.705 47.7272 246.302 44.0659 248.884 37.7272C251.112 32.256 251.543 21.9468 247.207 15.6455C242.872 9.34545 230.443 5.87721 226.166 18.4205Z" fill="#FD9697"/>
<path opacity="0.3" d="M235.165 22.7517C240.023 22.2663 245.219 23.1293 249.813 21.8215C249.283 19.5746 248.445 17.4451 247.207 15.6461C242.872 9.34541 230.443 5.87717 226.166 18.4211C226.137 18.5037 225.816 20.4795 225.643 23.2933C228.205 22.9376 233.067 22.4276 233.067 22.4276C233.067 22.4276 233.979 21.1418 234.465 20.6564C234.726 21.2761 234.837 21.6595 235.165 22.7517Z" fill="#DD5152"/>
<path opacity="0.3" d="M226.385 35.0703C226.992 37.62 227.986 39.9367 229.577 41.542C235.704 47.7272 246.302 44.0659 248.884 37.7272C249.487 36.2464 249.956 34.4106 250.235 32.3967C249.962 41.686 232.645 50.251 226.385 35.0703Z" fill="#DD5152"/>
<path d="M233.821 22.9635C234.071 25.7204 234.32 28.4766 234.57 31.2335C234.606 31.6331 234.642 32.0327 234.678 32.4322C234.684 32.4955 234.722 32.5658 234.791 32.5794C235.392 32.6969 235.995 32.8144 236.596 32.9318C236.788 32.9693 236.871 32.6749 236.678 32.6375C236.076 32.52 235.474 32.4025 234.872 32.2851C234.91 32.3341 234.947 32.3832 234.984 32.4322C234.735 29.6753 234.485 26.9191 234.236 24.1622C234.2 23.7626 234.163 23.363 234.127 22.9635C234.109 22.7692 233.804 22.7679 233.821 22.9635Z" fill="#DD5152"/>
<path d="M253.098 29.989C252.702 30.0129 252.293 30.144 251.95 30.3389C251.647 30.5106 251.383 30.7539 251.208 31.056C250.988 31.4324 250.916 31.881 250.947 32.3122C250.973 32.6853 251.084 33.0887 251.383 33.3379C251.619 33.5354 251.921 33.6012 252.222 33.5509C252.521 33.5012 252.806 33.3301 253.001 33.0997C253.22 32.8415 253.383 32.4722 253.283 32.1308C253.169 31.7409 252.764 31.555 252.386 31.5298C251.959 31.5014 251.511 31.6757 251.241 32.0133C251.12 32.1656 251.335 32.3832 251.457 32.2295C251.658 31.9791 251.957 31.8397 252.277 31.8332C252.523 31.8287 252.829 31.9016 252.956 32.1353C253.082 32.3664 252.958 32.6601 252.811 32.8512C252.665 33.0435 252.45 33.1855 252.215 33.241C252.006 33.2907 251.775 33.2617 251.598 33.1216C251.363 32.9357 251.275 32.6136 251.253 32.3277C251.199 31.6402 251.447 30.9999 252.048 30.6345C252.273 30.4977 252.521 30.4054 252.777 30.3466C252.823 30.3357 252.87 30.326 252.918 30.3176C252.938 30.3137 252.959 30.3105 252.98 30.3073C252.993 30.3053 253.049 30.2982 252.997 30.3047C253.031 30.3002 253.063 30.2963 253.097 30.2944C253.293 30.2827 253.295 29.9774 253.098 29.989Z" fill="#DD5152"/>
<path d="M223.37 31.0966C223.395 31.0979 223.42 31.1012 223.446 31.1044C223.489 31.1089 223.44 31.1031 223.457 31.1057C223.472 31.1083 223.488 31.1102 223.503 31.1128C223.544 31.1192 223.586 31.127 223.626 31.1354C223.842 31.1805 224.055 31.2477 224.252 31.3458C224.829 31.633 225.187 32.1552 225.219 32.804C225.245 33.3513 225.07 34.0898 224.409 34.0653C224.184 34.0569 223.953 33.9491 223.783 33.7903C223.598 33.6179 223.427 33.3417 223.464 33.0783C223.506 32.7885 223.821 32.6542 224.081 32.6374C224.438 32.6142 224.786 32.7497 225.01 33.0312C225.133 33.1848 225.348 32.9673 225.227 32.8149C224.795 32.2753 223.743 32.0946 223.292 32.7149C222.861 33.3094 223.474 34.0879 224.041 34.2976C224.322 34.4016 224.642 34.3964 224.91 34.2583C225.216 34.1008 225.397 33.7806 225.472 33.4559C225.66 32.6394 225.403 31.7692 224.719 31.2696C224.339 30.9927 223.841 30.8191 223.37 30.7907C223.174 30.779 223.174 31.0844 223.37 31.0966Z" fill="#DD5152"/>
<path d="M227.215 33.9698C227.195 34.9754 228.189 35.8094 229.434 35.8333C230.679 35.8572 231.703 35.0613 231.723 34.0563C231.742 33.0506 230.749 32.2166 229.504 32.1927C228.258 32.1688 227.234 32.9641 227.215 33.9698Z" fill="#DD5152"/>
<path d="M241.572 33.9697C241.553 34.9754 242.546 35.8094 243.792 35.8333C245.037 35.8572 246.061 35.0613 246.08 34.0562C246.1 33.0505 245.106 32.2166 243.861 32.1927C242.616 32.1682 241.591 32.9641 241.572 33.9697Z" fill="#DD5152"/>
<path d="M244.54 25.5319C244.441 26.0496 243.462 25.7914 242.24 25.5577C241.016 25.324 240.012 25.2027 240.111 24.6857C240.21 24.168 241.281 23.9382 242.504 24.1718C243.728 24.4055 244.638 25.0142 244.54 25.5319Z" fill="#010C39"/>
<path d="M232.625 24.5797C232.801 25.0768 231.825 25.3466 230.651 25.761C229.477 26.1754 228.549 26.5769 228.373 26.0805C228.198 25.5835 229.008 24.845 230.181 24.4306C231.355 24.0162 232.45 24.0827 232.625 24.5797Z" fill="#010C39"/>
<path d="M258.527 81.9867C258.527 81.9867 266.726 83.3003 272.27 76.0385C272.27 76.0385 263.926 75.1432 258.527 81.9867Z" fill="#AEB9D0"/>
<path d="M259.565 78.232L261.874 93.8813L268.746 100.234C268.746 100.234 272.327 100.869 270.767 87.0094C269.91 79.3855 268.458 70.3201 268.458 70.3201L259.565 78.232Z" fill="#FD9697"/>
<path d="M269.878 79.9593C269.841 79.6901 269.847 79.8534 269.768 79.1505C269.09 74.2719 268.458 70.3201 268.458 70.3201L259.565 78.2313L260.301 83.2145C262.87 81.0399 266.199 79.745 269.878 79.9593Z" fill="#2E4F97"/>
<path d="M256.157 68.1835L258.582 81.5808C258.582 81.5808 265.57 77.2495 272.326 75.6326C272.326 75.6326 267.129 56.4607 256.157 57.673V68.1835Z" fill="#407BFF"/>
<path d="M231.621 30.4253C231.601 29.7237 231.982 29.144 232.473 29.1298C232.963 29.1163 233.377 29.6733 233.397 30.375C233.417 31.0766 233.034 31.6563 232.544 31.6705C232.054 31.684 231.64 31.1263 231.621 30.4253Z" fill="#010C39"/>
<path d="M240.421 30.1672C240.401 29.4655 240.783 28.8858 241.273 28.8716C241.763 28.8581 242.177 29.4151 242.197 30.1168C242.217 30.8185 241.834 31.3981 241.344 31.4123C240.855 31.4259 240.441 30.8682 240.421 30.1672Z" fill="#010C39"/>
<path d="M240.893 34.7398C239.613 37.1727 235.83 37.7852 234.003 35.6654C233.782 35.4098 233.547 35.0645 233.437 34.7734C233.374 34.6062 233.103 34.6785 233.167 34.8482C233.525 35.8003 234.396 36.5736 235.323 36.9429C237.011 37.6168 239.023 37.1565 240.319 35.912C240.63 35.6138 240.933 35.2652 241.135 34.8818C241.219 34.7217 240.976 34.5797 240.893 34.7398Z" fill="#DD5152"/>
<path d="M225.391 18.6541C225.497 19.7192 225.829 20.8798 226.527 22.0804L233.302 21.189C233.302 21.189 233.129 18.0202 234.465 16.238C234.465 16.238 234.317 20.5454 236.149 21.0902L246.001 20.6745L247.957 14.9761C247.957 14.9761 244.814 9.35705 238.031 8.86195C234.174 8.58052 231.07 9.99544 229.109 11.269C226.624 12.8821 225.098 15.7068 225.391 18.6541Z" fill="#010C39"/>
<path d="M226.527 18.4166C226.527 18.4166 225.9 26.5911 226.957 29.2783C228.013 31.9655 226.759 32.2127 225.901 30.142C225.043 28.0712 224.274 18.7968 225.533 15.9579L226.527 18.2352" fill="#010C39"/>
<path d="M246.496 16.1889C246.496 16.1889 249.941 20.0697 249.38 27.8743C249.38 27.8743 249.243 28.4624 249.489 28.7619C249.655 28.9646 250.075 29.2118 250.529 28.3785C250.609 28.2313 250.695 28.0635 250.787 27.8743C252.174 25.0348 251.829 22.1959 251.093 20.4466C250.358 18.6973 247.322 14.5055 247.322 14.5055L246.496 16.1889Z" fill="#010C39"/>
<path d="M229.502 35.3982C231.972 35.3982 233.974 33.396 233.974 30.9262C233.974 28.4564 231.972 26.4542 229.502 26.4542C227.032 26.4542 225.03 28.4564 225.03 30.9262C225.03 33.396 227.032 35.3982 229.502 35.3982Z" stroke="white" stroke-width="0.5412" stroke-miterlimit="10"/>
<path d="M238.031 30.142C238.031 32.6116 240.033 34.614 242.503 34.614C244.973 34.614 246.975 32.6116 246.975 30.142C246.975 27.6723 244.973 25.67 242.503 25.67C240.033 25.67 238.031 27.6723 238.031 30.142Z" stroke="white" stroke-width="0.5412" stroke-miterlimit="10"/>
<path d="M233.928 30.2879C233.928 30.2879 234.838 28.1209 238.031 29.9277" stroke="white" stroke-width="0.5412" stroke-miterlimit="10"/>
<mask id="mask3_55_1679" style="mask-type:luminance" maskUnits="userSpaceOnUse" x="209" y="56" width="61" height="57">
<path d="M269.655 79.0575C268.73 64.4138 266.032 60.7145 254.163 57.0145C253.237 56.726 252.403 56.3852 251.653 56.0024C247.978 60.9591 241.606 68.3242 237.617 68.1777C235.355 68.4288 227.736 59.45 225.946 56.7273C225.674 56.8273 225.396 56.9242 225.107 57.0145C213.238 60.7139 210.54 64.4132 209.615 79.0575L217.956 79.3151L215.786 108.31C215.786 108.31 224.254 112.718 237.433 112.67C254.145 112.61 260.389 108.31 260.389 108.31L258.909 79.3848L269.655 79.0575Z" fill="white"/>
</mask>
<g mask="url(#mask3_55_1679)">
<path d="M227.149 65.9786C228.149 61.5865 225.399 57.2154 221.007 56.2153C216.615 55.2153 212.244 57.9651 211.243 62.3571C210.243 66.7492 212.993 71.1204 217.385 72.1204C221.777 73.1205 226.149 70.3707 227.149 65.9786Z" fill="#3362CC"/>
<path d="M233.55 77.3489C235.254 77.3489 236.636 75.9672 236.636 74.2628C236.636 72.5584 235.254 71.1767 233.55 71.1767C231.846 71.1767 230.464 72.5584 230.464 74.2628C230.464 75.9672 231.846 77.3489 233.55 77.3489Z" fill="#3362CC"/>
<path d="M225.408 100.893C228.835 100.893 231.613 98.1148 231.613 94.6882C231.613 91.2615 228.835 88.4837 225.408 88.4837C221.982 88.4837 219.204 91.2615 219.204 94.6882C219.204 98.1148 221.982 100.893 225.408 100.893Z" fill="#3362CC"/>
<path d="M247.285 83.9336C248.631 83.9336 249.723 82.8421 249.723 81.4956C249.723 80.1491 248.631 79.0576 247.285 79.0576C245.938 79.0576 244.847 80.1491 244.847 81.4956C244.847 82.8421 245.938 83.9336 247.285 83.9336Z" fill="#3362CC"/>
<path d="M261.434 70.022C262.138 67.0507 260.3 64.0712 257.329 63.367C254.357 62.6628 251.378 64.5006 250.674 67.4719C249.969 70.4432 251.807 73.4228 254.779 74.127C257.75 74.8312 260.729 72.9933 261.434 70.022Z" fill="#3362CC"/>
<path d="M252.126 111.042C255.044 111.042 257.41 108.677 257.41 105.759C257.41 102.841 255.044 100.476 252.126 100.476C249.208 100.476 246.843 102.841 246.843 105.759C246.843 108.677 249.208 111.042 252.126 111.042Z" fill="#3362CC"/>
<path d="M233.571 116.738C236.454 116.738 238.792 114.401 238.792 111.517C238.792 108.633 236.454 106.295 233.571 106.295C230.687 106.295 228.349 108.633 228.349 111.517C228.349 114.401 230.687 116.738 233.571 116.738Z" fill="#3362CC"/>
</g>
<path d="M266.263 92.4954C266.003 92.4954 251.624 88.4243 243.742 87.2114V91.0224C243.742 91.0224 264.25 107.81 269.891 99.5894L266.263 92.4954Z" fill="#FD9697"/>
<path d="M239.662 97.3114L232.716 98.5972C231.982 98.7334 231.275 98.248 231.139 97.5128L228.072 80.9449C227.936 80.2103 228.422 79.5041 229.157 79.3679L236.102 78.0821C236.837 77.9459 237.543 78.4313 237.679 79.1665L240.746 95.7344C240.882 96.4697 240.397 97.1758 239.662 97.3114Z" fill="#294249"/>
<path d="M238.883 97.456L231.938 98.7418C231.202 98.878 230.497 98.3926 230.361 97.6574L227.294 81.0895C227.158 80.3542 227.643 79.6487 228.378 79.5125L235.324 78.2267C236.059 78.0905 236.765 78.5759 236.901 79.3111L239.968 95.879C240.103 96.6136 239.618 97.3198 238.883 97.456Z" fill="#1A2E35"/>
<path d="M245.863 87.8866C245.863 87.8866 244.046 85.9689 242.144 85.213C240.241 84.4565 241.265 81.7241 240.192 81.9926C239.118 82.2611 238.191 83.4566 238.801 85.7984C239.411 88.1403 238.801 89.7753 235.215 89.0433C231.628 88.3114 230.311 87.0675 229.555 88.5063C228.799 89.9457 231.214 92.2392 237.996 91.5317C237.996 91.5317 234.288 92.5561 230.995 91.3123C230.995 91.3123 229.336 90.4957 229.019 91.9287C228.702 93.3617 232.19 95.8062 237.996 93.7671C237.996 93.7671 237.366 94.2409 236.2 94.6172C234.771 95.0794 233.236 95.0852 231.779 94.7172C230.858 94.4849 229.693 94.2912 229.409 94.7037C228.921 95.4112 232.38 98.4605 239.314 96.6066C246.247 94.7527 245.863 90.7513 245.863 90.7513V87.8866Z" fill="#FD9697"/>
<path d="M238.324 115.405H235.301V129.168H238.324V115.405Z" fill="#263238"/>
<path d="M233.368 221.282L217.866 221.853L217.974 224.794L233.476 224.223L233.368 221.282Z" fill="#2B2C3F"/>
<path d="M264.727 221.58H249.215V224.522H264.727V221.58Z" fill="#2B2C3F"/>
</svg>
