<svg width="250" height="250" viewBox="0 0 250 250" fill="none" xmlns="http://www.w3.org/2000/svg">
<path d="M230.245 156.845C223.135 175.89 208.61 196.5 188.165 202.605C157.275 211.825 153.585 236.725 98.26 234.415C90.1819 234.117 82.16 232.943 74.335 230.915C70.5087 229.909 66.751 228.658 63.085 227.17C30.765 214.075 13.905 185.26 12.5 155.115C10.655 115.465 38.32 96.565 56.3 85.5C74.28 74.435 95.955 31.555 150.36 33.395C158.67 33.6477 166.922 34.8574 174.955 37C193.26 41.955 211.87 52.91 222.685 68.935C223.495 70.135 224.27 71.37 225.01 72.625C239.5 97.165 239.94 130.885 230.245 156.845Z" fill="#369FFF"/>
<path opacity="0.8" d="M230.245 156.845C223.135 175.89 208.61 196.5 188.165 202.605C157.275 211.825 153.585 236.725 98.26 234.415C90.1819 234.117 82.16 232.943 74.335 230.915C70.5087 229.909 66.751 228.658 63.085 227.17C30.765 214.075 13.905 185.26 12.5 155.115C10.655 115.465 38.32 96.565 56.3 85.5C74.28 74.435 95.955 31.555 150.36 33.395C158.67 33.6477 166.922 34.8574 174.955 37C193.26 41.955 211.87 52.91 222.685 68.935C223.495 70.135 224.27 71.37 225.01 72.625C239.5 97.165 239.94 130.885 230.245 156.845Z" fill="white"/>
<g opacity="0.3">
<path d="M71.4121 67.7803C77.8714 61.321 77.8714 50.8484 71.4121 44.3892C64.9528 37.9299 54.4803 37.9299 48.021 44.3892C41.5617 50.8484 41.5617 61.321 48.021 67.7803C54.4803 74.2395 64.9528 74.2395 71.4121 67.7803Z" fill="black"/>
<path d="M67.7242 63.3612C71.741 58.9406 71.4136 52.1007 66.993 48.0839C62.5724 44.0671 55.7326 44.3945 51.7158 48.8151C47.699 53.2357 48.0263 60.0755 52.4469 64.0923C56.8675 68.1091 63.7074 67.7818 67.7242 63.3612Z" fill="white"/>
<path d="M59.72 61.81C62.8818 61.81 65.445 59.2469 65.445 56.085C65.445 52.9232 62.8818 50.36 59.72 50.36C56.5582 50.36 53.995 52.9232 53.995 56.085C53.995 59.2469 56.5582 61.81 59.72 61.81Z" fill="black"/>
</g>
<path d="M53.15 59.36L52.7 62.83L59.15 56.39L50.035 56.47L52.825 58.58L36.775 65.3L32.275 64.515L28.005 66.305L30.815 67.885C30.7828 67.94 30.7639 68.0018 30.7597 68.0654C30.7556 68.1289 30.7663 68.1926 30.791 68.2514C30.8158 68.3101 30.8539 68.3622 30.9023 68.4036C30.9507 68.4451 31.0082 68.4746 31.07 68.49L30.225 71.61L34.5 69.82L37 66.105L53.15 59.36Z" fill="#263238"/>
<path opacity="0.3" d="M214.13 17.38V15.045H211.88V17.38H205.355V15.045H203.105V17.38H196.605V15.045H194.35V17.38H187.85V15.045H185.6V17.38H179.025V15.045H176.775V17.38H168.67V65H220.55V17.38H214.13ZM176.865 61.5H172.27V56.91H176.865V61.5ZM176.865 55H172.27V50.405H176.865V55ZM176.865 48.5H172.27V43.85H176.865V48.5ZM176.865 41.97H172.27V37.325H176.865V41.97ZM183.565 61.5H178.97V56.91H183.565V61.5ZM183.565 55H178.97V50.405H183.565V55ZM183.565 48.5H178.97V43.85H183.565V48.5ZM183.565 41.97H178.97V37.325H183.565V41.97ZM190.265 61.5H185.67V56.91H190.265V61.5ZM190.265 55H185.67V50.405H190.265V55ZM190.265 48.5H185.67V43.85H190.265V48.5ZM190.265 41.97H185.67V37.325H190.265V41.97ZM196.96 61.5H192.37V56.91H196.96V61.5ZM196.96 55H192.37V50.405H196.96V55ZM196.96 48.5H192.37V43.85H196.96V48.5ZM196.96 41.97H192.37V37.325H196.96V41.97ZM203.66 61.5H199.065V56.91H203.66V61.5ZM203.66 55H199.065V50.405H203.66V55ZM203.66 48.5H199.065V43.85H203.66V48.5ZM203.66 41.97H199.065V37.325H203.66V41.97ZM210.36 61.5H205.765V56.91H210.36V61.5ZM210.36 55H205.765V50.405H210.36V55ZM210.36 48.5H205.765V43.85H210.36V48.5ZM210.36 41.97H205.765V37.325H210.36V41.97ZM217.06 61.5H212.465V56.91H217.06V61.5ZM217.06 55H212.465V50.405H217.06V55ZM217.06 48.5H212.465V43.85H217.06V48.5ZM217.06 41.97H212.465V37.325H217.06V41.97ZM217.51 32.2H171.82V21.345H217.5L217.51 32.2Z" fill="black"/>
<path d="M184.695 80.115C184.695 80.115 185.45 72.565 182.43 69.165C179.41 65.765 174.88 69.92 176.01 74.45C177.14 78.98 184.695 80.115 184.695 80.115Z" fill="#369FFF"/>
<path d="M176 113.75C176 113.75 177.195 102 172.5 96.69C167.805 91.38 160.735 97.87 162.5 104.93C164.265 111.99 176 113.75 176 113.75Z" fill="#369FFF"/>
<path d="M173.47 132.82C173.47 132.82 172.18 121.065 166.47 116.865C160.76 112.665 155.205 120.46 158.4 127C161.595 133.54 173.47 132.82 173.47 132.82Z" fill="#369FFF"/>
<path d="M185.45 142.66C178.5 144 172.27 154.055 172.27 154.055C172.27 154.055 182.68 159.81 188.375 155.285C194.07 150.76 192.405 141.325 185.45 142.66Z" fill="#369FFF"/>
<path d="M187.75 160.375C177.8 162.29 168.895 176.675 168.895 176.675C168.895 176.675 183.79 184.91 191.94 178.43C200.09 171.95 197.7 158.46 187.75 160.375Z" fill="#369FFF"/>
<path d="M171.5 154.215C171.815 154.215 172 154.215 172 154.215C172 154.215 171.935 153.655 171.78 152.715C172.575 148.26 173.38 142.655 174.335 135.955L174.735 133.165C177.445 134.45 185.235 137.6 189.87 133.905C195.565 129.375 193.9 119.945 186.945 121.285C181.915 122.25 177.265 127.785 175.08 130.76C175.695 126.51 176.365 121.94 177.12 117.155C177.25 116.345 177.395 115.505 177.555 114.63C180.23 116.63 186.775 120.74 191.835 118.22C198.335 114.975 198.675 105.4 191.595 105.265C186.495 105.17 180.825 109.57 178.055 112.04C179.055 107 180.49 101.18 181.995 95.43C183.62 96.65 187.95 99.485 191.28 97.825C195.46 95.74 195.67 89.6 191.125 89.515C187.82 89.45 184.155 92.325 182.395 93.905C183.605 89.325 184.855 84.85 185.99 80.905C187.86 82.23 191.78 84.515 194.845 82.985C199.02 80.9 199.235 74.76 194.69 74.675C191.8 74.62 188.635 76.805 186.69 78.415C188.35 72.68 189.65 68.45 189.985 67.355C191.675 66.235 196.775 62.735 197.625 60.64C197.869 60.0408 197.992 59.3996 197.988 58.7528C197.983 58.106 197.852 57.4664 197.6 56.8705C197.349 56.2746 196.983 55.734 196.522 55.2797C196.062 54.8253 195.517 54.4661 194.918 54.2225C194.318 53.9789 193.677 53.8557 193.03 53.8599C192.384 53.8641 191.744 53.9957 191.148 54.2471C190.552 54.4985 190.012 54.8649 189.557 55.3252C189.103 55.7855 188.744 56.3308 188.5 56.93C187.685 58.93 188.775 64.605 189.245 66.81L188.945 66.715C188.9 66.85 187.205 72.33 185.02 79.925L184.885 80.06L184.96 80.125C183.785 84.225 182.46 88.93 181.195 93.735C181.265 91.455 181.13 86.565 178.86 84.015C175.86 80.615 171.31 84.77 172.445 89.3C173.445 93.35 179.595 94.68 180.885 94.92C179.19 101.385 177.6 107.955 176.555 113.42L176.32 113.66L176.485 113.8C176.275 114.9 176.09 115.96 175.935 116.96C174.86 123.77 173.935 130.15 173.145 135.78C172.39 141.055 171.735 145.65 171.1 149.535C170.16 145.77 168.335 140.7 164.985 138.235C159.28 134.03 153.72 141.83 156.915 148.37C159.36 153.37 166.88 154.125 170.28 154.2C170.15 154.87 170.025 155.51 169.895 156.12C169.395 158.545 168.565 165.225 167.76 172.555C166.64 167.155 164.01 158.12 158.475 154.055C150.315 148.055 142.36 159.2 146.93 168.555C150.765 176.41 163.355 176.945 167.295 176.915C166.215 187.15 165.255 197.305 165.18 198.085L166.36 198.195C166.395 197.84 169.735 162.55 171.055 156.385C171.205 155.695 171.35 155 171.5 154.215Z" fill="#369FFF"/>
<path d="M81.93 116.695C81.93 116.695 81.49 112.3 83.25 110.325C85.01 108.35 87.645 110.765 86.985 113.4C86.325 116.035 81.93 116.695 81.93 116.695Z" fill="#369FFF"/>
<path d="M87.0001 136.28C87.0001 136.28 86.3151 129.43 89.0551 126.35C91.7951 123.27 95.9051 127.035 94.8751 131.145C93.8451 135.255 87.0001 136.28 87.0001 136.28Z" fill="#369FFF"/>
<path d="M88.465 147.38C88.465 147.38 89.215 140.54 92.535 138.09C95.855 135.64 99.095 140.185 97.235 143.99C95.375 147.795 88.465 147.38 88.465 147.38Z" fill="#369FFF"/>
<path d="M81.5 153.11C85.55 153.89 89.175 159.745 89.175 159.745C89.175 159.745 83.11 163.095 79.795 160.46C76.48 157.825 77.44 152.33 81.5 153.11Z" fill="#369FFF"/>
<path d="M80.15 163.425C85.945 164.54 91.15 172.925 91.15 172.925C91.15 172.925 82.475 177.72 77.73 173.95C72.985 170.18 74.355 162.31 80.15 163.425Z" fill="#369FFF"/>
<path d="M89.615 159.835C89.43 159.835 89.325 159.835 89.325 159.835C89.325 159.835 89.365 159.51 89.455 158.975C88.99 156.38 88.525 153.115 87.955 149.215C87.88 148.69 87.805 148.145 87.725 147.59C86.145 148.34 81.615 150.175 78.91 148.02C75.595 145.385 76.565 139.895 80.615 140.675C83.545 141.24 86.25 144.455 87.525 146.175C87.165 143.675 86.775 141.035 86.335 138.25C86.2583 137.78 86.1733 137.29 86.08 136.78C84.525 137.93 80.715 140.34 77.77 138.87C73.975 136.98 73.77 131.41 77.91 131.33C80.88 131.275 84.175 133.83 85.79 135.275C85.2 132.34 84.375 128.95 83.5 125.6C82.55 126.315 80.03 127.965 78.09 127C75.66 125.785 75.535 122.21 78.18 122.16C80.105 122.12 82.24 123.795 83.265 124.715C82.56 122.05 81.83 119.445 81.17 117.145C80.08 117.915 77.8 119.245 76.015 118.355C73.585 117.14 73.46 113.565 76.105 113.515C77.785 113.485 79.63 114.76 80.755 115.695C79.785 112.355 79.03 109.895 78.835 109.255C77.835 108.605 74.88 106.565 74.385 105.345C74.1347 104.648 74.1638 103.88 74.4663 103.204C74.7688 102.527 75.3212 101.994 76.0079 101.716C76.6946 101.437 77.4624 101.435 78.1505 101.71C78.8387 101.985 79.3939 102.515 79.7 103.19C80.2 104.36 79.54 107.66 79.265 108.94L79.445 108.885C79.445 108.965 80.445 112.155 81.725 116.575L81.805 116.655L81.76 116.695C82.445 119.08 83.215 121.82 83.955 124.615C83.91 123.29 83.995 120.44 85.315 118.955C87.07 116.955 89.71 119.395 89.05 122.035C88.46 124.39 84.885 125.165 84.135 125.305C85.135 129.07 86.045 132.895 86.635 136.085C86.6827 136.129 86.7277 136.176 86.77 136.225L86.675 136.305C86.795 136.945 86.905 137.56 86.995 138.14C87.625 142.11 88.155 145.82 88.62 149.1C89.06 152.17 89.44 154.845 89.81 157.1C90.355 154.905 91.42 151.955 93.37 150.52C96.69 148.07 99.93 152.61 98.07 156.42C96.645 159.33 92.265 159.77 90.29 159.815C90.365 160.205 90.44 160.58 90.515 160.93C90.815 162.345 91.285 166.23 91.755 170.5C92.405 167.36 93.94 162.095 97.16 159.72C101.91 156.22 106.54 162.72 103.88 168.165C101.65 172.735 94.32 173.045 92.025 173.03C92.655 178.99 93.215 184.9 93.26 185.355L92.57 185.42C92.57 185.21 90.605 164.665 89.84 161.075C89.7767 160.692 89.7017 160.278 89.615 159.835Z" fill="#369FFF"/>
<path d="M27.95 170.885C27.95 170.885 26.795 168.34 27.45 166.795C28.105 165.25 30.175 166.17 30.315 167.885C30.455 169.6 27.95 170.885 27.95 170.885Z" fill="#369FFF"/>
<path d="M34.945 181.615C34.945 181.615 33.15 177.645 34.165 175.24C35.18 172.835 38.415 174.24 38.63 176.935C38.845 179.63 34.945 181.615 34.945 181.615Z" fill="#369FFF"/>
<path d="M38.085 188C38.085 188 37.15 183.74 38.65 181.6C40.15 179.46 43.01 181.53 42.65 184.19C42.29 186.85 38.085 188 38.085 188Z" fill="#369FFF"/>
<path d="M35.065 192.825C37.65 192.5 41 195.25 41 195.25C41 195.25 38.045 198.49 35.5 197.58C32.955 196.67 32.5 193.18 35.065 192.825Z" fill="#369FFF"/>
<path d="M36.35 199.285C40.05 198.785 44.85 202.755 44.85 202.755C44.85 202.755 40.62 207.39 37.01 206.09C33.4 204.79 32.645 199.79 36.35 199.285Z" fill="#369FFF"/>
<path d="M41.3 195.215L41.125 195.27C41.125 195.27 41.08 195.065 41.025 194.725C40.225 193.265 39.28 191.4 38.16 189.17C38.005 188.87 37.85 188.56 37.69 188.245C36.895 189.015 34.545 191.03 32.49 190.29C29.965 189.375 29.435 185.885 32.02 185.535C33.895 185.28 36.17 186.66 37.285 187.445C36.57 186.03 35.785 184.515 34.965 182.945C34.825 182.68 34.675 182.405 34.515 182.115C33.815 183.115 32.015 185.34 29.95 185.055C27.295 184.69 26.05 181.385 28.51 180.5C30.28 179.865 32.78 180.735 34.04 181.27C33.09 179.63 31.905 177.77 30.7 175.93C30.28 176.55 29.1 178.05 27.74 177.865C26.035 177.63 25.24 175.51 26.815 174.945C27.96 174.53 29.58 175.105 30.38 175.445C29.42 173.99 28.455 172.575 27.59 171.33C27.09 172.01 25.995 173.27 24.745 173.1C23.04 172.865 22.245 170.745 23.82 170.18C24.82 169.82 26.185 170.21 27.045 170.545C25.79 168.735 24.84 167.41 24.59 167.07C23.87 166.875 21.675 166.255 21.13 165.625C20.9633 165.446 20.8344 165.235 20.7511 165.005C20.6679 164.774 20.6319 164.53 20.6453 164.285C20.6588 164.041 20.7214 163.802 20.8295 163.582C20.9376 163.362 21.0888 163.167 21.2742 163.007C21.4596 162.847 21.6754 162.726 21.9086 162.652C22.1418 162.577 22.3876 162.551 22.6313 162.573C22.8751 162.596 23.1117 162.668 23.3271 162.784C23.5426 162.9 23.7323 163.059 23.885 163.25C24.385 163.86 24.695 165.965 24.79 166.79L24.88 166.725C24.915 166.765 26.15 168.48 27.81 170.875L27.875 170.905C27.8765 170.917 27.8765 170.928 27.875 170.94C28.77 172.23 29.785 173.72 30.795 175.25C30.5 174.46 29.975 172.75 30.465 171.575C31.12 170.035 33.19 170.95 33.33 172.665C33.455 174.2 31.465 175.39 31.045 175.625C32.4 177.685 33.73 179.795 34.74 181.58L34.85 181.64L34.81 181.705C35.01 182.065 35.2 182.415 35.375 182.745C36.555 184.995 37.625 187.12 38.57 188.99C39.455 190.745 40.225 192.27 40.905 193.555C40.79 192.13 40.83 190.14 41.71 188.885C43.21 186.745 46.07 188.815 45.71 191.475C45.445 193.51 42.905 194.66 41.71 195.09C41.835 195.305 41.955 195.515 42.075 195.71C42.54 196.5 43.61 198.735 44.755 201.21C44.51 199.21 44.365 195.71 45.815 193.645C47.96 190.585 52.055 193.54 51.56 197.35C51.145 200.545 46.81 202.215 45.43 202.67C47.015 206.12 48.55 209.555 48.67 209.815L48.27 209.995C48.215 209.875 42.885 197.94 41.695 195.94C41.565 195.707 41.4334 195.465 41.3 195.215Z" fill="#369FFF"/>
<path d="M223.115 184.67C223.115 184.67 224.965 182.575 226.615 182.54C228.265 182.505 228.305 184.77 226.795 185.6C225.285 186.43 223.115 184.67 223.115 184.67Z" fill="#369FFF"/>
<path d="M216.195 195.45C216.195 195.45 219.08 192.185 221.695 192.125C224.31 192.065 224.33 195.625 221.975 196.895C219.62 198.165 216.195 195.45 216.195 195.45Z" fill="#369FFF"/>
<path d="M211.68 200.92C211.68 200.92 215.18 198.325 217.745 198.81C220.31 199.295 219.6 202.76 217.03 203.535C214.46 204.31 211.68 200.92 211.68 200.92Z" fill="#369FFF"/>
<path d="M206 200.15C207.38 202.365 206.225 206.57 206.225 206.57C206.225 206.57 202.055 205.2 201.855 202.525C201.655 199.85 204.63 197.935 206 200.15Z" fill="#369FFF"/>
<path d="M200.65 203.97C202.625 207.14 200.97 213.155 200.97 213.155C200.97 213.155 195.01 211.19 194.715 207.365C194.42 203.54 198.67 200.8 200.65 203.97Z" fill="#369FFF"/>
<path d="M206.39 206.82L206.27 206.68L206.725 206.37C207.725 205.035 209.045 203.415 210.615 201.475L211.27 200.67C210.24 200.26 207.44 198.945 207.27 196.76C207.065 194.085 210.035 192.175 211.415 194.39C212.415 195.99 212.085 198.635 211.83 199.975C212.83 198.74 213.89 197.415 214.995 196.01C215.18 195.77 215.375 195.51 215.57 195.26C214.365 195.03 211.605 194.3 211.02 192.3C210.265 189.725 212.77 187.235 214.58 189.115C215.885 190.47 216.115 193.115 216.145 194.475C217.25 192.935 218.47 191.095 219.645 189.245C218.91 189.11 217.055 188.65 216.67 187.335C216.17 185.685 217.795 184.085 218.955 185.29C219.8 186.17 219.955 187.885 219.955 188.755C220.885 187.28 221.785 185.815 222.57 184.52C221.74 184.345 220.14 183.86 219.785 182.65C219.285 180.995 220.91 179.4 222.07 180.605C222.81 181.375 223.01 182.78 223.07 183.7C224.205 181.815 225.02 180.405 225.235 180.04C225.115 179.3 224.78 177.04 225.135 176.29C225.236 176.074 225.379 175.88 225.555 175.719C225.731 175.558 225.937 175.434 226.161 175.352C226.386 175.271 226.624 175.235 226.862 175.245C227.1 175.256 227.334 175.314 227.55 175.415C227.766 175.516 227.96 175.659 228.121 175.835C228.282 176.011 228.406 176.217 228.488 176.441C228.569 176.665 228.605 176.904 228.594 177.142C228.584 177.38 228.526 177.614 228.425 177.83C228.085 178.555 226.28 179.68 225.565 180.105L225.67 180.16C225.64 180.205 224.585 182.04 223.08 184.535V184.605H223.04C222.23 185.955 221.285 187.49 220.305 189.035C220.905 188.445 222.26 187.255 223.52 187.23C225.195 187.195 225.21 189.46 223.7 190.29C222.35 191.03 220.45 189.705 220.065 189.415C218.74 191.495 217.365 193.575 216.145 195.23C216.145 195.31 216.145 195.355 216.145 195.355H216.065C215.82 195.685 215.565 196 215.35 196.295C213.78 198.295 212.28 200.14 210.96 201.765C209.725 203.295 208.645 204.625 207.755 205.765C209.01 205.075 210.835 204.295 212.345 204.585C214.91 205.085 214.195 208.53 211.625 209.305C209.66 209.9 207.57 208.055 206.7 207.155L206.275 207.74C205.75 208.49 204.15 210.385 202.37 212.44C204.11 211.39 207.21 209.835 209.7 210.305C213.37 211.005 212.35 215.955 208.675 217.065C205.59 217.995 202.29 214.725 201.31 213.655C198.81 216.515 196.31 219.32 196.12 219.535L195.79 219.24C195.88 219.145 204.585 209.395 205.92 207.49C206.06 207.27 206.22 207.05 206.39 206.82Z" fill="#369FFF"/>
<path d="M208.755 148.745L207.5 150L205.94 150.755L204.88 154.285L205.99 154.635L206.735 153.85L207.42 154.59L206.5 157.225C206.5 157.225 205.26 157.585 205.25 157.89C205.24 158.195 206.03 158.84 206.03 158.84L207.48 158.185L211.48 157.73L212.63 156.96L211.38 150.2L208.755 148.745Z" fill="#CCCCCC" stroke="#263238" stroke-linecap="round" stroke-linejoin="round"/>
<path d="M207.46 158.185L208.905 155.85" stroke="#263238" stroke-linecap="round" stroke-linejoin="round"/>
<path d="M209.375 157.975L210.35 155.685" stroke="#263238" stroke-linecap="round" stroke-linejoin="round"/>
<path d="M211.46 157.73L211.79 155.745" stroke="#263238" stroke-linecap="round" stroke-linejoin="round"/>
<path d="M205.735 118.225L215.465 133.65L211.905 150.34L208.075 149.5L207.87 133.9L201.745 127.805L205.735 118.225Z" fill="white" stroke="#263238" stroke-linecap="round" stroke-linejoin="round"/>
<path d="M198.215 113.1L205.735 118.225L197.395 139.83L183.46 135.745L182.07 123.4L183.705 112.62L190.54 111.825L198.215 113.1Z" fill="white" stroke="#263238" stroke-linecap="round" stroke-linejoin="round"/>
<path d="M191.415 117.5L192.82 119.025C193.026 119.247 193.281 119.419 193.564 119.525C193.848 119.632 194.152 119.671 194.454 119.64C194.755 119.608 195.045 119.507 195.3 119.344C195.556 119.18 195.77 118.96 195.925 118.7L199.17 113.26L196.92 110.96L191.945 111.175L189.85 112.28L188.88 115.04C188.757 115.391 188.736 115.769 188.821 116.131C188.907 116.493 189.094 116.822 189.36 117.081C189.627 117.34 189.962 117.517 190.326 117.591C190.69 117.665 191.068 117.634 191.415 117.5Z" fill="white" stroke="#263238" stroke-linecap="round" stroke-linejoin="round"/>
<path d="M193.345 96.7499C193.345 96.7499 190.985 98.3099 190.69 98.9449C190.478 99.5067 190.339 100.093 190.275 100.69L187.61 101.75L188.76 103.445C188.76 103.445 187.76 107.28 188.445 107.875C189.13 108.47 191.595 109.935 191.595 109.935L191.53 114.75C191.527 115.004 191.593 115.255 191.723 115.474C191.852 115.694 192.039 115.873 192.264 115.993C192.488 116.113 192.741 116.17 192.995 116.156C193.249 116.142 193.495 116.059 193.705 115.915L197.94 113.025L199.215 110.07C199.215 110.07 203.465 106.57 203.415 104.415C203.365 102.26 202.325 98.915 199.2 97.165C196.075 95.415 193.5 96.2099 193.5 96.2099L193.345 96.7499Z" fill="#CCCCCC" stroke="#263238" stroke-linecap="round" stroke-linejoin="round"/>
<path d="M194.765 96.565C194.765 96.565 196.515 96.915 194.865 101.065C193.215 105.215 191.6 108.35 194.05 110.985C196.5 113.62 198.19 115.23 197.02 117.07C195.85 118.91 192.44 118.265 193.43 122.43C194.42 126.595 197.725 127.43 199.155 125.22C200.585 123.01 199.845 119.22 200.005 118.445C200.082 117.999 200.279 117.583 200.575 117.24L201.53 117.43L207.23 120.43C207.23 120.43 207.16 119.865 207.535 116.305C207.91 112.745 204.705 112.27 205.335 109.09C205.965 105.91 209.435 106.765 208.19 102.22C206.945 97.675 199.625 94.565 199.625 94.565C199.625 94.565 196.665 89.515 193.33 92.16C189.995 94.805 192.215 97.5 192.215 97.5L194.765 96.565Z" fill="#263238" stroke="#263238" stroke-linecap="round" stroke-linejoin="round"/>
<path d="M191.595 101.075C191.5 101.485 191.595 101.86 191.82 101.91C192.045 101.96 192.32 101.68 192.4 101.27C192.48 100.86 192.4 100.49 192.175 100.435C191.95 100.38 191.695 100.67 191.595 101.075Z" fill="#263238"/>
<path d="M193.81 100.12C193.617 99.7788 193.315 99.5122 192.952 99.3627C192.59 99.2131 192.188 99.1893 191.81 99.295" stroke="#263238" stroke-linecap="round" stroke-linejoin="round"/>
<path d="M164.665 112.56L164.475 110.355C164.572 109.627 164.572 108.888 164.475 108.16C164.284 107.401 164.039 106.658 163.74 105.935C163.49 105.305 163.16 104.935 162.795 105.555C162.43 106.175 162.585 107.33 162.585 107.33C162.479 106.741 162.269 106.175 161.965 105.66C161.575 105.16 160.285 104.765 159 104.37C157.715 103.975 158.3 104.69 158.5 105.04C158.7 105.39 159.905 105.985 159.905 105.985C159.905 105.985 158.01 105.295 157.47 105.135C156.93 104.975 156.075 105.635 156.68 105.995C157.285 106.307 157.918 106.561 158.57 106.755C157.884 106.918 157.214 107.144 156.57 107.43C156.005 107.755 156.255 108.38 156.6 108.395C157.061 108.369 157.52 108.319 157.975 108.245C157.975 108.245 157.055 108.96 157.245 109.38C157.435 109.8 159.17 109.25 159.17 109.25C159.336 109.942 159.69 110.574 160.195 111.075C160.748 111.555 161.353 111.971 162 112.315L163.575 114.165L164.665 112.56Z" fill="#CCCCCC" stroke="#263238" stroke-linecap="round" stroke-linejoin="round"/>
<path d="M159.915 105.985L159.335 108.505" stroke="#263238" stroke-linecap="round" stroke-linejoin="round"/>
<path d="M162.605 107.33L162.71 108.155C162.71 108.155 161.585 108.865 161.745 109.97" fill="#CCCCCC"/>
<path d="M162.605 107.33L162.71 108.155C162.71 108.155 161.585 108.865 161.745 109.97" stroke="#263238" stroke-linecap="round" stroke-linejoin="round"/>
<path d="M183.705 112.62L172.795 120.915L164.685 112.08L162.485 114.01L170.835 128.56L182.205 122.305L183.705 112.62Z" fill="white" stroke="#263238" stroke-linecap="round" stroke-linejoin="round"/>
<path d="M200 167.165L200.065 154.35C200.26 146 197.8 140.35 197.385 139.96C197.324 139.893 197.244 139.847 197.155 139.83L183.22 135.745C183.22 135.745 181.435 140.82 180.01 141.745C164.26 151.995 160.62 156.985 160.76 157.245C164.88 164.83 178.19 177.58 177.76 176.695L181.13 175.555L170.75 158.5L185.965 152.5L188.965 167.065L204.265 195.565L208.435 194.065L200 167.165Z" fill="#263238" stroke="#263238" stroke-linecap="round" stroke-linejoin="round"/>
<path d="M177.73 176.7L176.14 179.86C176.14 179.86 174.55 180.36 173.955 180.655C173.36 180.95 173.06 181.01 172.75 181.485C172.547 181.841 172.431 182.24 172.41 182.65L180.32 182.965L183.885 179.39C185.005 178.26 181.1 175.56 181.1 175.56L177.73 176.7Z" fill="white" stroke="#263238" stroke-linecap="round" stroke-linejoin="round"/>
<path d="M208.44 194.06C208.44 194.06 208.36 196.015 208.29 197.77C208.22 199.525 206.06 202.18 204.75 203.11C203.44 204.04 202.25 204.185 202.655 201.755C203.069 199.658 203.608 197.587 204.27 195.555C204.27 195.555 208.05 193.945 208.44 194.06Z" fill="white" stroke="#263238" stroke-linecap="round" stroke-linejoin="round"/>
<path d="M117.095 22.6151L108.195 28.7301" stroke="#263238" stroke-linecap="round" stroke-linejoin="round"/>
<path d="M118.335 21.76L117.74 22.17" stroke="#263238" stroke-linecap="round" stroke-linejoin="round"/>
<path d="M104.985 15.915L102.98 15.64" stroke="#263238" stroke-linecap="round" stroke-linejoin="round"/>
<path d="M117.935 17.695L106.26 16.09" stroke="#263238" stroke-linecap="round" stroke-linejoin="round"/>
<path d="M120.06 9.83002L116.2 5.90002" stroke="#263238" stroke-linecap="round" stroke-linejoin="round"/>
<path d="M121.655 11.455L120.76 10.54" stroke="#263238" stroke-linecap="round" stroke-linejoin="round"/>
<path d="M131.99 11.515L136.465 6.94501" stroke="#263238" stroke-linecap="round" stroke-linejoin="round"/>
<path d="M131.135 12.39L131.565 11.955" stroke="#263238" stroke-linecap="round" stroke-linejoin="round"/>
<path d="M141.865 17.935L150.95 16.925" stroke="#263238" stroke-linecap="round" stroke-linejoin="round"/>
<path d="M133.565 18.8601L140.77 18.0551" stroke="#263238" stroke-linecap="round" stroke-linejoin="round"/>
<path d="M139.745 26.835L143.87 31.095" stroke="#263238" stroke-linecap="round" stroke-linejoin="round"/>
<path d="M133.89 20.79L138.945 26.01" stroke="#263238" stroke-linecap="round" stroke-linejoin="round"/>
<path d="M128.02 20.545H125.715V27.185H128.02V20.545Z" fill="#369FFF" stroke="#263238" stroke-linecap="round" stroke-linejoin="round"/>
<path d="M129.71 26.64V25.69H124.02V26.64H121.31V30.435H132.42V26.64H129.71Z" fill="#263238" stroke="#263238" stroke-linecap="round" stroke-linejoin="round"/>
<path d="M126.865 8.21503L129.56 13.67L135.585 14.55L131.225 18.795L132.255 24.795L126.865 21.965L121.475 24.795L122.505 18.795L118.145 14.55L124.17 13.67L126.865 8.21503Z" fill="#369FFF" stroke="#263238" stroke-linecap="round" stroke-linejoin="round"/>
<path d="M119.32 15.1151L126.865 17.0801L133.505 15.4201" fill="#369FFF"/>
<path d="M119.32 15.1151L126.865 17.0801L133.505 15.4201" stroke="#263238" stroke-linecap="round" stroke-linejoin="round"/>
<path d="M127.015 10.59V15.42" stroke="#263238" stroke-linecap="round" stroke-linejoin="round"/>
<path d="M122.34 23.87L126.715 18.135V20.55" fill="#369FFF"/>
<path d="M122.34 23.87L126.715 18.135V20.55" stroke="#263238" stroke-linecap="round" stroke-linejoin="round"/>
<path d="M132.255 24.8L127.77 18.135" stroke="#263238" stroke-linecap="round" stroke-linejoin="round"/>
<path d="M110.76 91.96C110.76 91.96 117.79 94.885 124.805 95.22C131.82 95.555 144.415 91.96 144.415 91.96L136.055 81.185H116.675L110.76 91.96Z" fill="#263238" stroke="#263238" stroke-linecap="round" stroke-linejoin="round"/>
<path d="M144.055 146.12C143.8 145.35 141.615 139.575 141.615 139.575C141.615 139.575 140.335 129.945 140.335 125.45C140.335 120.955 138.79 118.265 138.79 118.265L137 86.105L135.835 82.035H133.27L126.14 82.1L119 82.035H118.105L115.17 87.615L113.5 118.265C113.5 118.265 111.96 120.96 111.96 125.45C111.96 129.94 110.675 139.575 110.675 139.575C110.675 139.575 108.495 145.35 108.235 146.12C107.975 146.89 106.055 148.69 106.055 149.33C106.06 149.527 106.107 149.721 106.194 149.899C106.28 150.077 106.403 150.234 106.555 150.36H113.5C113.5 150.36 113.885 150.23 114.145 148.945C114.339 147.844 114.424 146.727 114.4 145.61C114.4 144.84 115.17 138.42 115.17 138.42L125.055 97.255H127.24L137.125 138.42C137.125 138.42 137.895 144.84 137.895 145.61C137.871 146.727 137.956 147.844 138.15 148.945C138.405 150.23 138.79 150.36 138.79 150.36H145.725C145.877 150.234 146 150.077 146.086 149.899C146.173 149.721 146.22 149.527 146.225 149.33C146.24 148.69 144.315 146.89 144.055 146.12Z" fill="white" stroke="#263238" stroke-linecap="round" stroke-linejoin="round"/>
<path d="M141.615 139.575C141.615 139.575 140.335 129.945 140.335 125.45C140.335 120.955 138.79 118.265 138.79 118.265L137 86.105L135.835 82.035H133.27L126.14 82.1L119 82.035H118.105L115.17 87.615L113.5 118.265C113.5 118.265 111.96 120.96 111.96 125.45C111.96 129.94 110.675 139.575 110.675 139.575L110.63 139.705H115C115.085 138.94 115.15 138.42 115.15 138.42L125.035 97.255H127.22L137.105 138.42C137.105 138.42 137.165 138.92 137.255 139.705H141.645L141.615 139.575Z" fill="#263238" stroke="#263238" stroke-linecap="round" stroke-linejoin="round"/>
<path d="M114.855 141.095L112.355 147.02H107.67C107.015 147.855 106.065 148.88 106.065 149.33C106.07 149.527 106.117 149.721 106.204 149.899C106.29 150.077 106.413 150.234 106.565 150.36H113.5C113.5 150.36 113.885 150.23 114.145 148.945C114.339 147.844 114.424 146.727 114.4 145.61C114.4 145.175 114.645 142.955 114.855 141.095Z" fill="#369FFF" stroke="#263238" stroke-linecap="round" stroke-linejoin="round"/>
<path d="M137.435 141.095L139.935 147.02H144.615C145.27 147.855 146.225 148.88 146.225 149.33C146.22 149.527 146.173 149.721 146.086 149.899C146 150.077 145.877 150.234 145.725 150.36H138.79C138.79 150.36 138.405 150.23 138.15 148.945C137.956 147.844 137.871 146.727 137.895 145.61C137.895 145.175 137.65 142.955 137.435 141.095Z" fill="#369FFF" stroke="#263238" stroke-linecap="round" stroke-linejoin="round"/>
<path d="M125.43 40.315C125.43 40.315 123.15 39.12 121.43 41.515C119.71 43.91 120.885 46.075 120.885 46.73C120.885 47.385 118.28 49.555 119.04 50.535C119.8 51.515 120.995 52.035 120.885 52.49C120.775 52.945 117.735 52.27 117.955 53.36C118.175 54.45 118.385 56.185 122.3 59.12C126.215 62.055 131.865 59.66 133.385 58.03C134.905 56.4 136.21 54.77 135.995 53.795C135.78 52.82 134.255 53.14 134.255 52.705C134.255 52.27 135.885 50.75 135.885 49.88C135.885 49.01 134.145 47.925 134.035 47.38C133.925 46.835 134.905 46.075 134.905 45.21C134.905 44.345 132.73 43.25 132.73 42.49C132.73 41.73 134.365 40.425 131.865 38.685C129.365 36.945 126 38.25 125.43 40.315Z" fill="#263238" stroke="#263238" stroke-linecap="round" stroke-linejoin="round"/>
<path d="M124.745 53.83L123.875 58.25C123.875 58.25 121.845 57.38 121.265 57.16C120.685 56.94 119 82.035 119 82.035H135.155L134.285 57.305L130.665 58.25L129.575 53.75L124.745 53.83Z" fill="white" stroke="#263238" stroke-linecap="round" stroke-linejoin="round"/>
<path d="M130.9 65.5L131.54 58.03L130.685 58.255L129.595 53.755L124.745 53.83L123.875 58.25L123.16 57.945L123.945 65.495L130.9 65.5Z" fill="white" stroke="#263238" stroke-linecap="round" stroke-linejoin="round"/>
<path d="M124.2 54.725C124.2 54.725 127.105 57.51 127.7 57.51C128.295 57.51 130.12 54.97 130.12 54.97L129.88 54.12L124.2 54V54.725Z" fill="#263238" stroke="#263238" stroke-linecap="round" stroke-linejoin="round"/>
<path d="M114.825 37L119.825 31.795L118.395 27.895C118.395 27.895 119.815 25.26 119.94 24.96C120.065 24.66 120.585 23.755 120.585 23.755C120.695 23.7482 120.806 23.7641 120.91 23.8018C121.013 23.8394 121.108 23.8981 121.189 23.9741C121.269 24.0501 121.333 24.1417 121.376 24.2434C121.419 24.3451 121.441 24.4546 121.44 24.565C121.539 25.5285 121.556 26.4987 121.49 27.465C121.375 27.91 122.63 30.365 122.13 31.465C121.63 32.565 116.525 39.55 116.525 39.55L114.825 37Z" fill="white" stroke="#263238" stroke-linecap="round" stroke-linejoin="round"/>
<path d="M121.44 25.345C121.44 25.345 119.855 27.635 119.87 27.845C119.893 28.0391 119.93 28.2312 119.98 28.42" stroke="#263238" stroke-linecap="round" stroke-linejoin="round"/>
<path d="M121.13 23.9901L119.02 27.1101L119.015 28.1251" stroke="#263238" stroke-linecap="round" stroke-linejoin="round"/>
<path d="M122.715 57.525C122.715 57.525 122.215 70.88 121.485 76.025C120.755 81.17 119.89 84.14 118.15 86.75C116.41 89.36 110.76 91.965 110.76 91.965C110.76 91.965 114.815 77.965 115.615 74.145C116.415 70.325 116.41 62.24 116.41 62.24C113.93 60.2909 111.741 57.9978 109.91 55.43C107.015 51.3 104.665 47.035 104.79 46.43C104.915 45.825 116.29 34.86 116.29 34.86L118.625 38.01L112.295 47.66C112.295 47.66 118.225 54.555 118.655 54.915C119.085 55.275 120.76 55.5 122.715 57.525Z" fill="#369FFF" stroke="#263238" stroke-linecap="round" stroke-linejoin="round"/>
<path d="M122.37 57.185V57.235C122.37 57.235 119.98 61.655 119.98 65.785C119.98 68.16 120.7 75.785 121.31 77.285C121.375 76.87 121.44 76.45 121.505 76.005C122.225 70.865 122.735 57.505 122.735 57.505C122.6 57.405 122.5 57.29 122.37 57.185Z" fill="#369FFF" stroke="#263238" stroke-linecap="round" stroke-linejoin="round"/>
<path d="M139.76 36.875L134.4 32L135.555 28C135.555 28 133.965 25.465 133.82 25.175C133.675 24.885 133.095 24.015 133.095 24.015C132.984 24.0153 132.874 24.0386 132.773 24.0834C132.671 24.1281 132.58 24.1934 132.505 24.2751C132.43 24.3568 132.372 24.4532 132.336 24.5581C132.3 24.6631 132.286 24.7744 132.295 24.885C132.259 25.8541 132.308 26.8244 132.44 27.785C132.585 28.22 131.5 30.755 132.08 31.84C132.66 32.925 138.235 39.52 138.235 39.52L139.76 36.875Z" fill="white" stroke="#263238" stroke-linecap="round" stroke-linejoin="round"/>
<path d="M132.37 25.72C132.37 25.72 134.11 27.89 134.11 28.11C134.1 28.305 134.075 28.4989 134.035 28.69" stroke="#263238" stroke-linecap="round" stroke-linejoin="round"/>
<path d="M132.585 24.34L134.905 27.315L134.975 28.325" stroke="#263238" stroke-linecap="round" stroke-linejoin="round"/>
<path d="M132.46 57.525C132.46 57.525 132.96 70.88 133.69 76.025C134.42 81.17 135.285 84.14 137.025 86.75C138.765 89.36 144.415 91.965 144.415 91.965C144.415 91.965 140.355 77.965 139.56 74.145C138.765 70.325 138.76 62.24 138.76 62.24C141.241 60.2923 143.43 57.999 145.26 55.43C148.16 51.3 151.71 46.465 151.495 45.885C151.28 45.305 138.495 35.21 138.495 35.21L136.68 38.71L142.945 48.21C142.945 48.21 136.945 54.585 136.495 54.945C136.045 55.305 134.415 55.5 132.46 57.525Z" fill="#369FFF" stroke="#263238" stroke-linecap="round" stroke-linejoin="round"/>
<path d="M119 57.595C118.395 60.025 116.41 62.235 116.41 62.235C116.41 62.235 117.635 59.415 117.33 56.985" stroke="#263238" stroke-linecap="round" stroke-linejoin="round"/>
<path d="M135.405 57C136.368 58.8444 137.491 60.6011 138.76 62.25C138.76 62.25 137.23 56.7 137.23 55.94" stroke="#263238" stroke-linecap="round" stroke-linejoin="round"/>
<path d="M132.8 57.185V57.235C132.8 57.235 135.19 61.655 135.19 65.785C135.19 68.16 134.475 75.785 133.86 77.285C133.795 76.87 133.735 76.45 133.67 76.005C132.945 70.865 132.44 57.505 132.44 57.505C132.575 57.405 132.69 57.29 132.8 57.185Z" fill="#369FFF" stroke="#263238" stroke-linecap="round" stroke-linejoin="round"/>
<path d="M122.64 49.41C122.64 49.41 121.195 47.31 120.975 49.12C120.755 50.93 122.475 52.235 122.475 52.235L122.64 49.41Z" fill="white" stroke="#263238" stroke-linecap="round" stroke-linejoin="round"/>
<path d="M132.425 49C132.425 49 133.655 47.77 134.015 49.215C134.375 50.66 132.515 51.97 132.515 51.97L132.425 49Z" fill="white" stroke="#263238" stroke-linecap="round" stroke-linejoin="round"/>
<path d="M125.865 42.275C125.865 42.275 125.54 44.12 124.235 44.555C123.559 44.7308 122.954 45.1095 122.5 45.64C122.5 45.64 122.285 51.945 122.72 52.595C123.155 53.245 126 56 127.425 56C128.85 56 132.24 53.46 132.35 52.81C132.46 52.16 132.28 46.07 132.17 45.635C132.06 45.2 130.67 44.55 129.45 44.55C128.23 44.55 127.28 43.245 127.06 42.81C126.84 42.375 125.865 42.275 125.865 42.275Z" fill="white" stroke="#263238" stroke-linecap="round" stroke-linejoin="round"/>
<path d="M126.805 47.455C127.092 47.6898 127.438 47.8404 127.805 47.89C127.965 47.875 128.119 47.8217 128.254 47.7347C128.388 47.6477 128.5 47.5294 128.58 47.39" stroke="#263238" stroke-linecap="round" stroke-linejoin="round"/>
<path d="M124.65 45.38C124.7 45.2194 124.787 45.0731 124.905 44.9535C125.023 44.8339 125.168 44.7446 125.328 44.6931C125.488 44.6416 125.658 44.6294 125.824 44.6576C125.99 44.6858 126.146 44.7535 126.28 44.855" stroke="#263238" stroke-linecap="round" stroke-linejoin="round"/>
<path d="M128.7 44.905C128.7 44.905 129.86 44.01 130.755 45.535" stroke="#263238" stroke-linecap="round" stroke-linejoin="round"/>
<path d="M125.78 49.5C125.78 49.5 128.28 51 129.91 48.96" stroke="#263238" stroke-linecap="round" stroke-linejoin="round"/>
<path d="M125.83 45.855C125.83 46.155 125.66 46.4 125.45 46.4C125.24 46.4 125.07 46.155 125.07 45.855C125.07 45.555 125.24 45.315 125.45 45.315C125.66 45.315 125.83 45.555 125.83 45.855Z" fill="#263238"/>
<path d="M129.85 45.905C129.85 46.205 129.68 46.45 129.47 46.45C129.26 46.45 129.09 46.205 129.09 45.905C129.09 45.605 129.26 45.36 129.47 45.36C129.68 45.36 129.85 45.605 129.85 45.905Z" fill="#263238"/>
<path d="M53.3249 113.1L45.8049 118.225L51.7849 143.65L69.9999 140.3L70.1799 113.67L60.9999 111.825L53.3249 113.1Z" fill="white" stroke="#263238" stroke-linecap="round" stroke-linejoin="round"/>
<path d="M57.5199 117.895L59.8499 120.98L60.2299 137.515L63.1749 142.09L65.3799 135.105L60.9499 120.935L62.0549 117.44L59.6099 115.055L57.5199 117.895Z" fill="#369FFF" stroke="#263238" stroke-linecap="round" stroke-linejoin="round"/>
<path d="M60.125 117.515L56.95 120.955L52.365 113.275L54.62 110.975L59.595 111.19L63.82 113.37L64.045 119.015L60.125 117.515Z" fill="white" stroke="#263238" stroke-linecap="round" stroke-linejoin="round"/>
<path d="M62.3349 96.875C62.3349 96.875 64.3349 98.875 64.5099 99.545C64.6115 100.136 64.6367 100.738 64.5849 101.335L66.9899 102.895L65.5299 104.335C65.5299 104.335 66.9299 108.28 66.1199 108.725C65.3099 109.17 61.4999 110.15 61.4999 110.15L60.1249 117.5L54.6599 111.925L53.9999 108.795C53.9999 108.795 50.4999 104.52 50.9999 102.43C51.4999 100.34 53.1399 97.24 56.5449 96.14C59.9499 95.04 60.1499 95.455 60.1499 95.455L62.3349 96.875Z" fill="#CCCCCC" stroke="#263238" stroke-linecap="round" stroke-linejoin="round"/>
<path d="M55.6499 105.695C55.6499 105.695 57.6999 105.195 57.6499 104.235C57.5999 103.275 56.1999 102.5 57.2749 101.765C58.3499 101.03 59.4399 100.715 59.4199 100.16C59.3999 99.605 58.4199 99.1 59.0749 98.52C59.7299 97.94 62.3199 96.875 62.3199 96.875C62.3199 96.875 61.2349 93.875 57.2299 93.765C53.2249 93.655 49.5599 98.625 49.8249 101.765C50.0899 104.905 53.5649 109.065 54.4049 109.31C55.2449 109.555 55.6499 105.695 55.6499 105.695Z" fill="#263238" stroke="#263238" stroke-linecap="round" stroke-linejoin="round"/>
<path d="M56.5 106.35C56.5 106.35 55.185 104.47 54.145 106.03C53.105 107.59 55.51 109.15 56.75 109.1C57.99 109.05 58.25 108.485 58.25 108.485" fill="#CCCCCC"/>
<path d="M56.5 106.35C56.5 106.35 55.185 104.47 54.145 106.03C53.105 107.59 55.51 109.15 56.75 109.1C57.99 109.05 58.25 108.485 58.25 108.485" stroke="#263238" stroke-linecap="round" stroke-linejoin="round"/>
<path d="M63.21 101.46C63.21 101.88 63.055 102.225 62.825 102.235C62.595 102.245 62.4 101.91 62.385 101.495C62.37 101.08 62.54 100.73 62.765 100.72C62.99 100.71 63.195 101.04 63.21 101.46Z" fill="#263238"/>
<path d="M61.225 100.09C61.225 100.09 62.41 98.665 63.675 99.305" stroke="#263238" stroke-linecap="round" stroke-linejoin="round"/>
<path d="M42.7849 148.745L44.0599 150L45.6199 150.755L46.6749 154.285L45.5699 154.635L44.8249 153.85L44.1399 154.59L45.0599 157.205C45.0599 157.205 46.2999 157.565 46.3099 157.87C46.3199 158.175 45.5299 158.82 45.5299 158.82L44.0749 158.165L40.0749 157.71L38.9199 156.94L40.1749 150.18L42.7849 148.745Z" fill="#CCCCCC" stroke="#263238" stroke-linecap="round" stroke-linejoin="round"/>
<path d="M44.075 158.185L42.635 155.85" stroke="#263238" stroke-linecap="round" stroke-linejoin="round"/>
<path d="M42.1649 157.975L41.1899 155.685" stroke="#263238" stroke-linecap="round" stroke-linejoin="round"/>
<path d="M40.08 157.73L39.75 155.745" stroke="#263238" stroke-linecap="round" stroke-linejoin="round"/>
<path d="M45.805 118.225L36.075 133.65L39.6349 150.34L43.465 149.5L43.6699 133.9L48.5299 127.775L45.805 118.225Z" fill="white" stroke="#263238" stroke-linecap="round" stroke-linejoin="round"/>
<path d="M89.2849 109.71L89.4699 107.51C89.3723 106.78 89.3723 106.04 89.4699 105.31C89.6614 104.552 89.907 103.808 90.2049 103.085C90.4549 102.46 90.7849 102.085 91.1499 102.705C91.5149 103.325 91.3599 104.48 91.3599 104.48C91.4683 103.892 91.6781 103.327 91.9799 102.81C92.3699 102.31 93.6599 101.92 94.9499 101.525C96.2399 101.13 95.6499 101.84 95.4499 102.19C95.2499 102.54 94.0449 103.14 94.0449 103.14C94.0449 103.14 95.9399 102.445 96.4849 102.285C97.0299 102.125 97.8749 102.785 97.2749 103.15C96.6671 103.459 96.0329 103.714 95.3799 103.91C96.0658 104.074 96.7352 104.299 97.3799 104.585C97.9399 104.905 97.6899 105.535 97.3499 105.545C96.8874 105.522 96.4266 105.472 95.9699 105.395C95.9699 105.395 96.8899 106.115 96.6999 106.535C96.5099 106.955 94.7749 106.405 94.7749 106.405C94.6108 107.097 94.2557 107.73 93.7499 108.23C93.1955 108.708 92.5902 109.124 91.9449 109.47L90.3699 111.315L89.2849 109.71Z" fill="#CCCCCC" stroke="#263238" stroke-linecap="round" stroke-linejoin="round"/>
<path d="M94.0299 103.14L94.6149 105.655" stroke="#263238" stroke-linecap="round" stroke-linejoin="round"/>
<path d="M91.34 104.5L91.235 105.33C91.235 105.33 92.36 106.04 92.2 107.145" fill="#CCCCCC"/>
<path d="M91.34 104.5L91.235 105.33C91.235 105.33 92.36 106.04 92.2 107.145" stroke="#263238" stroke-linecap="round" stroke-linejoin="round"/>
<path d="M70.1799 113.67L78.7449 120.915L89.2649 109.23L91.4649 111.165L80.7049 128.56L70.1949 124.425L70.1799 113.67Z" fill="white" stroke="#263238" stroke-linecap="round" stroke-linejoin="round"/>
<path d="M51.785 143.65L53.09 167.35L43.09 194.06L47.26 195.56L62.555 167.06L64.79 154.355L78.5 156.655L70.45 175.56L73.825 176.7C73.825 176.7 90.8 151.08 91.095 151.065C91.39 151.05 70.595 142.69 70.595 142.69L70 140.3L51.785 143.65Z" fill="#263238" stroke="#263238" stroke-linecap="round" stroke-linejoin="round"/>
<path d="M73.81 176.7L75.4 179.86C75.4 179.86 76.985 180.36 77.585 180.655C78.185 180.95 78.48 181.01 78.79 181.485C78.9928 181.841 79.1092 182.24 79.13 182.65L71.22 182.965L67.655 179.39C66.535 178.26 70.435 175.56 70.435 175.56L73.81 176.7Z" fill="white" stroke="#263238" stroke-linecap="round" stroke-linejoin="round"/>
<path d="M43.1 194.06C43.1 194.06 43.18 196.015 43.25 197.77C43.32 199.525 45.48 202.18 46.79 203.11C48.1 204.04 49.29 204.185 48.885 201.755C48.4711 199.658 47.9318 197.587 47.27 195.555C47.27 195.555 43.5 193.945 43.1 194.06Z" fill="white" stroke="#263238" stroke-linecap="round" stroke-linejoin="round"/>
<path d="M154.45 149.46H96.635V182.495H154.45V149.46Z" fill="#DBDBDB" stroke="#263238" stroke-linecap="round" stroke-linejoin="round"/>
<path d="M188.35 181.63H62.725V214.665H188.35V181.63Z" fill="#ADADAD" stroke="#263238" stroke-linecap="round" stroke-linejoin="round"/>
<path d="M225.485 204.16H25.595V237.195H225.485V204.16Z" fill="#919191" stroke="#263238" stroke-linecap="round" stroke-linejoin="round"/>
<path d="M125.56 153.11L128.255 158.57L134.28 159.445L129.92 163.695L130.95 169.695L125.56 166.865L120.17 169.695L121.2 163.695L116.845 159.445L122.865 158.57L125.56 153.11Z" fill="#369FFF" stroke="#263238" stroke-linecap="round" stroke-linejoin="round"/>
<path d="M80.335 183.03L83.03 188.485L89.055 189.36L84.695 193.61L85.725 199.61L80.335 196.78L74.945 199.61L75.975 193.61L71.615 189.36L77.64 188.485L80.335 183.03Z" fill="#369FFF" stroke="#263238" stroke-linecap="round" stroke-linejoin="round"/>
<path d="M171.67 183.03L174.365 188.485L180.385 189.36L176.03 193.61L177.055 199.61L171.67 196.78L166.28 199.61L167.31 193.61L162.95 189.36L168.975 188.485L171.67 183.03Z" fill="#369FFF" stroke="#263238" stroke-linecap="round" stroke-linejoin="round"/>
<path d="M10.575 237.2H241.425" stroke="#263238" stroke-linecap="round" stroke-linejoin="round"/>
</svg>
