<svg width="250" height="250" viewBox="0 0 250 250" fill="none" xmlns="http://www.w3.org/2000/svg">
<path d="M221.96 175.9H131.585C130.808 175.899 130.064 175.59 129.515 175.04C128.965 174.491 128.656 173.747 128.655 172.97V41.335C128.655 40.5579 128.964 39.8126 129.513 39.2631C130.063 38.7137 130.808 38.405 131.585 38.405H221.96C222.737 38.405 223.482 38.7137 224.032 39.2631C224.581 39.8126 224.89 40.5579 224.89 41.335V172.97C224.889 173.747 224.58 174.491 224.03 175.04C223.481 175.59 222.737 175.899 221.96 175.9ZM131.585 38.53C130.841 38.53 130.128 38.8255 129.602 39.3515C129.076 39.8776 128.78 40.591 128.78 41.335V172.97C128.78 173.714 129.076 174.427 129.602 174.953C130.128 175.479 130.841 175.775 131.585 175.775H221.96C222.704 175.775 223.417 175.479 223.943 174.953C224.47 174.427 224.765 173.714 224.765 172.97V41.335C224.765 40.591 224.47 39.8776 223.943 39.3515C223.417 38.8255 222.704 38.53 221.96 38.53H131.585Z" fill="#EBEBEB"/>
<path d="M117.745 175.9H27.375C26.5975 175.9 25.8517 175.591 25.3014 175.042C24.7511 174.493 24.4413 173.748 24.44 172.97V41.335C24.44 40.9498 24.516 40.5684 24.6635 40.2126C24.8111 39.8567 25.0273 39.5335 25.2999 39.2614C25.5726 38.9892 25.8961 38.7735 26.2522 38.6266C26.6083 38.4796 26.9898 38.4043 27.375 38.405H117.745C118.522 38.405 119.267 38.7137 119.817 39.2631C120.366 39.8126 120.675 40.5579 120.675 41.335V172.97C120.675 173.355 120.599 173.736 120.452 174.091C120.305 174.447 120.089 174.77 119.817 175.042C119.545 175.314 119.222 175.53 118.866 175.677C118.511 175.824 118.13 175.9 117.745 175.9ZM27.375 38.53C26.6306 38.53 25.9166 38.8253 25.3898 39.3512C24.863 39.8771 24.5663 40.5906 24.565 41.335V172.97C24.5663 173.714 24.863 174.428 25.3898 174.954C25.9166 175.48 26.6306 175.775 27.375 175.775H117.745C118.113 175.775 118.478 175.702 118.818 175.561C119.159 175.42 119.468 175.214 119.728 174.953C119.989 174.693 120.196 174.384 120.336 174.043C120.477 173.703 120.55 173.338 120.55 172.97V41.335C120.55 40.9666 120.477 40.6019 120.336 40.2615C120.196 39.9212 119.989 39.612 119.728 39.3515C119.468 39.0911 119.159 38.8845 118.818 38.7435C118.478 38.6025 118.113 38.53 117.745 38.53H27.375Z" fill="#EBEBEB"/>
<path d="M222.185 105.46H148.585V110.315H222.185V105.46Z" fill="#F0F0F0"/>
<path d="M156.085 110.315L158.055 114.44H162.69L164.01 110.315H156.085Z" fill="#E0E0E0"/>
<path d="M214.685 110.315L212.72 114.44H208.08L206.76 110.315H214.685Z" fill="#E0E0E0"/>
<path d="M197.325 103.445L197.57 104.345L197.62 104.54L197.855 105.46H204.87L205.105 104.54L205.155 104.345L205.4 103.445L205.45 103.25L207.875 94.275L207.925 94.08L208.17 93.18L208.22 92.985L208.49 91.985H194.235L194.505 92.985L194.555 93.18L194.8 94.08L194.85 94.275L197.275 103.25L197.325 103.445Z" fill="#F0F0F0"/>
<path d="M202.275 79.28C202.179 79.3029 202.08 79.3065 201.983 79.2907C201.886 79.2748 201.793 79.2398 201.71 79.1877C201.627 79.1356 201.555 79.0674 201.498 78.9871C201.441 78.9068 201.401 78.816 201.38 78.72C201.375 78.6668 201.375 78.6132 201.38 78.56C201.379 78.3881 201.439 78.2216 201.55 78.09C202.525 76.905 207.47 71.185 209.785 73.59C212.57 76.465 205 78.62 202.275 79.28Z" fill="#F0F0F0"/>
<path d="M201.365 81.39C201.372 81.4431 201.372 81.4969 201.365 81.55C201.344 81.6459 201.304 81.7367 201.247 81.817C201.19 81.8973 201.118 81.9655 201.035 82.0177C200.952 82.0698 200.859 82.1048 200.762 82.1207C200.665 82.1365 200.566 82.1329 200.47 82.11C197.77 81.45 190.175 79.3 192.97 76.41C195.285 74.015 200.23 79.735 201.21 80.91C201.317 81.0467 201.372 81.2167 201.365 81.39Z" fill="#F0F0F0"/>
<path d="M201.925 75.59C201.904 75.7615 201.825 75.9206 201.7 76.04C201.663 76.0771 201.621 76.109 201.575 76.135C201.491 76.1894 201.395 76.2236 201.295 76.235C201.149 76.2553 201.001 76.232 200.868 76.1679C200.735 76.1039 200.625 76.0019 200.55 75.875C199.165 73.465 195.5 66.5 199.5 66.5C202.84 66.545 202.11 74.07 201.925 75.59Z" fill="#F0F0F0"/>
<path d="M202.275 85.35C202.132 85.3855 201.982 85.3774 201.844 85.3266C201.706 85.2758 201.586 85.1846 201.5 85.065C201.442 84.9822 201.401 84.8887 201.38 84.79C201.375 84.7367 201.375 84.6832 201.38 84.63C201.381 84.4584 201.441 84.2924 201.55 84.16C202.525 82.98 207.47 77.26 209.785 79.66C212.57 82.54 205 84.695 202.275 85.35Z" fill="#F0F0F0"/>
<path d="M201.365 87.46C201.373 87.5131 201.373 87.5669 201.365 87.62C201.344 87.7188 201.303 87.8123 201.245 87.895C201.159 88.0147 201.039 88.1058 200.901 88.1566C200.763 88.2074 200.613 88.2156 200.47 88.18C197.77 87.525 190.175 85.37 192.97 82.48C195.285 80.09 200.23 85.81 201.21 86.98C201.316 87.1171 201.371 87.2868 201.365 87.46Z" fill="#F0F0F0"/>
<path d="M202.275 91.07C202.132 91.1055 201.982 91.0974 201.844 91.0466C201.705 90.9958 201.586 90.9046 201.5 90.785C201.442 90.7022 201.401 90.6087 201.38 90.51C201.375 90.4584 201.375 90.4065 201.38 90.355C201.374 90.1731 201.434 89.9953 201.55 89.855C202.525 88.675 207.47 82.955 209.785 85.355C212.57 88.26 205 90.415 202.275 91.07Z" fill="#F0F0F0"/>
<path d="M172.045 102.075H171.6V101.41H188.45C188.987 101.41 189.502 101.623 189.882 102.003C190.262 102.383 190.475 102.898 190.475 103.435C190.475 103.972 190.262 104.487 189.882 104.867C189.502 105.247 188.987 105.46 188.45 105.46H171.6V104.88H172.045V102.075Z" fill="#E0E0E0"/>
<path d="M171.93 102.075V104.88H187.395C187.577 104.878 187.756 104.84 187.923 104.769C188.09 104.697 188.241 104.594 188.368 104.463C188.495 104.333 188.595 104.18 188.662 104.011C188.729 103.842 188.763 103.662 188.76 103.48C188.764 103.107 188.62 102.747 188.36 102.48C188.235 102.35 188.085 102.246 187.92 102.175C187.754 102.104 187.575 102.066 187.395 102.065L171.93 102.075Z" fill="white"/>
<path d="M171.93 102.785V103.215H187C187.028 103.215 187.056 103.209 187.082 103.199C187.107 103.188 187.131 103.172 187.15 103.152C187.17 103.132 187.185 103.108 187.195 103.082C187.206 103.056 187.211 103.028 187.21 103C187.21 102.944 187.188 102.89 187.149 102.85C187.11 102.81 187.056 102.786 187 102.785H171.93Z" fill="#F0F0F0"/>
<path d="M171.93 103.845V104.27H187C187.056 104.27 187.109 104.248 187.148 104.208C187.188 104.169 187.21 104.116 187.21 104.06C187.21 104.004 187.188 103.951 187.148 103.911C187.109 103.872 187.056 103.85 187 103.85L171.93 103.845Z" fill="#F0F0F0"/>
<path d="M152.565 102.075H152.12V101.41H168.97C169.507 101.41 170.022 101.623 170.402 102.003C170.782 102.383 170.995 102.898 170.995 103.435C170.995 103.972 170.782 104.487 170.402 104.867C170.022 105.247 169.507 105.46 168.97 105.46H152.12V104.88H152.565V102.075Z" fill="#E0E0E0"/>
<path d="M152.45 102.075V104.88H167.91C168.183 104.871 168.447 104.782 168.67 104.626C168.894 104.47 169.067 104.252 169.169 103.999C169.272 103.746 169.298 103.468 169.246 103.201C169.194 102.933 169.065 102.686 168.875 102.49C168.751 102.359 168.601 102.255 168.435 102.184C168.269 102.112 168.091 102.075 167.91 102.075H152.45Z" fill="white"/>
<path d="M152.45 102.785V103.215H167.5C167.557 103.215 167.612 103.192 167.652 103.152C167.692 103.112 167.715 103.057 167.715 103C167.715 102.972 167.709 102.944 167.699 102.918C167.688 102.892 167.672 102.868 167.652 102.848C167.632 102.828 167.608 102.812 167.582 102.801C167.556 102.791 167.528 102.785 167.5 102.785H152.45Z" fill="#F0F0F0"/>
<path d="M152.45 103.845V104.27H167.5C167.528 104.271 167.556 104.266 167.582 104.255C167.608 104.245 167.632 104.23 167.652 104.21C167.672 104.191 167.688 104.167 167.699 104.142C167.709 104.116 167.715 104.088 167.715 104.06C167.715 104.032 167.709 104.004 167.699 103.978C167.688 103.953 167.672 103.929 167.652 103.91C167.632 103.89 167.608 103.875 167.582 103.864C167.556 103.854 167.528 103.849 167.5 103.85L152.45 103.845Z" fill="#F0F0F0"/>
<path d="M172.045 98.075H171.6V97.41H188.45C188.716 97.4091 188.979 97.4613 189.225 97.5634C189.47 97.6656 189.693 97.8157 189.88 98.005C190.173 98.2835 190.376 98.6444 190.46 99.0401C190.544 99.4359 190.506 99.8478 190.351 100.221C190.196 100.595 189.931 100.913 189.592 101.133C189.253 101.354 188.854 101.466 188.45 101.455H171.6V100.88H172.045V98.075Z" fill="#E0E0E0"/>
<path d="M171.93 98.0749V100.88H187.395C187.761 100.875 188.111 100.724 188.367 100.462C188.623 100.2 188.764 99.8464 188.76 99.4799C188.762 99.1072 188.619 98.7484 188.36 98.4799C188.235 98.3505 188.085 98.2475 187.919 98.177C187.753 98.1066 187.575 98.0702 187.395 98.0699L171.93 98.0749Z" fill="white"/>
<path d="M171.93 98.785V99.215H187C187.028 99.215 187.056 99.2094 187.082 99.1985C187.107 99.1877 187.131 99.1717 187.15 99.1517C187.17 99.1317 187.185 99.1079 187.195 99.0819C187.206 99.0558 187.211 99.028 187.21 99C187.211 98.972 187.206 98.9441 187.195 98.9181C187.185 98.892 187.17 98.8683 187.15 98.8482C187.131 98.8282 187.107 98.8123 187.082 98.8014C187.056 98.7906 187.028 98.785 187 98.785H171.93Z" fill="#F0F0F0"/>
<path d="M171.93 99.84V100.27H187C187.028 100.27 187.056 100.264 187.082 100.254C187.107 100.243 187.131 100.227 187.15 100.207C187.17 100.187 187.185 100.163 187.195 100.137C187.206 100.111 187.211 100.083 187.21 100.055C187.211 100.027 187.206 99.9991 187.195 99.9731C187.185 99.947 187.17 99.9233 187.15 99.9032C187.131 99.8832 187.107 99.8673 187.082 99.8564C187.056 99.8456 187.028 99.84 187 99.84H171.93Z" fill="#F0F0F0"/>
<path d="M201.5 92V74.5C201.491 74.434 201.459 74.3736 201.408 74.3298C201.358 74.2861 201.294 74.262 201.228 74.262C201.161 74.262 201.097 74.2861 201.047 74.3298C200.997 74.3736 200.964 74.434 200.955 74.5V92H201.5Z" fill="#E0E0E0"/>
<path d="M111.62 46.65H31.665V146.77H111.62V46.65Z" fill="#E0E0E0"/>
<path d="M109.62 144.765V48.645L33.665 48.645V144.765H109.62Z" fill="#F5F5F5"/>
<path d="M56.51 82.73V144.77H33.69V82.73H36.27L40.685 75.08L44.635 68.24V55.62H45.565V68.24L49.515 75.08L53.93 82.73H56.51Z" fill="#E6E6E6"/>
<path d="M39.805 86.5099H36.265V88.1699H39.805V86.5099Z" fill="#FAFAFA"/>
<path d="M46.87 86.5099H43.33V88.1699H46.87V86.5099Z" fill="#FAFAFA"/>
<path d="M53.93 86.5099H50.39V88.1699H53.93V86.5099Z" fill="#FAFAFA"/>
<path d="M39.805 90.62H36.265V92.28H39.805V90.62Z" fill="#FAFAFA"/>
<path d="M46.87 90.62H43.33V92.28H46.87V90.62Z" fill="#FAFAFA"/>
<path d="M53.93 90.62H50.39V92.28H53.93V90.62Z" fill="#FAFAFA"/>
<path d="M39.805 94.73H36.265V96.39H39.805V94.73Z" fill="#FAFAFA"/>
<path d="M46.87 94.73H43.33V96.39H46.87V94.73Z" fill="#FAFAFA"/>
<path d="M53.93 94.73H50.39V96.39H53.93V94.73Z" fill="#FAFAFA"/>
<path d="M39.805 98.835H36.265V100.495H39.805V98.835Z" fill="#FAFAFA"/>
<path d="M46.87 98.835H43.33V100.495H46.87V98.835Z" fill="#FAFAFA"/>
<path d="M53.93 98.835H50.39V100.495H53.93V98.835Z" fill="#FAFAFA"/>
<path d="M39.805 102.945H36.265V104.605H39.805V102.945Z" fill="#FAFAFA"/>
<path d="M46.87 102.945H43.33V104.605H46.87V102.945Z" fill="#FAFAFA"/>
<path d="M53.93 102.945H50.39V104.605H53.93V102.945Z" fill="#FAFAFA"/>
<path d="M39.805 107.055H36.265V108.715H39.805V107.055Z" fill="#FAFAFA"/>
<path d="M46.87 107.055H43.33V108.715H46.87V107.055Z" fill="#FAFAFA"/>
<path d="M53.93 107.055H50.39V108.715H53.93V107.055Z" fill="#FAFAFA"/>
<path d="M39.805 111.16H36.265V112.82H39.805V111.16Z" fill="#FAFAFA"/>
<path d="M46.87 111.16H43.33V112.82H46.87V111.16Z" fill="#FAFAFA"/>
<path d="M53.93 111.16H50.39V112.82H53.93V111.16Z" fill="#FAFAFA"/>
<path d="M39.805 115.27H36.265V116.93H39.805V115.27Z" fill="#FAFAFA"/>
<path d="M46.87 115.27H43.33V116.93H46.87V115.27Z" fill="#FAFAFA"/>
<path d="M53.93 115.27H50.39V116.93H53.93V115.27Z" fill="#FAFAFA"/>
<path d="M39.805 119.38H36.265V121.04H39.805V119.38Z" fill="#FAFAFA"/>
<path d="M46.87 119.38H43.33V121.04H46.87V119.38Z" fill="#FAFAFA"/>
<path d="M53.93 119.38H50.39V121.04H53.93V119.38Z" fill="#FAFAFA"/>
<path d="M39.805 123.485H36.265V125.145H39.805V123.485Z" fill="#FAFAFA"/>
<path d="M46.87 123.485H43.33V125.145H46.87V123.485Z" fill="#FAFAFA"/>
<path d="M53.93 123.485H50.39V125.145H53.93V123.485Z" fill="#FAFAFA"/>
<path d="M39.805 127.595H36.265V129.255H39.805V127.595Z" fill="#FAFAFA"/>
<path d="M46.87 127.595H43.33V129.255H46.87V127.595Z" fill="#FAFAFA"/>
<path d="M53.93 127.595H50.39V129.255H53.93V127.595Z" fill="#FAFAFA"/>
<path d="M39.805 131.705H36.265V133.365H39.805V131.705Z" fill="#FAFAFA"/>
<path d="M46.87 131.705H43.33V133.365H46.87V131.705Z" fill="#FAFAFA"/>
<path d="M53.93 131.705H50.39V133.365H53.93V131.705Z" fill="#FAFAFA"/>
<path d="M83.53 69.855V144.77H58V69.855H59.815V54.795L78.005 63.035V48.65H78.94V63.46L80.89 64.34V69.855H83.53Z" fill="#E6E6E6"/>
<path d="M65.475 74.53H61.935V76.19H65.475V74.53Z" fill="#FAFAFA"/>
<path d="M72.535 74.53H68.995V76.19H72.535V74.53Z" fill="#FAFAFA"/>
<path d="M79.6 74.53H76.06V76.19H79.6V74.53Z" fill="#FAFAFA"/>
<path d="M65.475 78.6349H61.935V80.2949H65.475V78.6349Z" fill="#FAFAFA"/>
<path d="M72.535 78.6349H68.995V80.2949H72.535V78.6349Z" fill="#FAFAFA"/>
<path d="M79.6 78.6349H76.06V80.2949H79.6V78.6349Z" fill="#FAFAFA"/>
<path d="M65.475 82.745H61.935V84.405H65.475V82.745Z" fill="#FAFAFA"/>
<path d="M72.535 82.745H68.995V84.405H72.535V82.745Z" fill="#FAFAFA"/>
<path d="M79.6 82.745H76.06V84.405H79.6V82.745Z" fill="#FAFAFA"/>
<path d="M65.475 86.855H61.935V88.515H65.475V86.855Z" fill="#FAFAFA"/>
<path d="M72.535 86.855H68.995V88.515H72.535V86.855Z" fill="#FAFAFA"/>
<path d="M79.6 86.855H76.06V88.515H79.6V86.855Z" fill="#FAFAFA"/>
<path d="M65.475 90.965H61.935V92.625H65.475V90.965Z" fill="#FAFAFA"/>
<path d="M72.535 90.965H68.995V92.625H72.535V90.965Z" fill="#FAFAFA"/>
<path d="M79.6 90.965H76.06V92.625H79.6V90.965Z" fill="#FAFAFA"/>
<path d="M65.475 95.0699H61.935V96.7299H65.475V95.0699Z" fill="#FAFAFA"/>
<path d="M72.535 95.0699H68.995V96.7299H72.535V95.0699Z" fill="#FAFAFA"/>
<path d="M79.6 95.0699H76.06V96.7299H79.6V95.0699Z" fill="#FAFAFA"/>
<path d="M65.475 99.18H61.935V100.84H65.475V99.18Z" fill="#FAFAFA"/>
<path d="M72.535 99.18H68.995V100.84H72.535V99.18Z" fill="#FAFAFA"/>
<path d="M79.6 99.18H76.06V100.84H79.6V99.18Z" fill="#FAFAFA"/>
<path d="M65.475 103.29H61.935V104.95H65.475V103.29Z" fill="#FAFAFA"/>
<path d="M72.535 103.29H68.995V104.95H72.535V103.29Z" fill="#FAFAFA"/>
<path d="M79.6 103.29H76.06V104.95H79.6V103.29Z" fill="#FAFAFA"/>
<path d="M65.475 107.395H61.935V109.055H65.475V107.395Z" fill="#FAFAFA"/>
<path d="M72.535 107.395H68.995V109.055H72.535V107.395Z" fill="#FAFAFA"/>
<path d="M79.6 107.395H76.06V109.055H79.6V107.395Z" fill="#FAFAFA"/>
<path d="M65.475 111.505H61.935V113.165H65.475V111.505Z" fill="#FAFAFA"/>
<path d="M72.535 111.505H68.995V113.165H72.535V111.505Z" fill="#FAFAFA"/>
<path d="M79.6 111.505H76.06V113.165H79.6V111.505Z" fill="#FAFAFA"/>
<path d="M65.475 115.615H61.935V117.275H65.475V115.615Z" fill="#FAFAFA"/>
<path d="M72.535 115.615H68.995V117.275H72.535V115.615Z" fill="#FAFAFA"/>
<path d="M79.6 115.615H76.06V117.275H79.6V115.615Z" fill="#FAFAFA"/>
<path d="M65.475 119.72H61.935V121.38H65.475V119.72Z" fill="#FAFAFA"/>
<path d="M72.535 119.72H68.995V121.38H72.535V119.72Z" fill="#FAFAFA"/>
<path d="M79.6 119.72H76.06V121.38H79.6V119.72Z" fill="#FAFAFA"/>
<path d="M65.475 123.405H61.935V125.065H65.475V123.405Z" fill="#FAFAFA"/>
<path d="M72.535 123.405H68.995V125.065H72.535V123.405Z" fill="#FAFAFA"/>
<path d="M79.6 123.405H76.06V125.065H79.6V123.405Z" fill="#FAFAFA"/>
<path d="M65.475 127.51H61.935V129.17H65.475V127.51Z" fill="#FAFAFA"/>
<path d="M72.535 127.51H68.995V129.17H72.535V127.51Z" fill="#FAFAFA"/>
<path d="M79.6 127.51H76.06V129.17H79.6V127.51Z" fill="#FAFAFA"/>
<path d="M109.62 86.5149V144.77H85.165V86.5149H86.965V84.5249H87.795V83.9449H90.265V84.5249H92.945V83.9449H95.415V84.5249H96.19V86.5149H102.56V84.5499H108.06V86.5149H109.62Z" fill="#E6E6E6"/>
<path d="M92.295 91.45H88.755V93.11H92.295V91.45Z" fill="#FAFAFA"/>
<path d="M99.36 91.45H95.82V93.11H99.36V91.45Z" fill="#FAFAFA"/>
<path d="M106.42 91.45H102.88V93.11H106.42V91.45Z" fill="#FAFAFA"/>
<path d="M92.295 95.56H88.755V97.22H92.295V95.56Z" fill="#FAFAFA"/>
<path d="M99.36 95.56H95.82V97.22H99.36V95.56Z" fill="#FAFAFA"/>
<path d="M106.42 95.56H102.88V97.22H106.42V95.56Z" fill="#FAFAFA"/>
<path d="M92.295 99.665H88.755V101.325H92.295V99.665Z" fill="#FAFAFA"/>
<path d="M99.36 99.665H95.82V101.325H99.36V99.665Z" fill="#FAFAFA"/>
<path d="M106.42 99.665H102.88V101.325H106.42V99.665Z" fill="#FAFAFA"/>
<path d="M92.295 103.775H88.755V105.435H92.295V103.775Z" fill="#FAFAFA"/>
<path d="M99.36 103.775H95.82V105.435H99.36V103.775Z" fill="#FAFAFA"/>
<path d="M106.42 103.775H102.88V105.435H106.42V103.775Z" fill="#FAFAFA"/>
<path d="M92.295 107.885H88.755V109.545H92.295V107.885Z" fill="#FAFAFA"/>
<path d="M99.36 107.885H95.82V109.545H99.36V107.885Z" fill="#FAFAFA"/>
<path d="M106.42 107.885H102.88V109.545H106.42V107.885Z" fill="#FAFAFA"/>
<path d="M92.295 111.99H88.755V113.65H92.295V111.99Z" fill="#FAFAFA"/>
<path d="M99.36 111.99H95.82V113.65H99.36V111.99Z" fill="#FAFAFA"/>
<path d="M106.42 111.99H102.88V113.65H106.42V111.99Z" fill="#FAFAFA"/>
<path d="M92.295 116.1H88.755V117.76H92.295V116.1Z" fill="#FAFAFA"/>
<path d="M99.36 116.1H95.82V117.76H99.36V116.1Z" fill="#FAFAFA"/>
<path d="M106.42 116.1H102.88V117.76H106.42V116.1Z" fill="#FAFAFA"/>
<path d="M92.295 120.21H88.755V121.87H92.295V120.21Z" fill="#FAFAFA"/>
<path d="M99.36 120.21H95.82V121.87H99.36V120.21Z" fill="#FAFAFA"/>
<path d="M106.42 120.21H102.88V121.87H106.42V120.21Z" fill="#FAFAFA"/>
<path d="M92.295 124.315H88.755V125.975H92.295V124.315Z" fill="#FAFAFA"/>
<path d="M99.36 124.315H95.82V125.975H99.36V124.315Z" fill="#FAFAFA"/>
<path d="M106.42 124.315H102.88V125.975H106.42V124.315Z" fill="#FAFAFA"/>
<path d="M92.295 128.425H88.755V130.085H92.295V128.425Z" fill="#FAFAFA"/>
<path d="M99.36 128.425H95.82V130.085H99.36V128.425Z" fill="#FAFAFA"/>
<path d="M106.42 128.425H102.88V130.085H106.42V128.425Z" fill="#FAFAFA"/>
<path d="M92.295 132.535H88.755V134.195H92.295V132.535Z" fill="#FAFAFA"/>
<path d="M99.36 132.535H95.82V134.195H99.36V132.535Z" fill="#FAFAFA"/>
<path d="M106.42 132.535H102.88V134.195H106.42V132.535Z" fill="#FAFAFA"/>
<path d="M92.295 136.645H88.755V138.305H92.295V136.645Z" fill="#FAFAFA"/>
<path d="M99.36 136.645H95.82V138.305H99.36V136.645Z" fill="#FAFAFA"/>
<path d="M106.42 136.645H102.88V138.305H106.42V136.645Z" fill="#FAFAFA"/>
<path d="M49.475 158.805H61.77C62.2394 158.805 62.62 158.424 62.62 157.955V153.355C62.62 152.885 62.2394 152.505 61.77 152.505H49.475C49.0056 152.505 48.625 152.885 48.625 153.355V157.955C48.625 158.424 49.0056 158.805 49.475 158.805Z" fill="#F5F5F5"/>
<path d="M34.51 158.805H46.805C47.2745 158.805 47.655 158.424 47.655 157.955V153.355C47.655 152.885 47.2745 152.505 46.805 152.505H34.51C34.0406 152.505 33.66 152.885 33.66 153.355V157.955C33.66 158.424 34.0406 158.805 34.51 158.805Z" fill="#F5F5F5"/>
<path d="M42.48 165.83H54.775C55.2444 165.83 55.625 165.449 55.625 164.98V160.38C55.625 159.911 55.2444 159.53 54.775 159.53H42.48C42.0106 159.53 41.63 159.911 41.63 160.38V164.98C41.63 165.449 42.0106 165.83 42.48 165.83Z" fill="#F5F5F5"/>
<path d="M201.235 52.525H213.53C213.999 52.525 214.38 52.1444 214.38 51.675V47.075C214.38 46.6055 213.999 46.225 213.53 46.225H201.235C200.766 46.225 200.385 46.6055 200.385 47.075V51.675C200.385 52.1444 200.766 52.525 201.235 52.525Z" fill="#F5F5F5"/>
<path d="M186.27 52.525H198.565C199.034 52.525 199.415 52.1444 199.415 51.675V47.075C199.415 46.6055 199.034 46.225 198.565 46.225H186.27C185.801 46.225 185.42 46.6055 185.42 47.075V51.675C185.42 52.1444 185.801 52.525 186.27 52.525Z" fill="#F5F5F5"/>
<path d="M194.24 59.555H206.535C207.004 59.555 207.385 59.1744 207.385 58.705V54.105C207.385 53.6356 207.004 53.255 206.535 53.255H194.24C193.771 53.255 193.39 53.6356 193.39 54.105V58.705C193.39 59.1744 193.771 59.555 194.24 59.555Z" fill="#F5F5F5"/>
<path d="M195.57 131.34H207.865C208.334 131.34 208.715 130.959 208.715 130.49V125.89C208.715 125.421 208.334 125.04 207.865 125.04H195.57C195.101 125.04 194.72 125.421 194.72 125.89V130.49C194.72 130.959 195.101 131.34 195.57 131.34Z" fill="#F5F5F5"/>
<path d="M180.605 131.34H192.9C193.369 131.34 193.75 130.959 193.75 130.49V125.89C193.75 125.421 193.369 125.04 192.9 125.04H180.605C180.136 125.04 179.755 125.421 179.755 125.89V130.49C179.755 130.959 180.136 131.34 180.605 131.34Z" fill="#F5F5F5"/>
<path d="M188.57 138.365H200.865C201.334 138.365 201.715 137.984 201.715 137.515V132.915C201.715 132.446 201.334 132.065 200.865 132.065H188.57C188.101 132.065 187.72 132.446 187.72 132.915V137.515C187.72 137.984 188.101 138.365 188.57 138.365Z" fill="#F5F5F5"/>
<path d="M175.608 63.2056C178.449 56.3032 175.156 48.4048 168.254 45.564C161.351 42.7233 153.453 46.0159 150.612 52.9183C147.771 59.8207 151.064 67.7191 157.966 70.5599C164.869 73.4006 172.767 70.108 175.608 63.2056Z" fill="#E0E0E0"/>
<path d="M164.003 70.4757C170.862 69.9865 176.025 64.03 175.536 57.1715C175.047 50.313 169.09 45.1496 162.232 45.6388C155.373 46.1281 150.21 52.0846 150.699 58.9431C151.188 65.8016 157.145 70.965 164.003 70.4757Z" fill="#FAFAFA"/>
<path d="M163.145 46.74H162.68V49.335H163.145V46.74Z" fill="#E0E0E0"/>
<path d="M163.145 66.72H162.68V69.315H163.145V66.72Z" fill="#E0E0E0"/>
<path d="M154.225 57.795H151.63V58.26H154.225V57.795Z" fill="#E0E0E0"/>
<path d="M174.2 57.795H171.605V58.26H174.2V57.795Z" fill="#E0E0E0"/>
<path d="M170.74 49.8953L168.905 51.7303L169.234 52.0591L171.069 50.2241L170.74 49.8953Z" fill="#E0E0E0"/>
<path d="M156.61 64.0211L154.775 65.856L155.104 66.1848L156.939 64.3499L156.61 64.0211Z" fill="#E0E0E0"/>
<path d="M155.101 49.8832L154.772 50.212L156.607 52.047L156.936 51.7182L155.101 49.8832Z" fill="#E0E0E0"/>
<path d="M169.227 64.0082L168.898 64.337L170.733 66.172L171.061 65.8432L169.227 64.0082Z" fill="#E0E0E0"/>
<path d="M162.822 57.7196L162.675 58.0918L167.076 59.8246L167.223 59.4524L162.822 57.7196Z" fill="#E0E0E0"/>
<path d="M163.115 58.2299H155.85V57.8299H162.715V52.1899H163.115V58.2299Z" fill="#E0E0E0"/>
<path d="M108.695 113.945L107.365 114.075L106.105 114.185C105.27 114.245 104.44 114.29 103.605 114.33C101.94 114.42 100.275 114.435 98.605 114.44C95.2026 114.438 91.8033 114.234 88.425 113.83C84.725 113.431 81.0859 112.592 77.585 111.33C75.3636 110.54 73.29 109.384 71.45 107.91C70.8815 107.449 70.3468 106.948 69.85 106.41C69.585 106.115 69.35 105.81 69.08 105.49L68.71 104.99L68.62 104.86L68.44 104.595C68.2563 104.32 68.0894 104.035 67.94 103.74C67.4838 102.799 67.2058 101.782 67.12 100.74C67.0627 100.074 67.0777 99.4031 67.165 98.74C67.2802 97.8871 67.4863 97.049 67.78 96.24C68.1816 95.1555 68.6838 94.1109 69.28 93.12C69.78 92.245 70.28 91.47 70.81 90.72C71.81 89.22 72.88 87.885 73.935 86.58C74.99 85.275 76.095 84.045 77.19 82.83C78.285 81.615 79.385 80.425 80.52 79.27C81.655 78.115 82.785 76.97 83.935 75.845C85.085 74.72 86.26 73.63 87.435 72.535C89.81 70.375 92.18 68.26 94.72 66.23L99.57 70.73L89.03 86.15C87.33 88.715 85.625 91.255 84.125 93.8C83.36 95.055 82.625 96.3 82.03 97.51C81.725 98.105 81.455 98.69 81.24 99.22C81.0733 99.6084 80.9444 100.012 80.855 100.425C80.855 100.5 80.885 100.52 80.945 100.205C80.9918 99.9275 81.0019 99.6451 80.975 99.365C80.9275 98.7173 80.7579 98.0845 80.475 97.5C80.3777 97.2923 80.2657 97.0918 80.14 96.9L80.045 96.76C80.05 96.7471 80.05 96.7328 80.045 96.72V96.69C80.045 96.69 80.105 96.69 80.2 96.75C80.9118 97.1074 81.6549 97.3986 82.42 97.62C83.5864 97.9537 84.7741 98.2076 85.975 98.38C87.27 98.57 88.63 98.75 90.03 98.88C92.825 99.095 95.74 99.2 98.685 99.195C100.155 99.195 101.635 99.195 103.115 99.16L105.33 99.1H106.425L107.425 99.06L108.695 113.945Z" fill="#FF8B7B"/>
<path d="M94.5 76.9C93.58 76.9 92.59 76.4 91.545 75.465C90.135 74.175 89.435 72.86 89.465 71.555C89.4864 71.0528 89.6075 70.5599 89.8212 70.1049C90.035 69.65 90.3371 69.2421 90.71 68.905C90.7611 68.871 90.823 68.857 90.8838 68.8657C90.9446 68.8744 91 68.9052 91.0396 68.9522C91.0791 68.9992 91.1 69.059 91.0982 69.1204C91.0965 69.1818 91.0722 69.2404 91.03 69.285C90.3898 69.8802 90.0076 70.702 89.965 71.575C89.965 72.725 90.59 73.91 91.88 75.075C92.99 76.075 94 76.515 94.88 76.345C95.247 76.2475 95.5896 76.0744 95.8858 75.8368C96.182 75.5991 96.4253 75.3022 96.6 74.965C96.6139 74.9356 96.6335 74.9092 96.6577 74.8875C96.6819 74.8657 96.7102 74.849 96.7409 74.8383C96.7716 74.8276 96.8041 74.8231 96.8366 74.8251C96.8691 74.8271 96.9008 74.8356 96.93 74.85C96.96 74.8639 96.987 74.8837 97.0093 74.9082C97.0316 74.9326 97.0488 74.9613 97.06 74.9924C97.0712 75.0236 97.076 75.0567 97.0743 75.0897C97.0726 75.1228 97.0643 75.1552 97.05 75.185C96.8421 75.5923 96.5493 75.9504 96.1914 76.235C95.8334 76.5196 95.4187 76.7242 94.975 76.835C94.819 76.8715 94.66 76.8932 94.5 76.9Z" fill="#263238"/>
<path d="M110.625 94.945C110.625 94.945 104.775 98.19 93.33 97.13C90.625 96.88 88.115 115.13 88.945 116.63C90.89 120.13 107.91 119.455 107.91 119.455C107.91 119.455 110.295 101.675 110.625 94.945Z" fill="#407BFF"/>
<g opacity="0.2">
<path d="M110.625 94.945C110.625 94.945 104.775 98.19 93.33 97.13C90.625 96.88 88.115 115.13 88.945 116.63C90.89 120.13 107.91 119.455 107.91 119.455C107.91 119.455 110.295 101.675 110.625 94.945Z" fill="black"/>
</g>
<path d="M123.5 54.19C123.5 54.19 119.665 52.82 117.905 55.125C116.145 57.43 117.6 61.23 117.6 61.23L123.5 54.19Z" fill="#263238"/>
<path d="M117.55 208.715L121.475 182.965L95.77 173.575L89.87 208.715H117.55Z" fill="#263238"/>
<path d="M150.13 208.715C149.88 191.965 149.24 182.395 150.22 174.59L115.12 178.205C116.675 188.13 116.475 199.27 118.225 208.705L150.13 208.715Z" fill="#263238"/>
<g opacity="0.2">
<path d="M145.45 196.715C145.74 196.715 146.035 196.715 146.34 196.715V208.715H146.88V182.36H146.34V196.15C142.13 196.335 138.875 195.25 136.65 192.935C132.79 188.91 133.365 182.435 133.37 182.385L132.83 182.33C132.8 182.61 132.225 189.1 136.255 193.305C138.43 195.57 141.5 196.715 145.45 196.715Z" fill="white"/>
</g>
<g opacity="0.2">
<path d="M93.34 188.66L93.225 188.13C99.34 186.815 99.76 177.385 99.76 177.29H100.3C100.29 177.715 99.865 187.26 93.34 188.66Z" fill="white"/>
</g>
<g opacity="0.2">
<path d="M120.67 180.795L117.145 197.54L116.615 197.43L117.07 195.265C116.564 195.213 116.076 195.047 115.643 194.779C115.21 194.512 114.843 194.15 114.57 193.72C111.97 189.77 115.135 179.72 115.27 179.295L115.77 179.465C115.74 179.56 112.55 189.69 115.005 193.425C115.239 193.797 115.556 194.109 115.932 194.336C116.308 194.564 116.732 194.7 117.17 194.735L120.125 180.68L120.67 180.795Z" fill="white"/>
</g>
<path d="M155.205 143C153.42 158.7 152.655 177.22 149.745 180.5C148.37 182.03 145.28 183.03 141.2 183.565L140.945 183.6C123.905 185.745 90.295 180.06 92.58 171.85C93.285 169.3 94.885 160.82 96.635 150.6C96.67 150.405 96.7 150.215 96.735 150.02C96.9117 148.99 97.0884 147.945 97.265 146.885C98.505 139.48 99.765 131.46 100.825 124.265C100.975 123.265 101.115 122.265 101.255 121.265C101.28 121.075 101.31 120.885 101.335 120.695C102.53 112.195 103.335 105.335 103.225 102.775C102.93 94.455 121.045 91.905 121.045 91.905L127.045 91.475C127.045 91.475 139.825 92.595 147.38 96.43C147.635 96.56 147.88 96.695 148.13 96.835C153.33 99.745 155.555 113.655 155.82 126.98C155.961 132.328 155.756 137.679 155.205 143Z" fill="#407BFF"/>
<g opacity="0.2">
<path d="M148.675 146.27C147.655 158.954 145.137 171.473 141.175 183.565L141.14 183.675L140.92 183.6L140.67 183.515C143.437 175.081 145.497 166.431 146.83 157.655C144.354 158.514 141.756 158.968 139.135 159C133.72 159 128.98 156.965 123.135 154.46C120.765 153.46 118.08 152.29 115.135 151.18C105.8 147.68 99.335 149.48 96.635 150.62C96.67 150.425 96.7 150.235 96.735 150.04C99.67 148.865 106.145 147.28 115.295 150.71C118.27 151.825 120.96 152.98 123.335 154C131.73 157.6 137.835 160.215 146.935 157.12C147.17 155.555 147.375 154.02 147.555 152.53C147.505 152.74 147.45 152.95 147.39 153.155C147.39 153.155 141.27 157.435 129.6 153.155C119.045 149.285 107.51 142.495 97.265 146.905C98.505 139.5 99.765 131.48 100.825 124.285C104.825 122.865 112.66 121.82 124.17 127.84C139.245 135.725 146.795 131.91 148.6 130.7C148.575 129.73 148.54 128.825 148.495 127.99C146.061 128.896 143.487 129.371 140.89 129.395C135.82 129.395 131.39 127.445 125.915 125.035C123.7 124.06 121.19 122.95 118.415 121.885C109.8 118.57 103.815 120.205 101.25 121.305C101.275 121.115 101.305 120.925 101.33 120.735C104.13 119.61 110.145 118.165 118.595 121.42C121.375 122.49 123.895 123.6 126.095 124.575C134.01 128.075 139.73 130.575 148.375 127.495L148.46 127.735C148.245 123.515 147.885 121.12 147.875 121.04L148.375 120.96C148.867 124.839 149.115 128.745 149.12 132.655C149.122 132.675 149.122 132.695 149.12 132.715C149.291 137.238 149.142 141.768 148.675 146.27Z" fill="black"/>
</g>
<path d="M137.03 77.145C137.03 77.145 138.38 81.17 137.39 81.645C136.4 82.12 135.86 80.56 135.86 80.56C135.86 80.56 135.675 83.06 134.05 82.505C132.425 81.95 132.105 78.8 132.105 78.8L137.03 77.145Z" fill="#263238"/>
<path d="M133.77 92.85C133.13 94.48 128.025 98.65 124.17 99.4C120.11 100.185 118.505 95.855 120.1 93.345C120.856 91.7979 121.293 90.1145 121.385 88.395C121.385 88.04 121.42 87.685 121.385 87.32C121.35 86.955 121.34 86.445 121.285 85.99C121.285 85.99 121.285 85.99 121.285 85.95C121.26 85.765 121.25 85.58 121.215 85.39C121.18 85.2 121.165 85.105 121.135 84.97L120.82 82.895L123.11 81.96L129.045 79.54L134.495 75.81C133.095 80.745 133.19 87.205 133.77 92.85Z" fill="#FF8B7B"/>
<path d="M121.74 105.365C121.175 105.365 120.612 105.306 120.06 105.19C118.41 104.845 117.32 104.04 116.82 102.785C115.275 98.92 119.88 92.19 120.075 91.905L120.49 92.19C120.44 92.255 115.835 98.98 117.285 102.6C117.72 103.685 118.69 104.395 120.16 104.7C120.666 104.806 121.183 104.86 121.7 104.86C129.45 104.86 134.23 92.6 134.28 92.465L134.75 92.645C134.54 93.195 129.785 105.365 121.74 105.365Z" fill="white"/>
<g opacity="0.2">
<path d="M127.305 85.5C125.415 86.327 123.302 86.4943 121.305 85.975C121.305 85.975 121.305 85.975 121.305 85.935C121.28 85.75 121.27 85.565 121.235 85.375C121.2 85.185 121.185 85.09 121.155 84.955L120.84 82.88L123.13 81.945L129.5 82.615C129.88 83.275 129.065 84.715 127.305 85.5Z" fill="black"/>
</g>
<path d="M139.74 69.355C140.608 67.6226 141.02 65.6971 140.934 63.7611C140.849 61.8251 140.271 59.943 139.254 58.2935C138.237 56.6439 136.816 55.2816 135.124 54.3359C133.433 53.3902 131.528 52.8925 129.59 52.89C120.805 52.84 115.035 63.815 113.83 71.39C112.495 79.82 120.525 87.265 128.83 83.745C134.33 81.405 136.1 76.835 139.75 69.34" fill="#FF8B7B"/>
<path d="M124.165 52.23C124.165 52.23 120.49 52.655 119.165 53.92C117.84 55.185 119.5 55.68 119.5 55.68C119.5 55.68 117.705 56.765 117.96 57.565C118.495 59.24 125.21 56.665 125.21 56.665C125.21 56.665 122.36 59.375 124.155 59.735C125.95 60.095 129.55 57.84 129.55 57.84C129.55 57.84 127.63 61.935 129.55 62.055C131.47 62.175 132.595 58.74 132.595 58.74C132.595 58.74 132.595 62.99 134.505 62.74C135.026 62.6958 135.533 62.5478 135.995 62.3048C136.458 62.0618 136.868 61.7286 137.2 61.325C137.2 61.325 132.42 66.5 134 68.77C134 68.77 130.57 71.57 132.6 73.27C134.63 74.97 139.33 72.055 140.325 70.855C141.32 69.655 145.02 64.955 139.42 57.005C133.82 49.055 124.165 52.23 124.165 52.23Z" fill="#263238"/>
<path d="M126.63 51.055C126.63 51.055 128.83 49.21 135.88 50.555C142.93 51.9 145.5 59.775 145.5 59.775C145.5 59.775 149.16 61.62 147.87 65.68C146.58 69.74 144.215 69.065 144.215 69.065C143.817 69.6723 143.199 70.1015 142.491 70.2619C141.783 70.4224 141.041 70.3016 140.42 69.925C140.42 69.925 142.39 56.53 126.63 51.055Z" fill="#407BFF"/>
<g opacity="0.1">
<path d="M126.63 51.055C126.63 51.055 128.83 49.21 135.88 50.555C142.93 51.9 145.5 59.775 145.5 59.775C145.5 59.775 149.16 61.62 147.87 65.68C146.58 69.74 144.215 69.065 144.215 69.065C143.817 69.6723 143.199 70.1015 142.491 70.2619C141.783 70.4224 141.041 70.3016 140.42 69.925C140.42 69.925 142.39 56.53 126.63 51.055Z" fill="white"/>
</g>
<path d="M121.625 52.74C121.625 52.74 132.695 55.24 136.625 61.3C140.555 67.36 139.065 71.3 139.065 71.3C139.065 71.3 142.72 71.06 142.855 67.485C142.99 63.91 139.095 54.985 131.405 52.09C124.26 49.415 121.625 52.74 121.625 52.74Z" fill="#407BFF"/>
<g opacity="0.1">
<path d="M121.625 52.74C121.625 52.74 132.695 55.24 136.625 61.3C140.555 67.36 139.065 71.3 139.065 71.3C139.065 71.3 142.72 71.06 142.855 67.485C142.99 63.91 139.095 54.985 131.405 52.09C124.26 49.415 121.625 52.74 121.625 52.74Z" fill="black"/>
</g>
<path d="M122.61 66.025C121.678 66.8448 120.547 67.4052 119.33 67.65C117.435 67.965 117.265 68.945 118.05 69.975C118.216 70.2124 118.427 70.4144 118.672 70.569C118.916 70.7235 119.189 70.8276 119.475 70.875C120.685 69.815 121.68 68.035 122.61 66.025Z" fill="#FF5652"/>
<path d="M119 66.39C118.775 66.3894 118.554 66.3345 118.355 66.23C118.046 66.0934 117.785 65.8667 117.606 65.5795C117.428 65.2922 117.34 64.9578 117.355 64.62C117.361 64.5537 117.393 64.4925 117.444 64.4498C117.495 64.4071 117.561 64.3865 117.627 64.3925C117.694 64.3985 117.755 64.4305 117.798 64.4816C117.84 64.5327 117.861 64.5987 117.855 64.665C117.851 64.9012 117.917 65.1333 118.044 65.3324C118.171 65.5316 118.354 65.689 118.57 65.785C119.325 66.165 120.07 65.35 120.07 65.34C120.115 65.2909 120.178 65.2618 120.244 65.259C120.311 65.2562 120.376 65.2799 120.425 65.325C120.474 65.3701 120.503 65.4328 120.506 65.4994C120.509 65.566 120.485 65.6309 120.44 65.68C120.064 66.0861 119.551 66.3389 119 66.39Z" fill="#263238"/>
<path d="M125.91 69.095C125.571 69.096 125.24 68.9949 124.96 68.805C124.65 68.6206 124.399 68.3523 124.235 68.0311C124.072 67.71 124.002 67.349 124.035 66.99C124.041 66.9572 124.053 66.9258 124.07 66.8976C124.088 66.8694 124.111 66.845 124.138 66.8257C124.165 66.8064 124.196 66.7927 124.229 66.7853C124.261 66.7779 124.295 66.7769 124.328 66.7825C124.36 66.7881 124.392 66.8001 124.42 66.8178C124.448 66.8355 124.473 66.8586 124.492 66.8858C124.511 66.913 124.525 66.9436 124.532 66.9761C124.54 67.0086 124.541 67.0422 124.535 67.075C124.519 67.3385 124.578 67.6012 124.703 67.8335C124.828 68.0658 125.016 68.2585 125.245 68.39C126.045 68.93 126.895 68.255 126.93 68.225C126.956 68.204 126.985 68.1882 127.017 68.1786C127.049 68.169 127.082 68.1657 127.115 68.169C127.148 68.1722 127.18 68.182 127.209 68.1976C127.238 68.2132 127.264 68.2344 127.285 68.26C127.306 68.2856 127.322 68.3151 127.331 68.3468C127.341 68.3785 127.344 68.4118 127.341 68.4448C127.338 68.4777 127.328 68.5097 127.312 68.5389C127.297 68.5682 127.276 68.594 127.25 68.615C126.867 68.9152 126.397 69.0835 125.91 69.095Z" fill="#263238"/>
<path d="M119.83 74.325C119.49 75.215 118.615 75.71 117.885 75.43C117.155 75.15 116.835 74.195 117.18 73.305C117.525 72.415 118.395 71.915 119.13 72.195C119.865 72.475 120.175 73.43 119.83 74.325Z" fill="white"/>
<path d="M140.915 75.85C139.6 77.4801 137.692 78.5229 135.61 78.75C132.845 79.03 131.935 76.445 133.11 74.085C134.16 71.96 136.86 69.255 139.445 70.085C142.03 70.915 142.52 73.84 140.945 75.86" fill="#FF8B7B"/>
<path d="M135.47 78.125C135.471 78.3509 135.405 78.572 135.28 78.7602C135.155 78.9485 134.977 79.0954 134.769 79.1823C134.56 79.2692 134.33 79.2922 134.109 79.2483C133.887 79.2045 133.684 79.0958 133.524 78.9361C133.364 78.7764 133.255 78.5728 133.212 78.3512C133.168 78.1296 133.191 77.8999 133.278 77.6914C133.365 77.4829 133.512 77.3049 133.7 77.18C133.888 77.0552 134.109 76.989 134.335 76.99C134.636 76.99 134.925 77.1096 135.138 77.3224C135.35 77.5353 135.47 77.824 135.47 78.125Z" fill="white"/>
<path d="M118.525 61.695C118.579 61.7174 118.638 61.7251 118.696 61.7172C118.754 61.7093 118.809 61.6861 118.855 61.65C119.029 61.4944 119.234 61.376 119.456 61.3021C119.677 61.2282 119.912 61.2002 120.145 61.22C120.603 61.3102 121.015 61.5578 121.31 61.92C121.362 61.9901 121.439 62.0367 121.526 62.0499C121.612 62.063 121.7 62.0415 121.77 61.99C121.839 61.9364 121.885 61.8582 121.898 61.7715C121.911 61.6849 121.89 61.5966 121.84 61.525C121.44 61.0174 120.867 60.6755 120.23 60.565C119.91 60.5318 119.586 60.5649 119.279 60.662C118.972 60.7592 118.688 60.9185 118.445 61.13C118.4 61.1657 118.364 61.2128 118.343 61.2664C118.321 61.32 118.314 61.3783 118.322 61.4355C118.331 61.4927 118.353 61.5468 118.389 61.5923C118.425 61.6378 118.471 61.6733 118.525 61.695Z" fill="#263238"/>
<path d="M129.1 66.32C129.148 66.3388 129.199 66.3473 129.25 66.345C129.337 66.3386 129.417 66.2982 129.474 66.2327C129.532 66.1672 129.56 66.0818 129.555 65.995C129.502 65.3516 129.211 64.751 128.74 64.31C128.49 64.1069 128.2 63.9576 127.89 63.8715C127.579 63.7855 127.254 63.7646 126.935 63.81C126.891 63.8131 126.849 63.825 126.81 63.8449C126.771 63.8649 126.736 63.8925 126.708 63.9261C126.68 63.9598 126.659 63.9987 126.647 64.0406C126.634 64.0825 126.63 64.1265 126.635 64.17C126.643 64.2567 126.684 64.3369 126.751 64.3931C126.817 64.4493 126.903 64.4769 126.99 64.47C127.221 64.4345 127.456 64.4463 127.682 64.5047C127.909 64.5632 128.12 64.667 128.305 64.81C128.64 65.1382 128.849 65.5735 128.895 66.04C128.901 66.1008 128.923 66.1589 128.959 66.2081C128.995 66.2574 129.044 66.296 129.1 66.32Z" fill="#263238"/>
<path d="M184.445 130.405C184.262 129.996 184.048 129.601 183.805 129.225L183.59 128.88L183.165 128.21C182.885 127.76 182.585 127.335 182.285 126.915C181.69 126.055 181.06 125.26 180.43 124.455C179.155 122.885 177.82 121.42 176.455 120.015C173.741 117.319 170.85 114.809 167.8 112.5C166.3 111.36 164.8 110.27 163.25 109.21C161.7 108.15 160.145 107.16 158.57 106.21C156.995 105.26 155.39 104.31 153.765 103.42C152.945 102.975 152.13 102.535 151.3 102.105L150.035 101.48L148.685 100.83L142.135 114.33L143.135 114.87L144.205 115.46C144.93 115.855 145.65 116.26 146.375 116.67C147.815 117.49 149.26 118.325 150.68 119.17C152.1 120.015 153.515 120.895 154.9 121.795C156.285 122.695 157.67 123.585 159 124.53C160.33 125.475 161.66 126.415 162.93 127.395C164.2 128.375 165.43 129.395 166.6 130.395C167.77 131.395 168.9 132.47 169.935 133.55C170.435 134.095 170.935 134.635 171.4 135.19C171.432 135.235 171.467 135.279 171.505 135.32C170.89 136.493 170.2 137.625 169.44 138.71C167.65 141.295 165.495 143.895 163.295 146.475C160.295 149.935 157.13 153.37 153.925 156.77C153.925 156.795 153.925 156.82 153.925 156.85C153.263 160.194 153.169 163.625 153.645 167L153.99 167.415C157.025 165.415 159.885 163.305 162.75 161.12C165.615 158.935 168.4 156.665 171.13 154.24C173.959 151.788 176.63 149.161 179.13 146.375C180.538 144.815 181.804 143.133 182.915 141.35C183.633 140.195 184.217 138.962 184.655 137.675C184.966 136.74 185.155 135.768 185.22 134.785C185.316 133.284 185.05 131.782 184.445 130.405ZM172.025 133.905C172.011 134.061 171.974 134.215 171.915 134.36C171.915 134.305 171.915 134.255 171.915 134.21C171.965 133.91 172.025 133.86 172.025 133.915V133.905Z" fill="#FF8B7B"/>
<path d="M139.605 115.855L159.39 128.785C159.39 128.785 168.745 118.545 167.93 109.435C167.93 109.435 156.695 98.8 148.15 96.85C139.605 94.9 130.595 109.32 139.605 115.855Z" fill="#407BFF"/>
<g opacity="0.2">
<path d="M139.605 115.855L159.39 128.785C159.39 128.785 168.745 118.545 167.93 109.435C167.93 109.435 156.695 98.8 148.15 96.85C139.605 94.9 130.595 109.32 139.605 115.855Z" fill="black"/>
</g>
<path d="M82.545 64.3C78.915 62.5 86 48.125 89.64 49.915C91.9304 50.8969 94.1669 52.0002 96.34 53.22C99.59 55.07 100.755 60.22 102.77 61.485C104.785 62.75 107.885 60.775 110.39 61.64C111.89 62.14 113.715 64.68 114.965 66.64C115.59 67.6213 115.845 68.7928 115.685 69.945L117.61 70.895L116.215 73.72L114.29 72.77C114.073 72.9869 113.837 73.1843 113.585 73.36C112.887 73.839 112.078 74.1316 111.235 74.21C108.91 74.415 105.79 74.495 104.475 73.625C102.265 72.16 101.92 68.515 99.71 67.67C97.5 66.825 92.71 69.05 89.245 67.605C86.9557 66.6207 84.7193 65.5175 82.545 64.3Z" fill="#407BFF"/>
<g opacity="0.5">
<path d="M82.545 64.3C78.915 62.5 86 48.125 89.64 49.915C91.9304 50.8969 94.1669 52.0002 96.34 53.22C99.59 55.07 100.755 60.22 102.77 61.485C104.785 62.75 107.885 60.775 110.39 61.64C111.89 62.14 113.715 64.68 114.965 66.64C115.59 67.6213 115.845 68.7928 115.685 69.945L117.61 70.895L116.215 73.72L114.29 72.77C114.073 72.9869 113.837 73.1843 113.585 73.36C112.887 73.839 112.078 74.1316 111.235 74.21C108.91 74.415 105.79 74.495 104.475 73.625C102.265 72.16 101.92 68.515 99.71 67.67C97.5 66.825 92.71 69.05 89.245 67.605C86.9557 66.6207 84.7193 65.5175 82.545 64.3Z" fill="white"/>
<g opacity="0.1">
<path d="M113.65 67.5C111.81 64.6 110.465 63.335 109.885 63.135C109.07 62.855 107.995 63.035 106.86 63.225C106.112 63.3676 105.355 63.4562 104.595 63.49C103.668 63.5314 102.749 63.3021 101.95 62.83C100.725 62.075 99.895 60.58 99.015 59C98.08 57.325 97.015 55.425 95.57 54.595C93.185 53.235 90.66 52.095 89.57 51.595C87.2788 53.4129 85.5645 55.8568 84.635 58.63C84.1025 60.0706 83.7433 61.5695 83.565 63.095C84.385 63.55 87.065 65.005 89.84 66.175C91.38 66.825 93.53 66.505 95.425 66.225C97.22 65.96 98.925 65.725 100.255 66.225C101.965 66.875 102.815 68.475 103.56 69.875C104.105 70.875 104.615 71.875 105.33 72.335C105.83 72.675 107.665 72.97 111.085 72.66C111.43 72.6325 111.768 72.548 112.085 72.41C112.16 72.3835 112.234 72.3517 112.305 72.315L114.105 68.665C114.029 68.2513 113.874 67.856 113.65 67.5Z" fill="black"/>
</g>
</g>
<path d="M111.215 71.375C110.045 68.785 105.655 70.375 105.69 67.32C105.69 67.27 105.595 66.37 104.445 65.32C103.811 64.7333 103.062 64.2855 102.245 64.005C96.2 61.91 94.92 54.62 88.595 52.45C86.7972 54.1656 85.4419 56.2912 84.645 58.645C84.1125 60.0856 83.7534 61.5845 83.575 63.11C84.395 63.565 87.075 65.02 89.85 66.19C91.39 66.84 93.54 66.52 95.435 66.24C97.23 65.975 98.935 65.74 100.265 66.24C101.975 66.89 102.825 68.49 103.57 69.89C104.115 70.89 104.625 71.89 105.34 72.35C105.84 72.69 107.675 72.985 111.095 72.675C111.44 72.6475 111.778 72.563 112.095 72.425C111.705 72.1688 111.399 71.8037 111.215 71.375Z" fill="#407BFF"/>
<path d="M106.135 68.85C107.473 69.4118 108.94 69.5935 110.375 69.375C112.77 69.015 112.375 70.745 113.83 71.405C115.285 72.065 116.435 71.745 116.83 72.525C117.78 73.85 118.365 74.935 117.905 75.43C116.515 75.105 114.2 72.605 113.335 72.675C112.503 72.7413 111.667 72.7413 110.835 72.675C109.38 72.65 106.135 68.85 106.135 68.85Z" fill="#407BFF"/>
<path d="M99.565 70.705C99.565 70.705 104.14 71.86 105.135 70.355C106.13 68.85 104.385 68.275 103.45 67.4C102.515 66.525 99.575 64.59 99.075 65.65C98.575 66.71 100.22 67.94 100.22 67.94C99.5097 67.6329 98.7439 67.4745 97.97 67.4745C97.1961 67.4745 96.4304 67.6329 95.72 67.94C93.45 69.025 99.565 70.705 99.565 70.705Z" fill="#FF8B7B"/>
<path d="M151.6 162.93C151.6 162.93 146.86 164.705 146.545 165.97C146.23 167.235 151.27 166.13 151.27 166.13C151.27 166.13 148.495 167.25 148.09 168.205C147.685 169.16 151.535 168.705 151.535 168.705C151.535 168.705 149.715 169.53 150.085 170.56C150.455 171.59 151.31 171.65 152.435 171.45C152.898 171.367 153.336 171.177 153.713 170.896C154.091 170.615 154.398 170.25 154.61 169.83C154.835 169.255 154.04 168.38 154.04 168.38C154.04 168.38 155.405 166.755 155.175 166.065C155.099 165.855 154.98 165.664 154.825 165.504C154.669 165.343 154.482 165.218 154.275 165.135C154.502 164.976 154.686 164.763 154.81 164.515C154.933 164.267 154.994 163.992 154.985 163.715C154.988 163.47 154.929 163.228 154.815 163.012C154.701 162.795 154.534 162.611 154.33 162.475C154.356 161.555 154.319 160.635 154.22 159.72C154.065 158.76 152.22 158.745 151.07 158.61C149.92 158.475 149.07 161.11 147.69 162.11C147.69 162.11 147.12 162.93 148.19 163.145C149.26 163.36 150.69 161.705 151.085 161.57C151.48 161.435 151.6 162.93 151.6 162.93Z" fill="#FF8B7B"/>
<g opacity="0.2">
<path d="M155.31 166.58H155.285C155.269 166.577 155.254 166.571 155.24 166.562C155.227 166.553 155.215 166.541 155.207 166.528C155.198 166.514 155.192 166.499 155.189 166.483C155.186 166.467 155.186 166.451 155.19 166.435C155.226 166.156 155.176 165.872 155.046 165.622C154.917 165.372 154.714 165.167 154.465 165.035C154.447 165.025 154.432 165.01 154.42 164.993C154.409 164.975 154.402 164.956 154.4 164.935C154.4 164.914 154.405 164.892 154.414 164.873C154.424 164.854 154.438 164.838 154.455 164.825C154.455 164.825 155.195 164.295 155.195 163.71C155.191 163.452 155.114 163.2 154.975 162.983C154.835 162.765 154.638 162.591 154.405 162.48C154.386 162.472 154.369 162.46 154.356 162.444C154.343 162.429 154.334 162.41 154.33 162.39C154.325 162.371 154.325 162.35 154.33 162.331C154.336 162.312 154.346 162.294 154.36 162.28C154.632 161.83 154.725 161.295 154.62 160.78C154.521 160.113 154.161 159.513 153.62 159.11C153.592 159.091 153.573 159.063 153.566 159.03C153.56 158.997 153.566 158.963 153.585 158.935C153.604 158.907 153.632 158.888 153.665 158.881C153.698 158.875 153.732 158.881 153.76 158.9C154.058 159.12 154.31 159.397 154.499 159.716C154.688 160.034 154.811 160.388 154.86 160.755C154.951 161.288 154.871 161.836 154.63 162.32C154.876 162.46 155.081 162.663 155.224 162.908C155.366 163.153 155.441 163.432 155.44 163.715C155.41 163.953 155.332 164.183 155.211 164.39C155.09 164.597 154.928 164.777 154.735 164.92C154.993 165.084 155.196 165.32 155.319 165.6C155.442 165.88 155.479 166.189 155.425 166.49C155.418 166.516 155.404 166.538 155.383 166.554C155.362 166.571 155.336 166.58 155.31 166.58Z" fill="black"/>
</g>
<path d="M103.61 61.82C103.61 61.82 100.61 64.53 99.335 64.21C98.06 63.89 101.105 60.035 101.105 60.035C101.105 60.035 98.805 61.95 97.775 61.86C96.745 61.77 98.955 58.58 98.955 58.58C98.955 58.58 97.405 60.47 96.67 59.66C95.935 58.85 96.75 57.52 97.46 56.625C98.17 55.73 98.8 55.27 99.415 55.345C100.03 55.42 100.415 56.53 100.415 56.53C100.415 56.53 102.49 56.095 102.995 56.625C103.143 56.7909 103.255 56.9862 103.323 57.198C103.391 57.4099 103.414 57.6337 103.39 57.855C103.637 57.7301 103.911 57.6688 104.188 57.6767C104.465 57.6845 104.735 57.7613 104.975 57.9C105.765 58.4 105.425 59.585 105.425 59.585C105.425 59.585 107.03 59.375 107.53 60.545C107.915 61.44 106.53 61.95 106.125 63.045C105.72 64.14 104.48 64.35 102.94 65.09C102.94 65.09 101.94 65.205 102.27 64.14C102.6 63.075 103.97 62.485 104.27 62.19C104.57 61.895 103.61 61.82 103.61 61.82Z" fill="#FF8B7B"/>
<path d="M226.725 206.99H22.605C20.5063 206.99 18.805 208.691 18.805 210.79V210.91C18.805 213.009 20.5063 214.71 22.605 214.71H226.725C228.824 214.71 230.525 213.009 230.525 210.91V210.79C230.525 208.691 228.824 206.99 226.725 206.99Z" fill="#E0E0E0"/>
<path d="M220.36 219.215H30.72C29.5265 219.215 28.3819 218.741 27.538 217.897C26.6941 217.053 26.22 215.908 26.22 214.715H224.86C224.86 215.908 224.386 217.053 223.542 217.897C222.698 218.741 221.553 219.215 220.36 219.215Z" fill="#EBEBEB"/>
<path d="M84.365 161.43C83.7319 161.431 83.1127 161.244 82.5858 160.893C82.0589 160.542 81.648 160.043 81.405 159.458C81.162 158.873 81.0979 158.23 81.2209 157.609C81.3438 156.988 81.6481 156.417 82.0955 155.969C82.5428 155.521 83.113 155.216 83.7338 155.092C84.3547 154.968 84.9984 155.031 85.5834 155.273C86.1684 155.515 86.6685 155.925 87.0203 156.452C87.3722 156.978 87.56 157.597 87.56 158.23C87.5587 159.077 87.2218 159.89 86.623 160.489C86.0243 161.089 85.2124 161.427 84.365 161.43ZM84.365 155.43C83.8058 155.429 83.2589 155.594 82.7936 155.904C82.3283 156.214 81.9654 156.655 81.751 157.172C81.5365 157.688 81.4802 158.256 81.589 158.805C81.6979 159.353 81.967 159.857 82.3624 160.253C82.7578 160.648 83.2616 160.917 83.8101 161.026C84.3585 161.135 84.927 161.078 85.4434 160.864C85.9598 160.65 86.4009 160.287 86.711 159.821C87.021 159.356 87.186 158.809 87.185 158.25C87.1869 157.878 87.1155 157.51 86.9747 157.165C86.834 156.821 86.6266 156.508 86.3646 156.244C86.1026 155.981 85.7911 155.771 85.448 155.628C85.1048 155.485 84.7368 155.411 84.365 155.41V155.43Z" fill="#407BFF"/>
<g opacity="0.5">
<path d="M84.365 161.43C83.7319 161.431 83.1127 161.244 82.5858 160.893C82.0589 160.542 81.648 160.043 81.405 159.458C81.162 158.873 81.0979 158.23 81.2209 157.609C81.3438 156.988 81.6481 156.417 82.0955 155.969C82.5428 155.521 83.113 155.216 83.7338 155.092C84.3547 154.968 84.9984 155.031 85.5834 155.273C86.1684 155.515 86.6685 155.925 87.0203 156.452C87.3722 156.978 87.56 157.597 87.56 158.23C87.5587 159.077 87.2218 159.89 86.623 160.489C86.0243 161.089 85.2124 161.427 84.365 161.43ZM84.365 155.43C83.8058 155.429 83.2589 155.594 82.7936 155.904C82.3283 156.214 81.9654 156.655 81.751 157.172C81.5365 157.688 81.4802 158.256 81.589 158.805C81.6979 159.353 81.967 159.857 82.3624 160.253C82.7578 160.648 83.2616 160.917 83.8101 161.026C84.3585 161.135 84.927 161.078 85.4434 160.864C85.9598 160.65 86.4009 160.287 86.711 159.821C87.021 159.356 87.186 158.809 87.185 158.25C87.1869 157.878 87.1155 157.51 86.9747 157.165C86.834 156.821 86.6266 156.508 86.3646 156.244C86.1026 155.981 85.7911 155.771 85.448 155.628C85.1048 155.485 84.7368 155.411 84.365 155.41V155.43Z" fill="white"/>
</g>
<path d="M151.92 87.32C151.287 87.32 150.668 87.1322 150.142 86.7803C149.615 86.4285 149.205 85.9284 148.963 85.3434C148.721 84.7584 148.658 84.1147 148.782 83.4938C148.906 82.873 149.211 82.3028 149.659 81.8555C150.107 81.4081 150.678 81.1038 151.299 80.9809C151.92 80.858 152.563 80.922 153.148 81.165C153.733 81.408 154.232 81.8189 154.583 82.3458C154.934 82.8727 155.121 83.4919 155.12 84.125C155.119 84.9728 154.781 85.7855 154.181 86.3845C153.581 86.9835 152.768 87.32 151.92 87.32ZM151.92 81.32C151.361 81.32 150.815 81.4857 150.35 81.7961C149.886 82.1065 149.524 82.5477 149.31 83.0639C149.096 83.5801 149.04 84.1481 149.149 84.6961C149.258 85.2441 149.527 85.7475 149.922 86.1426C150.317 86.5376 150.821 86.8067 151.369 86.9157C151.917 87.0247 152.485 86.9688 153.001 86.7549C153.517 86.5411 153.958 86.179 154.269 85.7145C154.579 85.2499 154.745 84.7037 154.745 84.145C154.748 83.7723 154.676 83.4028 154.536 83.0578C154.395 82.7127 154.187 82.3989 153.925 82.1345C153.662 81.87 153.35 81.6601 153.006 81.5169C152.662 81.3737 152.293 81.3 151.92 81.3V81.32Z" fill="#407BFF"/>
<g opacity="0.5">
<path d="M151.92 87.32C151.287 87.32 150.668 87.1322 150.142 86.7803C149.615 86.4285 149.205 85.9284 148.963 85.3434C148.721 84.7584 148.658 84.1147 148.782 83.4938C148.906 82.873 149.211 82.3028 149.659 81.8555C150.107 81.4081 150.678 81.1038 151.299 80.9809C151.92 80.858 152.563 80.922 153.148 81.165C153.733 81.408 154.232 81.8189 154.583 82.3458C154.934 82.8727 155.121 83.4919 155.12 84.125C155.119 84.9728 154.781 85.7855 154.181 86.3845C153.581 86.9835 152.768 87.32 151.92 87.32ZM151.92 81.32C151.361 81.32 150.815 81.4857 150.35 81.7961C149.886 82.1065 149.524 82.5477 149.31 83.0639C149.096 83.5801 149.04 84.1481 149.149 84.6961C149.258 85.2441 149.527 85.7475 149.922 86.1426C150.317 86.5376 150.821 86.8067 151.369 86.9157C151.917 87.0247 152.485 86.9688 153.001 86.7549C153.517 86.5411 153.958 86.179 154.269 85.7145C154.579 85.2499 154.745 84.7037 154.745 84.145C154.748 83.7723 154.676 83.4028 154.536 83.0578C154.395 82.7127 154.187 82.3989 153.925 82.1345C153.662 81.87 153.35 81.6601 153.006 81.5169C152.662 81.3737 152.293 81.3 151.92 81.3V81.32Z" fill="white"/>
</g>
<path d="M191 200L191.605 205.11L191.645 205.44C191.701 205.905 191.926 206.332 192.276 206.643C192.626 206.953 193.077 207.125 193.545 207.125H206.305C206.773 207.126 207.226 206.954 207.575 206.642C207.925 206.33 208.147 205.9 208.2 205.435L208.25 205.015L208.295 204.635L208.445 203.32L208.49 202.92L208.52 202.66L208.56 202.32L208.91 199.28L208.95 198.945L209.64 192.945L209.68 192.595L210.005 189.785C210.005 188.785 189.79 188.785 189.79 189.785L190.025 191.785L190.065 192.11L190.5 195.775L190.535 196.095L190.82 198.485L190.86 198.83L190.965 199.72L191 200Z" fill="#407BFF"/>
<path d="M209 190.16C209 190.42 204.87 190.635 199.78 190.635C194.69 190.635 190.555 190.42 190.555 190.16C190.555 189.9 194.685 189.66 199.78 189.66C204.875 189.66 209 189.895 209 190.16Z" fill="#263238"/>
<path d="M200.41 182.385C200.41 182.385 197.575 182.83 193.76 178.285L196.345 178.525L192.595 176.755C188.65 170.835 189.45 160.645 189.45 160.645C191.574 162.525 193.458 164.659 195.06 167L195.735 170.65L196.085 168.58C198.16 172 200.665 177.65 200.41 182.385Z" fill="#407BFF"/>
<path d="M200.045 171.445C200.045 171.445 202.905 171.23 205.585 165.945L203.12 166.765L206.37 164.185C208.87 157.52 205.75 147.785 205.75 147.785C204.114 150.101 202.771 152.61 201.75 155.255L201.93 158.965L201.115 157.03C199.87 160.835 198.715 166.895 200.045 171.445Z" fill="#407BFF"/>
<path d="M200.145 187.205C200.145 187.205 202.93 187.895 207.145 183.705H204.55L208.44 182.27C212.885 176.715 212.98 166.5 212.98 166.5C210.7 168.187 208.636 170.149 206.835 172.34L205.835 175.92L205.665 173.83C203.295 177.075 200.305 182.465 200.145 187.205Z" fill="#407BFF"/>
<g opacity="0.5">
<path d="M200.41 182.385C200.41 182.385 197.575 182.83 193.76 178.285L196.345 178.525L192.595 176.755C188.65 170.835 189.45 160.645 189.45 160.645C191.574 162.525 193.458 164.659 195.06 167L195.735 170.65L196.085 168.58C198.16 172 200.665 177.65 200.41 182.385Z" fill="white"/>
</g>
<g opacity="0.5">
<path d="M200.045 171.445C200.045 171.445 202.905 171.23 205.585 165.945L203.12 166.765L206.37 164.185C208.87 157.52 205.75 147.785 205.75 147.785C204.114 150.101 202.771 152.61 201.75 155.255L201.93 158.965L201.115 157.03C199.87 160.835 198.715 166.895 200.045 171.445Z" fill="white"/>
</g>
<g opacity="0.5">
<path d="M200.145 187.205C200.145 187.205 202.93 187.895 207.145 183.705H204.55L208.44 182.27C212.885 176.715 212.98 166.5 212.98 166.5C210.7 168.187 208.636 170.149 206.835 172.34L205.835 175.92L205.665 173.83C203.295 177.075 200.305 182.465 200.145 187.205Z" fill="white"/>
</g>
<path d="M199.41 190.255H200.245C201.318 182.646 201.163 174.915 199.785 167.355C199.24 164.144 198.372 160.997 197.195 157.96C197.174 157.91 197.144 157.864 197.105 157.826C197.067 157.788 197.021 157.758 196.971 157.737C196.921 157.717 196.867 157.707 196.813 157.707C196.759 157.708 196.705 157.719 196.655 157.74C196.555 157.783 196.475 157.864 196.434 157.965C196.393 158.066 196.393 158.179 196.435 158.28C197.579 161.263 198.428 164.351 198.97 167.5C200.34 175.012 200.489 182.696 199.41 190.255Z" fill="#407BFF"/>
<path d="M46.845 207.045H63.935C64.5478 207.048 65.1536 206.916 65.7088 206.656C66.2639 206.397 66.7545 206.017 67.145 205.545C68.9588 203.322 70.1047 200.63 70.4499 197.782C70.795 194.934 70.3251 192.046 69.0948 189.454C67.8644 186.863 65.9241 184.673 63.4991 183.14C61.0741 181.607 58.264 180.793 55.395 180.793C52.526 180.793 49.7158 181.607 47.2909 183.14C44.8659 184.673 42.9256 186.863 41.6952 189.454C40.4649 192.046 39.995 194.934 40.3401 197.782C40.6852 200.63 41.8312 203.322 43.645 205.545C44.0337 206.017 44.5225 206.396 45.076 206.656C45.6295 206.915 46.2337 207.048 46.845 207.045Z" fill="#407BFF"/>
<path d="M72.56 188.725H38.22L46.305 168.95H64.475L72.56 188.725Z" fill="#407BFF"/>
<g opacity="0.3">
<path d="M72.56 188.725H38.22L46.305 168.95H64.475L72.56 188.725Z" fill="white"/>
</g>
</svg>
