<svg width="44" height="44" viewBox="0 0 44 44" fill="none" xmlns="http://www.w3.org/2000/svg">
<rect width="44" height="44" rx="22" fill="#369FFF" fill-opacity="0.2"/>
<path d="M27.6856 22.9187C27.6593 20.2805 29.837 19.0152 29.9343 18.9513C28.7105 17.1618 26.8038 16.9163 26.1252 16.8884C24.5038 16.7237 22.9599 17.8434 22.1374 17.8434C21.3165 17.8434 20.0457 16.9125 18.7012 16.9362C16.9325 16.9624 15.3022 17.9649 14.3921 19.5482C12.5552 22.7346 13.9222 27.4569 15.712 30.043C16.5871 31.3071 17.6306 32.7295 18.9996 32.6774C20.3192 32.6253 20.817 31.824 22.4121 31.824C24.0072 31.824 24.4551 32.6774 25.8509 32.6507C27.2699 32.6249 28.1694 31.3625 29.0373 30.0934C30.0418 28.6248 30.4554 27.2029 30.48 27.1309C30.4491 27.1165 27.7139 26.0688 27.6856 22.9187Z" fill="black"/>
<path d="M25.063 15.1768C25.789 14.2955 26.281 13.0708 26.1472 11.8516C25.0994 11.8939 23.8311 12.5479 23.0789 13.4285C22.4049 14.2099 21.8156 15.4541 21.9735 16.6513C23.1424 16.7419 24.3345 16.0565 25.063 15.1768Z" fill="black"/>
</svg>
