<svg width="20" height="20" viewBox="0 0 20 20" fill="none" xmlns="http://www.w3.org/2000/svg">
<g clip-path="url(#clip0_55_3794)">
<path d="M16.6667 1.66667H15.8333V0.833333C15.8333 0.61232 15.7455 0.400358 15.5893 0.244078C15.433 0.0877974 15.221 0 15 0C14.779 0 14.567 0.0877974 14.4107 0.244078C14.2545 0.400358 14.1667 0.61232 14.1667 0.833333V1.66667H5.83333V0.833333C5.83333 0.61232 5.74554 0.400358 5.58926 0.244078C5.43297 0.0877974 5.22101 0 5 0C4.77899 0 4.56702 0.0877974 4.41074 0.244078C4.25446 0.400358 4.16667 0.61232 4.16667 0.833333V1.66667H3.33333C2.44928 1.66667 1.60143 2.01786 0.976311 2.64298C0.35119 3.2681 0 4.11594 0 5L0 16.6667C0 17.5507 0.35119 18.3986 0.976311 19.0237C1.60143 19.6488 2.44928 20 3.33333 20H16.6667C17.5507 20 18.3986 19.6488 19.0237 19.0237C19.6488 18.3986 20 17.5507 20 16.6667V5C20 4.11594 19.6488 3.2681 19.0237 2.64298C18.3986 2.01786 17.5507 1.66667 16.6667 1.66667ZM18.3333 16.6667C18.3333 17.1087 18.1577 17.5326 17.8452 17.8452C17.5326 18.1577 17.1087 18.3333 16.6667 18.3333H3.33333C2.89131 18.3333 2.46738 18.1577 2.15482 17.8452C1.84226 17.5326 1.66667 17.1087 1.66667 16.6667V5C1.66667 4.55797 1.84226 4.13405 2.15482 3.82149C2.46738 3.50893 2.89131 3.33333 3.33333 3.33333H4.16667V4.16667C4.16667 4.38768 4.25446 4.59964 4.41074 4.75592C4.56702 4.9122 4.77899 5 5 5C5.22101 5 5.43297 4.9122 5.58926 4.75592C5.74554 4.59964 5.83333 4.38768 5.83333 4.16667V3.33333H14.1667V4.16667C14.1667 4.38768 14.2545 4.59964 14.4107 4.75592C14.567 4.9122 14.779 5 15 5C15.221 5 15.433 4.9122 15.5893 4.75592C15.7455 4.59964 15.8333 4.38768 15.8333 4.16667V3.33333H16.6667C17.1087 3.33333 17.5326 3.50893 17.8452 3.82149C18.1577 4.13405 18.3333 4.55797 18.3333 5V16.6667Z" fill="#369FFF"/>
<path d="M15.8333 5.8335H4.16667C3.94565 5.8335 3.73369 5.92129 3.57741 6.07757C3.42113 6.23385 3.33333 6.44582 3.33333 6.66683C3.33333 6.88784 3.42113 7.0998 3.57741 7.25608C3.73369 7.41237 3.94565 7.50016 4.16667 7.50016H15.8333C16.0543 7.50016 16.2663 7.41237 16.4226 7.25608C16.5789 7.0998 16.6667 6.88784 16.6667 6.66683C16.6667 6.44582 16.5789 6.23385 16.4226 6.07757C16.2663 5.92129 16.0543 5.8335 15.8333 5.8335Z" fill="#369FFF"/>
<path d="M5.83333 10H4.16667C3.94565 10 3.73369 10.0878 3.57741 10.2441C3.42113 10.4004 3.33333 10.6123 3.33333 10.8333C3.33333 11.0543 3.42113 11.2663 3.57741 11.4226C3.73369 11.5789 3.94565 11.6667 4.16667 11.6667H5.83333C6.05435 11.6667 6.26631 11.5789 6.42259 11.4226C6.57887 11.2663 6.66667 11.0543 6.66667 10.8333C6.66667 10.6123 6.57887 10.4004 6.42259 10.2441C6.26631 10.0878 6.05435 10 5.83333 10Z" fill="#369FFF"/>
<path d="M5.83333 14.1665H4.16667C3.94565 14.1665 3.73369 14.2543 3.57741 14.4106C3.42113 14.5669 3.33333 14.7788 3.33333 14.9998C3.33333 15.2209 3.42113 15.4328 3.57741 15.5891C3.73369 15.7454 3.94565 15.8332 4.16667 15.8332H5.83333C6.05435 15.8332 6.26631 15.7454 6.42259 15.5891C6.57887 15.4328 6.66667 15.2209 6.66667 14.9998C6.66667 14.7788 6.57887 14.5669 6.42259 14.4106C6.26631 14.2543 6.05435 14.1665 5.83333 14.1665Z" fill="#369FFF"/>
<path d="M10.8333 10H9.16667C8.94565 10 8.73369 10.0878 8.57741 10.2441C8.42113 10.4004 8.33333 10.6123 8.33333 10.8333C8.33333 11.0543 8.42113 11.2663 8.57741 11.4226C8.73369 11.5789 8.94565 11.6667 9.16667 11.6667H10.8333C11.0543 11.6667 11.2663 11.5789 11.4226 11.4226C11.5789 11.2663 11.6667 11.0543 11.6667 10.8333C11.6667 10.6123 11.5789 10.4004 11.4226 10.2441C11.2663 10.0878 11.0543 10 10.8333 10Z" fill="#369FFF"/>
<path d="M10.8333 14.1665H9.16667C8.94565 14.1665 8.73369 14.2543 8.57741 14.4106C8.42113 14.5669 8.33333 14.7788 8.33333 14.9998C8.33333 15.2209 8.42113 15.4328 8.57741 15.5891C8.73369 15.7454 8.94565 15.8332 9.16667 15.8332H10.8333C11.0543 15.8332 11.2663 15.7454 11.4226 15.5891C11.5789 15.4328 11.6667 15.2209 11.6667 14.9998C11.6667 14.7788 11.5789 14.5669 11.4226 14.4106C11.2663 14.2543 11.0543 14.1665 10.8333 14.1665Z" fill="#369FFF"/>
<path d="M15.8333 10H14.1667C13.9457 10 13.7337 10.0878 13.5774 10.2441C13.4211 10.4004 13.3333 10.6123 13.3333 10.8333C13.3333 11.0543 13.4211 11.2663 13.5774 11.4226C13.7337 11.5789 13.9457 11.6667 14.1667 11.6667H15.8333C16.0543 11.6667 16.2663 11.5789 16.4226 11.4226C16.5789 11.2663 16.6667 11.0543 16.6667 10.8333C16.6667 10.6123 16.5789 10.4004 16.4226 10.2441C16.2663 10.0878 16.0543 10 15.8333 10Z" fill="#369FFF"/>
<path d="M15.8333 14.1665H14.1667C13.9457 14.1665 13.7337 14.2543 13.5774 14.4106C13.4211 14.5669 13.3333 14.7788 13.3333 14.9998C13.3333 15.2209 13.4211 15.4328 13.5774 15.5891C13.7337 15.7454 13.9457 15.8332 14.1667 15.8332H15.8333C16.0543 15.8332 16.2663 15.7454 16.4226 15.5891C16.5789 15.4328 16.6667 15.2209 16.6667 14.9998C16.6667 14.7788 16.5789 14.5669 16.4226 14.4106C16.2663 14.2543 16.0543 14.1665 15.8333 14.1665Z" fill="#369FFF"/>
</g>
<defs>
<clipPath id="clip0_55_3794">
<rect width="20" height="20" fill="white"/>
</clipPath>
</defs>
</svg>
