<svg width="44" height="44" viewBox="0 0 44 44" fill="none" xmlns="http://www.w3.org/2000/svg">
<rect width="44" height="44" rx="22" fill="#369FFF" fill-opacity="0.2"/>
<path fill-rule="evenodd" clip-rule="evenodd" d="M15.1722 22.0001C15.1722 21.2206 15.3016 20.4733 15.5327 19.7724L11.4884 16.6841C10.7001 18.2844 10.2561 20.0878 10.2561 22.0001C10.2561 23.9109 10.6997 25.713 11.4867 27.3123L15.5288 24.218C15.2999 23.5203 15.1722 22.7758 15.1722 22.0001Z" fill="#FBBC05"/>
<path fill-rule="evenodd" clip-rule="evenodd" d="M22.2732 14.9091C23.9665 14.9091 25.4959 15.5091 26.6976 16.4909L30.1934 13C28.0632 11.1454 25.3321 10 22.2732 10C17.5242 10 13.4427 12.7157 11.4884 16.684L15.5326 19.7723C16.4644 16.9437 19.1207 14.9091 22.2732 14.9091Z" fill="#EA4335"/>
<path fill-rule="evenodd" clip-rule="evenodd" d="M22.2732 29.091C19.1209 29.091 16.4646 27.0564 15.5327 24.2278L11.4884 27.3155C13.4427 31.2843 17.5242 34.0001 22.2732 34.0001C25.2042 34.0001 28.0026 32.9593 30.1028 31.0093L26.2639 28.0415C25.1807 28.7238 23.8167 29.091 22.2732 29.091Z" fill="#34A853"/>
<path fill-rule="evenodd" clip-rule="evenodd" d="M33.7439 22.0001C33.7439 21.291 33.6346 20.5273 33.4707 19.8184H22.2732V24.4547H28.7187C28.3964 26.0355 27.5193 27.2507 26.2639 28.0415L30.1028 31.0093C32.3089 28.9618 33.7439 25.9115 33.7439 22.0001Z" fill="#4285F4"/>
</svg>
