<svg width="48" height="307" viewBox="0 0 48 307" fill="none" xmlns="http://www.w3.org/2000/svg">
    <path d="M1.00107 73H8.50107" stroke="#369FFF" stroke-linecap="square"/>
    <line x1="1.50107" y1="11.5" x2="8.50107" y2="11.5" stroke="#404040" stroke-linecap="square"/>
    <path d="M1.50107 120.5H8.50107" stroke="#369FFF" stroke-linecap="square"/>
    <path d="M1.5011 182.5H8.5011" stroke="#369FFF" stroke-linecap="square"/>
    <path d="M1.33521 244.5H8.5011" stroke="#369FFF" stroke-linecap="square"/>
    <path d="M1.00107 306.5H8.50107" stroke="#369FFF" stroke-linecap="square"/>
    <path d="M12.4599 2.72727V10H11.359V3.82812H11.3164L9.57635 4.96449V3.91335L11.391 2.72727H12.4599ZM16.9592 10.1207C16.3981 10.1184 15.9187 9.97041 15.521 9.67685C15.1232 9.38329 14.819 8.95597 14.6083 8.39489C14.3976 7.83381 14.2923 7.15791 14.2923 6.36719C14.2923 5.57884 14.3976 4.9053 14.6083 4.34659C14.8214 3.78788 15.1268 3.36174 15.5245 3.06818C15.9246 2.77462 16.4028 2.62784 16.9592 2.62784C17.5155 2.62784 17.9925 2.7758 18.3903 3.07173C18.788 3.36529 19.0922 3.79143 19.3029 4.35014C19.516 4.90649 19.6225 5.57884 19.6225 6.36719C19.6225 7.16027 19.5172 7.83736 19.3065 8.39844C19.0958 8.95715 18.7916 9.38447 18.3938 9.6804C17.9961 9.97396 17.5179 10.1207 16.9592 10.1207ZM16.9592 9.17259C17.4516 9.17259 17.8363 8.93229 18.1133 8.4517C18.3926 7.97112 18.5323 7.27628 18.5323 6.36719C18.5323 5.76349 18.4684 5.25331 18.3406 4.83665C18.2151 4.41761 18.034 4.10038 17.7972 3.88494C17.5629 3.66714 17.2835 3.55824 16.9592 3.55824C16.4691 3.55824 16.0844 3.79972 15.805 4.28267C15.5257 4.76562 15.3848 5.46046 15.3825 6.36719C15.3825 6.97325 15.4452 7.4858 15.5707 7.90483C15.6985 8.3215 15.8796 8.63755 16.114 8.85298C16.3484 9.06605 16.6301 9.17259 16.9592 9.17259ZM23.4142 10.1207C22.8532 10.1184 22.3738 9.97041 21.976 9.67685C21.5783 9.38329 21.2741 8.95597 21.0634 8.39489C20.8527 7.83381 20.7473 7.15791 20.7473 6.36719C20.7473 5.57884 20.8527 4.9053 21.0634 4.34659C21.2765 3.78788 21.5819 3.36174 21.9796 3.06818C22.3797 2.77462 22.8579 2.62784 23.4142 2.62784C23.9706 2.62784 24.4476 2.7758 24.8454 3.07173C25.2431 3.36529 25.5473 3.79143 25.758 4.35014C25.9711 4.90649 26.0776 5.57884 26.0776 6.36719C26.0776 7.16027 25.9722 7.83736 25.7615 8.39844C25.5508 8.95715 25.2466 9.38447 24.8489 9.6804C24.4512 9.97396 23.973 10.1207 23.4142 10.1207ZM23.4142 9.17259C23.9067 9.17259 24.2914 8.93229 24.5684 8.4517C24.8477 7.97112 24.9874 7.27628 24.9874 6.36719C24.9874 5.76349 24.9235 5.25331 24.7956 4.83665C24.6702 4.41761 24.4891 4.10038 24.2523 3.88494C24.0179 3.66714 23.7386 3.55824 23.4142 3.55824C22.9242 3.55824 22.5395 3.79972 22.2601 4.28267C21.9808 4.76562 21.8399 5.46046 21.8375 6.36719C21.8375 6.97325 21.9003 7.4858 22.0257 7.90483C22.1536 8.3215 22.3347 8.63755 22.5691 8.85298C22.8034 9.06605 23.0852 9.17259 23.4142 9.17259ZM29.8693 10.1207C29.3082 10.1184 28.8288 9.97041 28.4311 9.67685C28.0334 9.38329 27.7292 8.95597 27.5185 8.39489C27.3078 7.83381 27.2024 7.15791 27.2024 6.36719C27.2024 5.57884 27.3078 4.9053 27.5185 4.34659C27.7315 3.78788 28.0369 3.36174 28.4347 3.06818C28.8348 2.77462 29.313 2.62784 29.8693 2.62784C30.4257 2.62784 30.9027 2.7758 31.3004 3.07173C31.6982 3.36529 32.0024 3.79143 32.2131 4.35014C32.4261 4.90649 32.5327 5.57884 32.5327 6.36719C32.5327 7.16027 32.4273 7.83736 32.2166 8.39844C32.0059 8.95715 31.7017 9.38447 31.304 9.6804C30.9063 9.97396 30.428 10.1207 29.8693 10.1207ZM29.8693 9.17259C30.3617 9.17259 30.7465 8.93229 31.0234 8.4517C31.3028 7.97112 31.4425 7.27628 31.4425 6.36719C31.4425 5.76349 31.3786 5.25331 31.2507 4.83665C31.1252 4.41761 30.9441 4.10038 30.7074 3.88494C30.473 3.66714 30.1937 3.55824 29.8693 3.55824C29.3793 3.55824 28.9946 3.79972 28.7152 4.28267C28.4358 4.76562 28.295 5.46046 28.2926 6.36719C28.2926 6.97325 28.3554 7.4858 28.4808 7.90483C28.6087 8.3215 28.7898 8.63755 29.0242 8.85298C29.2585 9.06605 29.5402 9.17259 29.8693 9.17259ZM36.4531 10V4.54545H37.4723V5.43324H37.5398C37.6534 5.13258 37.8393 4.8982 38.0973 4.73011C38.3554 4.55966 38.6643 4.47443 39.0242 4.47443C39.3887 4.47443 39.6941 4.55966 39.9403 4.73011C40.1889 4.90057 40.3724 5.13494 40.4908 5.43324H40.5476C40.6778 5.14205 40.8849 4.91004 41.169 4.73722C41.4531 4.56203 41.7917 4.47443 42.1847 4.47443C42.6795 4.47443 43.0831 4.6295 43.3956 4.93963C43.7105 5.24976 43.8679 5.71733 43.8679 6.34233V10H42.8061V6.44176C42.8061 6.07244 42.7055 5.80492 42.5043 5.6392C42.303 5.47348 42.0627 5.39062 41.7834 5.39062C41.4377 5.39062 41.169 5.49716 40.9773 5.71023C40.7855 5.92093 40.6896 6.192 40.6896 6.52344V10H39.6314V6.37429C39.6314 6.07836 39.5391 5.84044 39.3544 5.66051C39.1697 5.48059 38.9295 5.39062 38.6335 5.39062C38.4323 5.39062 38.2465 5.44389 38.076 5.55043C37.9079 5.65459 37.7718 5.80019 37.6676 5.98722C37.5658 6.17424 37.5149 6.39086 37.5149 6.63707V10H36.4531ZM46.3528 2.72727V10H45.291V2.72727H46.3528Z" fill="#404040"/>
    <path d="M12.158 72.0994C11.649 72.0994 11.1992 72.0118 10.8086 71.8366C10.4203 71.6615 10.1161 71.42 9.89595 71.1122C9.67578 70.8045 9.56688 70.4541 9.56925 70.0611C9.56688 69.7533 9.62962 69.4704 9.75746 69.2124C9.88767 68.9519 10.064 68.7353 10.2866 68.5625C10.5091 68.3873 10.7577 68.276 11.0323 68.2287V68.1861C10.6701 68.0985 10.3801 67.9044 10.1623 67.6037C9.94449 67.303 9.83677 66.9574 9.83914 66.5668C9.83677 66.1951 9.93502 65.8636 10.1339 65.5724C10.3351 65.2789 10.6109 65.0481 10.9613 64.88C11.3117 64.7119 11.7106 64.6278 12.158 64.6278C12.6007 64.6278 12.9961 64.7131 13.3441 64.8835C13.6945 65.0516 13.9703 65.2824 14.1715 65.576C14.3728 65.8672 14.4746 66.1974 14.4769 66.5668C14.4746 66.9574 14.3633 67.303 14.1431 67.6037C13.9229 67.9044 13.6365 68.0985 13.2837 68.1861V68.2287C13.556 68.276 13.801 68.3873 14.0188 68.5625C14.239 68.7353 14.4142 68.9519 14.5444 69.2124C14.677 69.4704 14.7444 69.7533 14.7468 70.0611C14.7444 70.4541 14.6332 70.8045 14.413 71.1122C14.1928 71.42 13.8874 71.6615 13.4968 71.8366C13.1085 72.0118 12.6623 72.0994 12.158 72.0994ZM12.158 71.201C12.4587 71.201 12.7191 71.1513 12.9393 71.0518C13.1594 70.95 13.3299 70.8092 13.4506 70.6293C13.5714 70.447 13.6329 70.2339 13.6353 69.9901C13.6329 69.7367 13.5666 69.513 13.4364 69.3189C13.3086 69.1248 13.1346 68.9721 12.9144 68.8608C12.6942 68.7495 12.4421 68.6939 12.158 68.6939C11.8716 68.6939 11.6171 68.7495 11.3945 68.8608C11.172 68.9721 10.9968 69.1248 10.869 69.3189C10.7411 69.513 10.6784 69.7367 10.6808 69.9901C10.6784 70.2339 10.7364 70.447 10.8548 70.6293C10.9755 70.8092 11.1471 70.95 11.3697 71.0518C11.5922 71.1513 11.855 71.201 12.158 71.201ZM12.158 67.8168C12.3995 67.8168 12.6138 67.7682 12.8008 67.6712C12.9878 67.5741 13.1346 67.4392 13.2411 67.2663C13.35 67.0935 13.4057 66.8911 13.408 66.6591C13.4057 66.4318 13.3512 66.233 13.2447 66.0625C13.1405 65.892 12.9949 65.7607 12.8079 65.6683C12.6209 65.5736 12.4042 65.5263 12.158 65.5263C11.9071 65.5263 11.6869 65.5736 11.4975 65.6683C11.3105 65.7607 11.1649 65.892 11.0607 66.0625C10.9566 66.233 10.9057 66.4318 10.908 66.6591C10.9057 66.8911 10.9577 67.0935 11.0643 67.2663C11.1708 67.4392 11.3176 67.5741 11.5046 67.6712C11.694 67.7682 11.9118 67.8168 12.158 67.8168ZM18.551 72.1207C17.9899 72.1184 17.5105 71.9704 17.1128 71.6768C16.715 71.3833 16.4108 70.956 16.2001 70.3949C15.9894 69.8338 15.8841 69.1579 15.8841 68.3672C15.8841 67.5788 15.9894 66.9053 16.2001 66.3466C16.4132 65.7879 16.7186 65.3617 17.1163 65.0682C17.5164 64.7746 17.9946 64.6278 18.551 64.6278C19.1073 64.6278 19.5843 64.7758 19.9821 65.0717C20.3798 65.3653 20.684 65.7914 20.8947 66.3501C21.1078 66.9065 21.2143 67.5788 21.2143 68.3672C21.2143 69.1603 21.109 69.8374 20.8983 70.3984C20.6876 70.9571 20.3833 71.3845 19.9856 71.6804C19.5879 71.974 19.1097 72.1207 18.551 72.1207ZM18.551 71.1726C19.0434 71.1726 19.4281 70.9323 19.7051 70.4517C19.9844 69.9711 20.1241 69.2763 20.1241 68.3672C20.1241 67.7635 20.0602 67.2533 19.9324 66.8366C19.8069 66.4176 19.6258 66.1004 19.389 65.8849C19.1547 65.6671 18.8753 65.5582 18.551 65.5582C18.0609 65.5582 17.6762 65.7997 17.3968 66.2827C17.1175 66.7656 16.9766 67.4605 16.9743 68.3672C16.9743 68.9732 17.037 69.4858 17.1625 69.9048C17.2903 70.3215 17.4714 70.6375 17.7058 70.853C17.9402 71.0661 18.2219 71.1726 18.551 71.1726ZM25.006 72.1207C24.445 72.1184 23.9656 71.9704 23.5678 71.6768C23.1701 71.3833 22.8659 70.956 22.6552 70.3949C22.4445 69.8338 22.3391 69.1579 22.3391 68.3672C22.3391 67.5788 22.4445 66.9053 22.6552 66.3466C22.8683 65.7879 23.1737 65.3617 23.5714 65.0682C23.9715 64.7746 24.4497 64.6278 25.006 64.6278C25.5624 64.6278 26.0394 64.7758 26.4371 65.0717C26.8349 65.3653 27.1391 65.7914 27.3498 66.3501C27.5629 66.9065 27.6694 67.5788 27.6694 68.3672C27.6694 69.1603 27.564 69.8374 27.3533 70.3984C27.1426 70.9571 26.8384 71.3845 26.4407 71.6804C26.043 71.974 25.5648 72.1207 25.006 72.1207ZM25.006 71.1726C25.4985 71.1726 25.8832 70.9323 26.1602 70.4517C26.4395 69.9711 26.5792 69.2763 26.5792 68.3672C26.5792 67.7635 26.5153 67.2533 26.3874 66.8366C26.262 66.4176 26.0809 66.1004 25.8441 65.8849C25.6097 65.6671 25.3304 65.5582 25.006 65.5582C24.516 65.5582 24.1313 65.7997 23.8519 66.2827C23.5726 66.7656 23.4317 67.4605 23.4293 68.3672C23.4293 68.9732 23.4921 69.4858 23.6175 69.9048C23.7454 70.3215 23.9265 70.6375 24.1609 70.853C24.3952 71.0661 24.677 71.1726 25.006 71.1726Z" fill="#369FFF"/>
    <path d="M12.2397 119.099C11.9154 119.095 11.5958 119.036 11.2809 118.922C10.9684 118.808 10.6843 118.619 10.4286 118.354C10.1729 118.089 9.96816 117.732 9.81428 117.285C9.66276 116.837 9.58701 116.279 9.58701 115.609C9.58701 114.974 9.64974 114.411 9.77522 113.918C9.90306 113.426 10.0865 113.01 10.3256 112.672C10.5648 112.331 10.8536 112.072 11.1921 111.894C11.5307 111.717 11.9106 111.628 12.332 111.628C12.7653 111.628 13.15 111.713 13.4862 111.884C13.8223 112.054 14.0946 112.29 14.3029 112.59C14.5136 112.891 14.6474 113.233 14.7042 113.616H13.6211C13.5477 113.313 13.4021 113.066 13.1843 112.874C12.9665 112.683 12.6824 112.587 12.332 112.587C11.7994 112.587 11.3839 112.819 11.0856 113.283C10.7897 113.747 10.6405 114.392 10.6381 115.218H10.6914C10.8169 115.012 10.9708 114.837 11.1531 114.692C11.3377 114.546 11.5437 114.433 11.771 114.355C12.0006 114.275 12.2421 114.234 12.4954 114.234C12.9168 114.234 13.2979 114.337 13.6389 114.543C13.9821 114.747 14.2556 115.029 14.4592 115.388C14.6628 115.748 14.7646 116.16 14.7646 116.624C14.7646 117.088 14.6592 117.509 14.4485 117.885C14.2402 118.261 13.9466 118.56 13.5678 118.78C13.189 118.998 12.7463 119.104 12.2397 119.099ZM12.2362 118.176C12.5155 118.176 12.7653 118.107 12.9854 117.97C13.2056 117.833 13.3796 117.648 13.5075 117.416C13.6353 117.184 13.6992 116.925 13.6992 116.638C13.6992 116.359 13.6365 116.105 13.511 115.875C13.3879 115.645 13.2175 115.463 12.9996 115.328C12.7842 115.193 12.538 115.126 12.261 115.126C12.0503 115.126 11.855 115.166 11.6751 115.246C11.4975 115.327 11.3413 115.438 11.2063 115.58C11.0714 115.722 10.9648 115.886 10.8867 116.07C10.811 116.253 10.7731 116.446 10.7731 116.649C10.7731 116.921 10.8358 117.174 10.9613 117.406C11.0891 117.638 11.2631 117.825 11.4833 117.967C11.7059 118.106 11.9568 118.176 12.2362 118.176ZM18.59 119.121C18.0289 119.118 17.5495 118.97 17.1518 118.677C16.7541 118.383 16.4499 117.956 16.2392 117.395C16.0285 116.834 15.9231 116.158 15.9231 115.367C15.9231 114.579 16.0285 113.905 16.2392 113.347C16.4522 112.788 16.7576 112.362 17.1554 112.068C17.5555 111.775 18.0337 111.628 18.59 111.628C19.1464 111.628 19.6234 111.776 20.0211 112.072C20.4189 112.365 20.7231 112.791 20.9338 113.35C21.1468 113.906 21.2534 114.579 21.2534 115.367C21.2534 116.16 21.148 116.837 20.9373 117.398C20.7266 117.957 20.4224 118.384 20.0247 118.68C19.627 118.974 19.1487 119.121 18.59 119.121ZM18.59 118.173C19.0824 118.173 19.4672 117.932 19.7441 117.452C20.0235 116.971 20.1632 116.276 20.1632 115.367C20.1632 114.763 20.0993 114.253 19.9714 113.837C19.8459 113.418 19.6648 113.1 19.4281 112.885C19.1937 112.667 18.9144 112.558 18.59 112.558C18.1 112.558 17.7153 112.8 17.4359 113.283C17.1565 113.766 17.0157 114.46 17.0133 115.367C17.0133 115.973 17.0761 116.486 17.2015 116.905C17.3294 117.321 17.5105 117.638 17.7449 117.853C17.9792 118.066 18.261 118.173 18.59 118.173ZM25.0451 119.121C24.484 119.118 24.0046 118.97 23.6069 118.677C23.2092 118.383 22.905 117.956 22.6942 117.395C22.4835 116.834 22.3782 116.158 22.3782 115.367C22.3782 114.579 22.4835 113.905 22.6942 113.347C22.9073 112.788 23.2127 112.362 23.6104 112.068C24.0105 111.775 24.4888 111.628 25.0451 111.628C25.6014 111.628 26.0785 111.776 26.4762 112.072C26.8739 112.365 27.1782 112.791 27.3889 113.35C27.6019 113.906 27.7085 114.579 27.7085 115.367C27.7085 116.16 27.6031 116.837 27.3924 117.398C27.1817 117.957 26.8775 118.384 26.4798 118.68C26.082 118.974 25.6038 119.121 25.0451 119.121ZM25.0451 118.173C25.5375 118.173 25.9222 117.932 26.1992 117.452C26.4786 116.971 26.6183 116.276 26.6183 115.367C26.6183 114.763 26.5543 114.253 26.4265 113.837C26.301 113.418 26.1199 113.1 25.8832 112.885C25.6488 112.667 25.3694 112.558 25.0451 112.558C24.555 112.558 24.1703 112.8 23.891 113.283C23.6116 113.766 23.4708 114.46 23.4684 115.367C23.4684 115.973 23.5311 116.486 23.6566 116.905C23.7844 117.321 23.9656 117.638 24.1999 117.853C24.4343 118.066 24.716 118.173 25.0451 118.173Z" fill="#369FFF"/>
    <path d="M9.54794 179.58V178.692L12.6907 173.727H13.3903V175.034H12.9464L10.6985 178.592V178.649H15.006V179.58H9.54794ZM12.9961 181V179.31L13.0032 178.905V173.727H14.0437V181H12.9961ZM18.7756 181.121C18.2145 181.118 17.7351 180.97 17.3374 180.677C16.9396 180.383 16.6354 179.956 16.4247 179.395C16.214 178.834 16.1087 178.158 16.1087 177.367C16.1087 176.579 16.214 175.905 16.4247 175.347C16.6378 174.788 16.9432 174.362 17.3409 174.068C17.741 173.775 18.2192 173.628 18.7756 173.628C19.3319 173.628 19.809 173.776 20.2067 174.072C20.6044 174.365 20.9086 174.791 21.1193 175.35C21.3324 175.906 21.4389 176.579 21.4389 177.367C21.4389 178.16 21.3336 178.837 21.1229 179.398C20.9122 179.957 20.608 180.384 20.2102 180.68C19.8125 180.974 19.3343 181.121 18.7756 181.121ZM18.7756 180.173C19.268 180.173 19.6527 179.932 19.9297 179.452C20.209 178.971 20.3487 178.276 20.3487 177.367C20.3487 176.763 20.2848 176.253 20.157 175.837C20.0315 175.418 19.8504 175.1 19.6136 174.885C19.3793 174.667 19.0999 174.558 18.7756 174.558C18.2855 174.558 17.9008 174.8 17.6215 175.283C17.3421 175.766 17.2012 176.46 17.1989 177.367C17.1989 177.973 17.2616 178.486 17.3871 178.905C17.5149 179.321 17.696 179.638 17.9304 179.853C18.1648 180.066 18.4465 180.173 18.7756 180.173ZM25.2306 181.121C24.6696 181.118 24.1902 180.97 23.7924 180.677C23.3947 180.383 23.0905 179.956 22.8798 179.395C22.6691 178.834 22.5637 178.158 22.5637 177.367C22.5637 176.579 22.6691 175.905 22.8798 175.347C23.0929 174.788 23.3983 174.362 23.796 174.068C24.1961 173.775 24.6743 173.628 25.2306 173.628C25.787 173.628 26.264 173.776 26.6618 174.072C27.0595 174.365 27.3637 174.791 27.5744 175.35C27.7875 175.906 27.894 176.579 27.894 177.367C27.894 178.16 27.7887 178.837 27.578 179.398C27.3672 179.957 27.063 180.384 26.6653 180.68C26.2676 180.974 25.7894 181.121 25.2306 181.121ZM25.2306 180.173C25.7231 180.173 26.1078 179.932 26.3848 179.452C26.6641 178.971 26.8038 178.276 26.8038 177.367C26.8038 176.763 26.7399 176.253 26.612 175.837C26.4866 175.418 26.3055 175.1 26.0687 174.885C25.8343 174.667 25.555 174.558 25.2306 174.558C24.7406 174.558 24.3559 174.8 24.0765 175.283C23.7972 175.766 23.6563 176.46 23.6539 177.367C23.6539 177.973 23.7167 178.486 23.8422 178.905C23.97 179.321 24.1511 179.638 24.3855 179.853C24.6199 180.066 24.9016 180.173 25.2306 180.173Z" fill="#369FFF"/>
    <path d="M9.70064 243V242.205L12.1616 239.655C12.4244 239.378 12.641 239.135 12.8114 238.927C12.9843 238.716 13.1133 238.516 13.1985 238.327C13.2837 238.137 13.3264 237.936 13.3264 237.723C13.3264 237.482 13.2695 237.273 13.1559 237.098C13.0423 236.92 12.8872 236.784 12.6907 236.69C12.4942 236.593 12.2728 236.544 12.0266 236.544C11.7662 236.544 11.5389 236.597 11.3448 236.704C11.1507 236.81 11.0015 236.961 10.8974 237.155C10.7932 237.349 10.7411 237.576 10.7411 237.837H9.69354C9.69354 237.394 9.79534 237.007 9.99894 236.675C10.2025 236.344 10.4819 236.087 10.837 235.905C11.1921 235.72 11.5958 235.628 12.0479 235.628C12.5049 235.628 12.9073 235.719 13.2553 235.901C13.6057 236.081 13.8791 236.327 14.0756 236.64C14.2721 236.95 14.3704 237.3 14.3704 237.691C14.3704 237.961 14.3195 238.225 14.2177 238.483C14.1183 238.741 13.9443 239.029 13.6957 239.346C13.4471 239.661 13.1014 240.043 12.6587 240.493L11.2134 242.006V242.059H14.4876V243H9.70064ZM18.3654 243.121C17.8043 243.118 17.3249 242.97 16.9272 242.677C16.5295 242.383 16.2253 241.956 16.0146 241.395C15.8039 240.834 15.6985 240.158 15.6985 239.367C15.6985 238.579 15.8039 237.905 16.0146 237.347C16.2276 236.788 16.533 236.362 16.9308 236.068C17.3309 235.775 17.8091 235.628 18.3654 235.628C18.9218 235.628 19.3988 235.776 19.7965 236.072C20.1943 236.365 20.4985 236.791 20.7092 237.35C20.9222 237.906 21.0288 238.579 21.0288 239.367C21.0288 240.16 20.9234 240.837 20.7127 241.398C20.502 241.957 20.1978 242.384 19.8001 242.68C19.4023 242.974 18.9241 243.121 18.3654 243.121ZM18.3654 242.173C18.8578 242.173 19.2425 241.932 19.5195 241.452C19.7989 240.971 19.9386 240.276 19.9386 239.367C19.9386 238.763 19.8746 238.253 19.7468 237.837C19.6213 237.418 19.4402 237.1 19.2035 236.885C18.9691 236.667 18.6898 236.558 18.3654 236.558C17.8754 236.558 17.4907 236.8 17.2113 237.283C16.9319 237.766 16.7911 238.46 16.7887 239.367C16.7887 239.973 16.8514 240.486 16.9769 240.905C17.1048 241.321 17.2859 241.638 17.5202 241.853C17.7546 242.066 18.0363 242.173 18.3654 242.173ZM24.8205 243.121C24.2594 243.118 23.78 242.97 23.3823 242.677C22.9846 242.383 22.6803 241.956 22.4696 241.395C22.2589 240.834 22.1536 240.158 22.1536 239.367C22.1536 238.579 22.2589 237.905 22.4696 237.347C22.6827 236.788 22.9881 236.362 23.3858 236.068C23.7859 235.775 24.2641 235.628 24.8205 235.628C25.3768 235.628 25.8539 235.776 26.2516 236.072C26.6493 236.365 26.9535 236.791 27.1642 237.35C27.3773 237.906 27.4838 238.579 27.4838 239.367C27.4838 240.16 27.3785 240.837 27.1678 241.398C26.9571 241.957 26.6529 242.384 26.2552 242.68C25.8574 242.974 25.3792 243.121 24.8205 243.121ZM24.8205 242.173C25.3129 242.173 25.6976 241.932 25.9746 241.452C26.254 240.971 26.3936 240.276 26.3936 239.367C26.3936 238.763 26.3297 238.253 26.2019 237.837C26.0764 237.418 25.8953 237.1 25.6586 236.885C25.4242 236.667 25.1448 236.558 24.8205 236.558C24.3304 236.558 23.9457 236.8 23.6664 237.283C23.387 237.766 23.2462 238.46 23.2438 239.367C23.2438 239.973 23.3065 240.486 23.432 240.905C23.5598 241.321 23.7409 241.638 23.9753 241.853C24.2097 242.066 24.4914 242.173 24.8205 242.173Z" fill="#369FFF"/>
    <path d="M12.2326 305.121C11.6715 305.118 11.1921 304.97 10.7944 304.677C10.3967 304.383 10.0925 303.956 9.88175 303.395C9.67105 302.834 9.5657 302.158 9.5657 301.367C9.5657 300.579 9.67105 299.905 9.88175 299.347C10.0948 298.788 10.4002 298.362 10.7979 298.068C11.198 297.775 11.6763 297.628 12.2326 297.628C12.7889 297.628 13.266 297.776 13.6637 298.072C14.0614 298.365 14.3657 298.791 14.5764 299.35C14.7894 299.906 14.896 300.579 14.896 301.367C14.896 302.16 14.7906 302.837 14.5799 303.398C14.3692 303.957 14.065 304.384 13.6673 304.68C13.2695 304.974 12.7913 305.121 12.2326 305.121ZM12.2326 304.173C12.725 304.173 13.1097 303.932 13.3867 303.452C13.6661 302.971 13.8058 302.276 13.8058 301.367C13.8058 300.763 13.7418 300.253 13.614 299.837C13.4885 299.418 13.3074 299.1 13.0707 298.885C12.8363 298.667 12.5569 298.558 12.2326 298.558C11.7425 298.558 11.3578 298.8 11.0785 299.283C10.7991 299.766 10.6583 300.46 10.6559 301.367C10.6559 301.973 10.7186 302.486 10.8441 302.905C10.9719 303.321 11.1531 303.638 11.3874 303.853C11.6218 304.066 11.9035 304.173 12.2326 304.173Z" fill="#369FFF"/>
    <path d="M0.501063 11.5L0.501068 73" stroke="#404040" stroke-linecap="square"/>
    <path d="M0.501068 73L1.00108 306" stroke="#369FFF" stroke-linecap="square"/>
</svg>
