<svg width="30" height="30" viewBox="0 0 30 30" fill="none" xmlns="http://www.w3.org/2000/svg">
<path fill-rule="evenodd" clip-rule="evenodd" d="M7.17998 14.5651C7.06473 14.6805 7 14.8369 7 15C7 15.1631 7.06473 15.3195 7.17998 15.4349L13.334 21.589C13.3904 21.6494 13.4583 21.6979 13.5338 21.7316C13.6093 21.7652 13.6908 21.7833 13.7734 21.7847C13.856 21.7862 13.9381 21.771 14.0148 21.74C14.0914 21.7091 14.161 21.663 14.2194 21.6046C14.2779 21.5461 14.3239 21.4765 14.3549 21.3999C14.3858 21.3233 14.401 21.2412 14.3996 21.1586C14.3981 21.0759 14.38 20.9944 14.3464 20.919C14.3128 20.8435 14.2643 20.7755 14.2038 20.7192L9.10004 15.6154L22.3846 15.6154C22.5478 15.6154 22.7043 15.5506 22.8198 15.4352C22.9352 15.3198 23 15.1632 23 15C23 14.8368 22.9352 14.6803 22.8198 14.5649C22.7043 14.4495 22.5478 14.3846 22.3846 14.3846L9.10004 14.3846L14.2038 9.28085C14.2643 9.22451 14.3128 9.15657 14.3464 9.08108C14.38 9.00559 14.3981 8.9241 14.3996 8.84147C14.401 8.75884 14.3858 8.67676 14.3549 8.60014C14.3239 8.52351 14.2779 8.4539 14.2194 8.39546C14.161 8.33702 14.0914 8.29095 14.0148 8.26C13.9381 8.22905 13.856 8.21385 13.7734 8.21531C13.6908 8.21676 13.6093 8.23485 13.5338 8.26849C13.4583 8.30212 13.3904 8.35062 13.334 8.41108L7.17998 14.5651Z" fill="#369FFF"/>
</svg>
