<svg width="57" height="68" viewBox="0 0 57 68" fill="none" xmlns="http://www.w3.org/2000/svg">
<path d="M28.4822 0L48.6459 19.9227C52.6336 23.8601 55.3498 28.8775 56.451 34.3404C57.5522 39.8032 56.9889 45.4661 54.8323 50.6126C52.6758 55.7591 49.0229 60.158 44.3357 63.253C39.6485 66.348 34.1376 68 28.5 68C22.8624 68 17.3515 66.348 12.6643 63.253C7.97711 60.158 4.32421 55.7591 2.16766 50.6126C0.0111107 45.4661 -0.552193 39.8032 0.549 34.3404C1.65019 28.8775 4.36641 23.8601 8.35407 19.9227L28.4822 0Z" fill="url(#paint0_linear_55_2008)"/>
<path d="M28.4891 14L40.8703 25.7192C43.3189 28.0353 44.9867 30.9868 45.6629 34.2002C46.3391 37.4137 45.9932 40.7447 44.669 43.7721C43.3448 46.7995 41.1018 49.3871 38.2237 51.2077C35.3456 53.0283 31.9617 54 28.5 54C25.0383 54 21.6544 53.0283 18.7763 51.2077C15.8982 49.3871 13.6552 46.7995 12.331 43.7721C11.0068 40.7447 10.6609 37.4137 11.3371 34.2002C12.0133 30.9868 13.6811 28.0353 16.1297 25.7192L28.4891 14Z" fill="white"/>
<path d="M28.4959 27L33.0947 31.1017C34.0042 31.9124 34.6236 32.9454 34.8748 34.0701C35.1259 35.1948 34.9975 36.3607 34.5056 37.4202C34.0138 38.4798 33.1807 39.3855 32.1116 40.0227C31.0426 40.6599 29.7858 41 28.5 41C27.2142 41 25.9574 40.6599 24.8884 40.0227C23.8193 39.3855 22.9862 38.4798 22.4944 37.4202C22.0025 36.3607 21.8741 35.1948 22.1252 34.0701C22.3764 32.9454 22.9958 31.9124 23.9053 31.1017L28.4959 27Z" fill="#369FFF"/>
<defs>
<linearGradient id="paint0_linear_55_2008" x1="19.5429" y1="10.8614" x2="48.3318" y2="61.2448" gradientUnits="userSpaceOnUse">
<stop offset="0.461718" stop-color="#369FFF"/>
<stop offset="1" stop-color="#205F99"/>
</linearGradient>
</defs>
</svg>
