<svg width="153" height="181" viewBox="0 0 153 181" fill="none" xmlns="http://www.w3.org/2000/svg">
<path d="M76.4522 0L130.576 53.0294C141.28 63.5099 148.571 76.8652 151.526 91.406C154.482 105.947 152.97 121.02 147.182 134.719C141.393 148.418 131.588 160.127 119.006 168.365C106.425 176.603 91.6324 181 76.5 181C61.3676 181 46.5751 176.603 33.9937 168.365C21.4122 160.127 11.6071 148.418 5.81845 134.719C0.0298235 121.02 -1.4822 105.947 1.47363 91.406C4.42946 76.8652 11.7204 63.5099 22.4241 53.0294L76.4522 0Z" fill="url(#paint0_linear_160_2156)" fill-opacity="0.05"/>
<path d="M76.4597 14L122.093 58.826C131.118 67.6851 137.265 78.9744 139.758 91.2659C142.25 103.557 140.975 116.299 136.094 127.878C131.214 139.458 122.947 149.356 112.339 156.319C101.731 163.283 89.2587 167 76.5 167C63.7413 167 51.2692 163.283 40.6613 156.319C30.0535 149.356 21.7864 139.458 16.9058 127.878C12.0251 116.299 10.7503 103.557 13.2425 91.2659C15.7346 78.9744 21.8819 67.6851 30.9066 58.826L76.4597 14Z" fill="url(#paint1_linear_160_2156)" fill-opacity="0.1"/>
<path d="M76.4672 28L113.611 64.6225C120.957 71.8604 125.96 81.0837 127.989 91.1257C130.017 101.168 128.98 111.577 125.007 121.038C121.034 130.498 114.305 138.585 105.671 144.274C97.0367 149.963 86.885 153 76.5 153C66.115 153 55.9633 149.963 47.329 144.274C38.6947 138.585 31.9656 130.498 27.9931 121.038C24.0205 111.577 22.9828 101.168 25.0113 91.1257C27.0398 81.0837 32.0434 71.8604 39.3891 64.6225L76.4672 28Z" fill="url(#paint2_linear_160_2156)" fill-opacity="0.3"/>
<path d="M76.4809 54L98.0597 75.3207C102.327 79.5345 105.234 84.904 106.412 90.7502C107.591 96.5965 106.988 102.657 104.68 108.164C102.372 113.672 98.4631 118.38 93.447 121.692C88.4308 125.004 82.5332 126.772 76.5 126.772C70.4668 126.772 64.5692 125.004 59.553 121.692C54.5369 118.38 50.6277 113.672 48.3198 108.164C46.0119 102.657 45.4091 96.5965 46.5875 90.7502C47.766 84.904 50.6728 79.5345 54.9403 75.3207L76.4809 54Z" fill="url(#paint3_linear_160_2156)"/>
<path d="M76.4883 68.9824L89.7384 81.524C92.3588 84.0027 94.1437 87.1613 94.8673 90.6002C95.591 94.0392 95.2208 97.604 93.8037 100.844C92.3866 104.084 89.9862 106.853 86.9061 108.801C83.826 110.75 80.2046 111.789 76.5 111.789C72.7955 111.789 69.1741 110.75 66.094 108.801C63.0139 106.853 60.6135 104.084 59.1964 100.844C57.7793 97.604 57.4091 94.0392 58.1327 90.6002C58.8564 87.1613 60.6412 84.0027 63.2616 81.524L76.4883 68.9824Z" fill="white"/>
<path d="M76.4957 82.8945L81.4172 87.2841C82.3905 88.1516 83.0535 89.2571 83.3222 90.4608C83.591 91.6644 83.4535 92.9121 82.9272 94.046C82.4008 95.1799 81.5092 96.1492 80.3652 96.8311C79.2212 97.513 77.8761 97.877 76.5001 97.877C75.1241 97.877 73.779 97.513 72.635 96.8311C71.491 96.1492 70.5994 95.1799 70.073 94.046C69.5467 92.9121 69.4092 91.6644 69.6779 90.4608C69.9467 89.2571 70.6097 88.1516 71.583 87.2841L76.4957 82.8945Z" fill="#369FFF"/>
<defs>
<linearGradient id="paint0_linear_160_2156" x1="52.4571" y1="28.9105" x2="128.759" y2="163.571" gradientUnits="userSpaceOnUse">
<stop offset="0.461718" stop-color="#369FFF"/>
<stop offset="1" stop-color="#205F99"/>
</linearGradient>
<linearGradient id="paint1_linear_160_2156" x1="56.2286" y1="38.4382" x2="120.811" y2="152.125" gradientUnits="userSpaceOnUse">
<stop offset="0.461718" stop-color="#369FFF"/>
<stop offset="1" stop-color="#205F99"/>
</linearGradient>
<linearGradient id="paint2_linear_160_2156" x1="60" y1="47.9658" x2="112.864" y2="140.678" gradientUnits="userSpaceOnUse">
<stop offset="0.461718" stop-color="#369FFF"/>
<stop offset="1" stop-color="#205F99"/>
</linearGradient>
<linearGradient id="paint3_linear_160_2156" x1="66.9143" y1="65.6236" x2="97.7235" y2="119.543" gradientUnits="userSpaceOnUse">
<stop offset="0.461718" stop-color="#369FFF"/>
<stop offset="1" stop-color="#205F99"/>
</linearGradient>
</defs>
</svg>
