<svg width="20" height="20" viewBox="0 0 20 20" fill="none" xmlns="http://www.w3.org/2000/svg">
<path d="M14.985 15.6044C14.4027 14.8335 13.6494 14.2083 12.7843 13.7781C11.9193 13.3478 10.9661 13.1244 10 13.1252C9.03387 13.1244 8.08073 13.3478 7.21568 13.7781C6.35062 14.2083 5.59728 14.8335 5.015 15.6044M14.985 15.6044C16.1212 14.5937 16.9226 13.2615 17.2843 11.7845C17.646 10.3074 17.5502 8.75532 17.0096 7.33397C16.4689 5.91263 15.5089 4.68922 14.257 3.82599C13.0051 2.96276 11.5203 2.50049 9.99958 2.50049C8.47888 2.50049 6.99411 2.96276 5.74217 3.82599C4.49023 4.68922 3.53027 5.91263 2.98961 7.33397C2.44895 8.75532 2.35312 10.3074 2.71485 11.7845C3.07657 13.2615 3.87875 14.5937 5.015 15.6044M14.985 15.6044C13.6133 16.8279 11.838 17.5029 10 17.5002C8.16169 17.5031 6.38686 16.8281 5.015 15.6044M12.5 8.12524C12.5 8.78828 12.2366 9.42417 11.7678 9.89301C11.2989 10.3619 10.663 10.6252 10 10.6252C9.33696 10.6252 8.70107 10.3619 8.23223 9.89301C7.76339 9.42417 7.5 8.78828 7.5 8.12524C7.5 7.4622 7.76339 6.82632 8.23223 6.35748C8.70107 5.88863 9.33696 5.62524 10 5.62524C10.663 5.62524 11.2989 5.88863 11.7678 6.35748C12.2366 6.82632 12.5 7.4622 12.5 8.12524Z" stroke="#369FFF" stroke-width="1.5" stroke-linecap="round" stroke-linejoin="round"/>
</svg>
