<svg width="139" height="166" viewBox="0 0 139 166" fill="none" xmlns="http://www.w3.org/2000/svg">
<path d="M69.4566 0L118.628 48.5833C128.352 58.1851 134.976 70.4206 137.661 83.7423C140.347 97.064 138.973 110.873 133.714 123.424C128.455 135.974 119.547 146.701 108.117 154.249C96.6867 161.796 83.2477 165.825 69.5 165.825C55.7523 165.825 42.3133 161.796 30.8832 154.249C19.453 146.701 10.545 135.974 5.28604 123.424C0.0270946 110.873 -1.34658 97.064 1.33879 83.7423C4.02415 70.4206 10.6479 58.1851 20.3722 48.5833L69.4566 0Z" fill="url(#paint0_linear_66_1864)"/>
<path d="M69.4733 34.1404L99.6662 62.7188C105.637 68.3669 109.704 75.5643 111.353 83.4006C113.002 91.2369 112.159 99.36 108.93 106.743C105.7 114.125 100.231 120.435 93.2121 124.875C86.1936 129.315 77.9416 131.684 69.5 131.684C61.0584 131.684 52.8064 129.315 45.7879 124.875C38.7694 120.435 33.2995 114.125 30.0704 106.743C26.8412 99.36 25.9977 91.2369 27.6466 83.4006C29.2955 75.5643 33.3627 68.3669 39.3338 62.7188L69.4733 34.1404Z" fill="white"/>
<path d="M69.4901 65.8421L80.7046 75.8446C82.9224 77.8214 84.4331 80.3405 85.0455 83.0832C85.658 85.8259 85.3447 88.669 84.1453 91.2529C82.9459 93.8367 80.9142 96.0453 78.3074 97.5992C75.7005 99.1531 72.6355 99.9825 69.5 99.9825C66.3646 99.9825 63.2995 99.1531 60.6926 97.5992C58.0858 96.0453 56.0541 93.8367 54.8547 91.2529C53.6553 88.669 53.342 85.8259 53.9545 83.0832C54.5669 80.3405 56.0776 77.8214 58.2954 75.8446L69.4901 65.8421Z" fill="#369FFF"/>
<defs>
<linearGradient id="paint0_linear_66_1864" x1="47.6571" y1="26.4866" x2="117.862" y2="149.351" gradientUnits="userSpaceOnUse">
<stop offset="0.461718" stop-color="#369FFF"/>
<stop offset="1" stop-color="#205F99"/>
</linearGradient>
</defs>
</svg>
